<?xml version="1.0" encoding="utf-8"?>
<!-- Uploaded to: SVG Repo, www.svgrepo.com, Generator: SVG Repo Mixer Tools -->
<svg width="800px" height="800px" viewBox="0 0 1024 1024" class="icon"  version="1.1" xmlns="http://www.w3.org/2000/svg"><path d="M512.1024 269.177132l-12.280507-23.509542c-7.442732-14.753093-25.532566-21.014478-40.403044-13.986341-2.465093 1.163863-4.745366 2.657405-6.788371 4.440663-12.382907 10.829424-13.287024 29.646049-2.023024 42.028956 1.82322 2.003044 3.906185 3.763824 6.193951 5.229893l24.855727 13.511805" fill="#C38155" /><path d="M485.743141 290.164137a7.492683 7.492683 0 0 1-6.928234 13.287024l-25.088-13.077229-0.472039-0.269737a38.487415 38.487415 0 0 1-7.80238-6.35879c-14.336-15.215141-13.611707-38.867044 1.713327-52.748488a36.851512 36.851512 0 0 1 8.419278-5.726907c18.394537-9.088624 41.002459-1.700839 50.593092 16.50638l12.637659 23.202342a7.492683 7.492683 0 0 1-13.159649 7.168l-12.690107-23.292254c-5.859278-11.126634-19.645815-15.632234-30.744976-10.14759-1.82322 0.899122-3.504078 2.043005-4.995122 3.396683-9.058654 8.204488-9.490732 22.215805-0.866653 31.366868a23.46958 23.46958 0 0 0 4.553053 3.748839l24.830751 12.944859z" fill="#524F75" /><path d="M561.34681 781.938888c23.477073 0.414595 75.288976-7.385288 96.118634 0 13.888937 4.92519 29.558634 12.602693 47.009093 23.03001l29.813385-30.497718c8.209483-16.898498 21.798712-52.246478 18.901541-67.436643-3.843746-20.137834-42.248741-6.568585-64.067434-17.840078-15.654712-8.084605-37.083785-37.510868-46.624468-44.823727" fill="#C38155" /><path d="M728.071493 770.112937c10.709541-22.365659 19.748215-51.232468 17.757658-61.672274-0.844176-4.420683-5.844293-5.851785-24.091473-6.351297a368.689951 368.689951 0 0 1-8.259434-0.282225c-11.948332-0.576937-20.400078-2.132917-27.795356-5.951687-5.522107-2.854712-11.476293-7.702478-18.424508-14.590752a272.006868 272.006868 0 0 1-8.798907-9.206009c-2.46759-2.68238-10.664585-11.810966-12.180605-13.464352-3.951141-4.308293-6.601054-6.945717-8.336858-8.276917a7.492683 7.492683 0 0 1 9.116097-11.893385c2.65241 2.033015 5.731902 5.10002 10.262478 10.042693 1.590946 1.73081 9.775454 10.849405 12.16562 13.451863a255.360624 255.360624 0 0 0 8.321873 8.701503c5.956683 5.904234 10.891863 9.925307 14.750595 11.915863 5.0176 2.592468 11.668605 3.813776 21.638868 4.298302 2.177873 0.104898 3.833756 0.157346 7.947239 0.269737 11.89838 0.32718 16.863532 0.72679 22.41561 2.315239 8.626576 2.470088 14.370966 7.724956 15.986888 16.209171 2.862205 15.002849-7.128039 46.606985-19.523434 72.114575l-0.531981 1.093932-34.791024 35.592742-5.070049-3.032039c-17.053346-10.190049-32.290966-17.652761-45.6704-22.398127-8.184507-2.902166-23.2448-3.381698-46.616975-2.060488-4.031063 0.229776-8.037151 0.487024-13.856469 0.884136-21.249249 1.456078-26.20441 1.728312-33.272507 1.605932a7.492683 7.492683 0 1 1 0.264741-14.982868c6.428722 0.114888 11.358907-0.157346 31.986264-1.573464a1151.250732 1151.250732 0 0 1 14.033795-0.894126c25.480117-1.441093 41.68679-0.924098 52.473756 2.89717 13.009795 4.615493 27.420722 11.501268 43.247766 20.657327l24.850732-25.420175z" fill="#524F75" /><path d="M719.414946 802.241561c-10.472273-0.159844-25.000585-3.828761-28.689483-10.115122-9.470751-16.144234-4.028566-47.633483 0.009991-59.651746 4.00359-11.905873 16.334049-28.799376 32.832936-39.356566 13.037268-8.341854 35.20562-12.702595 49.36679-2.107942 14.161171 10.592156 6.094049 41.329639-3.014556 63.912586-11.975805 29.691005-32.403356 47.591024-50.505678 47.31879z" fill="#C38155" /><path d="M719.414946 802.241561c-10.472273-0.159844-25.000585-3.828761-28.689483-10.115122-9.470751-16.144234-4.028566-47.633483 0.009991-59.651746 4.00359-11.905873 16.334049-28.799376 32.832936-39.356566 13.037268-8.341854 35.20562-12.702595 49.36679-2.107942 14.161171 10.592156 6.094049 41.329639-3.014556 63.912586-11.975805 29.691005-32.403356 47.591024-50.505678 47.31879z m64.404605-41.716761c5.741893-14.228605 9.790439-28.105054 11.219044-40.310634 2.087961-17.830088-1.268761-32.335922-13.12718-41.204761-18.461971-13.811512-46.46962-11.276488-66.417639 1.483551-18.057366 11.55122-33.407376 30.667551-38.961952 47.208898-7.457717 22.20082-9.355863 53.897366 1.268761 72.004683 6.808351 11.613659 24.533541 17.265639 41.387083 17.52039 25.894712 0.38962 50.862829-22.565463 64.631883-56.702127z" fill="#524F75" /><path d="M771.004566 716.89241c-4.820293-2.212839-10.414829 0.254751-16.833561 3.571512-6.423727 3.316761-16.511376 12.115668-20.250225 19.695766-3.139434 6.363785-7.642537 17.230673-7.19797 29.046634 0.219785 5.914224 2.122927 12.115668 7.752429 14.435902 5.159961 2.125424 12.058224-1.23879 15.347512-4.558048 3.294283-3.314263 10.172566-11.044215 14.323512-20.442537 4.150946-9.395824 6.95321-21.901112 7.814869-26.281834 0.864156-4.390712 3.863727-13.259551-0.956566-15.467395z" fill="#FFDDAD" /><path d="M776.037151 690.880312l-12.387902 15.459903a7.492683 7.492683 0 0 1-11.698576-9.365854l12.387903-15.464898a7.492683 7.492683 0 0 1 10.532214-1.161365 7.490185 7.490185 0 0 1 1.166361 10.532214zM755.237463 687.223883l-7.645034 10.679571a7.492683 7.492683 0 0 1-12.1856-8.726478l7.647532-10.677074a7.492683 7.492683 0 1 1 12.183102 8.723981z" fill="#524F75" /><path d="M621.960117 486.429971c22.24078 58.862517 33.891902 101.695688 34.955863 128.492019 0.849171 21.399102-1.503532 49.281873-7.053112 83.645815-8.21198 50.815376-52.084137 88.163902-103.55637 88.163902H447.435551c-51.751961 0-93.70599-41.954029-93.70599-93.70599 0-16.851044 4.543063-33.39239 13.154654-47.880741 6.998166-11.771005 12.168117-21.843668 15.514848-30.225483 9.668059-24.216351 14.900449-67.569015 15.697171-130.055493-30.138068-16.688702-50.325854-48.999649-49.841327-85.8112 0.754263-57.239102 44.094439-104.917541 101.001366-111.11399 19.293659-2.100449 36.032312-3.171902 50.220956-3.214361 16.673717-0.049951 37.518361 1.893151 62.53643 5.829307 55.753054 8.776429 97.831961 55.253541 101.046321 111.601015l0.237269 4.150946c1.903141 33.374907-14.915434 63.490498-41.337132 80.124254z" fill="#C38155" /><path d="M663.294751 406.30322l-0.237268-4.150947c-3.214361-56.347473-45.293268-102.822088-101.046322-111.601014-25.015571-3.933659-45.860215-5.876761-62.533932-5.82681-14.188644 0.042459-30.927298 1.113912-50.220956 3.214361-56.906927 6.196449-100.247102 53.874888-101.001366 111.11399-0.484527 36.811551 19.700761 69.124995 49.843825 85.813698-0.796722 62.488976-6.029112 105.839141-15.697171 130.055492-3.346732 8.379317-8.516683 18.454478-15.514849 30.225483a93.710985 93.710985 0 0 0-13.154653 47.880742c0 51.749463 41.951532 93.703493 93.703492 93.703492h98.870947c51.472234 0 95.34439-37.348527 103.55637-88.163902 5.552078-34.363941 7.902283-62.246712 7.053112-83.645815-1.063961-26.796332-12.715083-69.629502-34.955863-128.492019 26.421698-16.633756 43.240273-46.749346 41.334634-80.126751z m-23.292253 85.611395c20.16281 54.776507 30.814907 95.329405 31.891356 122.412956 0.891629 22.542985-1.536 51.364839-7.235434 86.632897C655.270088 759.033756 605.136546 801.717073 546.306498 801.717073H447.435551c-60.028878 0-108.691356-48.662478-108.691356-108.691356 0-19.54841 5.269854-38.734673 15.2576-55.535766 6.628527-11.149112 11.456312-20.557424 14.478361-28.125034 8.384312-20.999493 13.369444-59.998907 14.490849-116.176546a111.501112 111.501112 0 0 1-49.698966-94.332878c0.854166-64.811707 49.926244-118.798985 114.363317-125.814634 19.78318-2.155395 37.036332-3.259317 51.796917-3.304274 17.565346-0.049951 39.166751 1.963083 64.909112 6.014127 62.721249 9.872859 110.062517 62.159298 113.678986 125.549893l0.237268 4.150946a103.553873 103.553873 0 0 1-38.255141 86.463064z" fill="#524F75" /><path d="M559.91321 532.77721c8.084605-1.361171 18.254673-0.589424 30.507707 2.305249a59.941463 59.941463 0 0 1 41.831649 35.97237c9.370849 23.312234 13.641678 47.176429 12.812488 71.595083-0.699317 20.579902-4.770341 41.064898-12.210576 61.452488a59.941463 59.941463 0 0 1-56.31001 39.394029H538.898732c-33.394888 0-60.468449-27.073561-60.468449-60.470946 0-3.8912 0.374634-7.77241 1.121405-11.591181 2.255298-11.556215 3.8912-21.151844 4.90521-28.786887 0.676839-5.092527 0.881639-11.004254 0.6144-17.737678-1.803239-45.170888 30.255454-84.639844 74.841912-92.132527z" fill="#FFDDAD" /><path d="M387.863727 495.798322c16.041834 7.999688 31.187044 12.747551 45.445619 14.181151a7.492683 7.492683 0 1 0 1.498537-14.912936c-12.327961-1.23879-25.752351-5.44718-40.258185-12.682615a7.492683 7.492683 0 1 0-6.685971 13.4144z" fill="#524F75" /><path d="M448.786732 757.407844c-10.489756 18.766673-26.334283 30.08562-52.561171 35.800039-4.380722 0.954068-8.761444 1.988059-13.242068 2.332722L331.88839 798.195512l-17.353053-34.381424c-23.964098-47.478634-4.245854-100.866498 43.877151-124.513405 11.009249-5.409717 21.209288-5.834302 33.180097-14.668176" fill="#C38155" /><path d="M321.223805 760.439883c-21.868644-43.327688-4.330771-92.38478 40.492956-114.410771 2.637424-1.298732 5.254868-2.307746 9.260956-3.648936l1.870673-0.621893c10.961795-3.618966 16.139239-5.889249 23.192351-11.094166A7.492683 7.492683 0 0 0 387.144429 618.605893c-5.442185 4.016078-9.435785 5.769366-18.993951 8.923785-0.891629 0.294712-1.381151 0.457054-1.928117 0.641873-4.58802 1.536-7.757424 2.757307-11.114146 4.408195-52.189034 25.644956-72.951259 83.718244-47.261347 134.613542l19.553405 38.737171 55.972839-2.907161c4.001093-0.304702 6.893268-0.834185 13.102205-2.197854 0.676839-0.149854 0.979044-0.217288 1.348683-0.294712 27.807844-6.059083 45.735337-18.409522 57.506341-39.466459a7.492683 7.492683 0 0 0-13.082224-7.312858c-9.578146 17.133268-23.831727 26.953678-47.616 32.133619l-1.373658 0.302205c-5.5296 1.213815-7.962224 1.65838-10.849405 1.883161l-46.032547 2.387668-15.152702-30.018185z" fill="#524F75" /><path d="M454.556098 736.780488m-9.990244 0a9.990244 9.990244 0 1 0 19.980487 0 9.990244 9.990244 0 1 0-19.980487 0Z" fill="#524F75" /><path d="M331.943337 798.4128c28.771902-4.555551 47.653463-36.309541 42.168819-70.918244-3.28679-20.752234-11.308956-42.758244-26.032078-52.116605-9.832898-6.251395-24.468605-4.125971-35.989854-2.300253-13.996332 2.220332-30.72999 3.716371-38.380019 16.006868-8.067122 12.969834-6.603551 37.146224-3.7888 54.911375C275.403551 778.607141 303.168937 802.965854 331.943337 798.4128z" fill="#C38155" /><path d="M331.943337 798.4128c28.771902-4.555551 47.653463-36.309541 42.168819-70.918244-3.28679-20.752234-11.308956-42.758244-26.032078-52.116605-9.832898-6.251395-24.468605-4.125971-35.989854-2.300253-13.996332 2.220332-30.72999 3.716371-38.380019 16.006868-8.067122 12.969834-6.603551 37.146224-3.7888 54.911375C275.403551 778.607141 303.168937 802.965854 331.943337 798.4128z m2.342712 14.800546c-37.613268 5.95918-72.476722-24.628449-79.16519-66.869697-4.275824-26.988644-3.598985-49.96121 5.869268-65.173854 7.737444-12.437854 19.480976-17.867551 37.096273-21.039454 2.322732-0.417093 4.160937-0.709307 8.092098-1.303726 1.840702-0.282224 2.612449-0.39961 3.566517-0.549464 9.253463-1.466068 14.685659-2.085463 21.02197-2.062985 9.660566 0.034966 18.094829 1.900644 25.350244 6.518634 17.747668 11.278985 28.347317 34.356449 32.792976 62.419044 6.693463 42.241249-17.010888 82.10482-54.621659 88.061502z" fill="#524F75" /><path d="M316.136273 705.825717c16.239141-2.964605 31.811434 7.799883 34.776039 24.039024 0.219785 1.198829 0.367141 2.410146 0.434576 3.626459l1.358673 23.194849a25.225366 25.225366 0 0 1-21.229268 26.384234 27.323317 27.323317 0 0 1-30.078127-18.004917l-7.395278-21.254244c-5.254868-15.095259 2.722341-31.591649 17.820097-36.841522 1.406127-0.497015 2.84722-0.874146 4.313288-1.143883z" fill="#FFDDAD" /><path d="M278.420605 680.925034l2.727336 17.557854a7.492683 7.492683 0 1 0 14.805542-2.297756l-2.722342-17.557854a7.49518 7.49518 0 0 0-14.810536 2.297756zM330.914341 670.457756l4.225874 19.890576a7.492683 7.492683 0 1 0 14.660683-3.109464L345.572527 667.348293a7.492683 7.492683 0 1 0-14.660683 3.109463zM302.324761 669.671024l4.238361 22.463064a7.492683 7.492683 0 0 0 14.723122-2.779786l-4.233366-22.460565a7.492683 7.492683 0 0 0-14.728117 2.779785z" fill="#524F75" /><path d="M390.223922 338.279649l-31.644098-18.222205c-17.108293-8.771434-24.45362-29.915785-16.408975-47.231376a33.78201 33.78201 0 0 1 5.095024-7.892292c12.455337-14.390946 34.214088-15.337522 48.600039-2.117932a36.671688 36.671688 0 0 1 6.086556 7.257912l15.772098 29.0816" fill="#C38155" /><path d="M411.136 302.729366a7.492683 7.492683 0 0 0 13.172137-7.143025l-15.772098-29.084097-0.272234-0.464546a44.186849 44.186849 0 0 0-7.330342-8.738966c-17.460449-16.049327-44.081951-14.885463-59.332058 2.729834a41.312156 41.312156 0 0 0-6.228917 9.640585c-9.715512 20.917073-0.936585 46.312273 19.618341 56.969366l31.496742 18.13479a7.49518 7.49518 0 0 0 7.477697-12.987317l-31.649092-18.222205-0.319688-0.172331c-13.531785-6.940722-19.37358-23.754302-13.032273-37.408469 1.038985-2.237815 2.372683-4.305795 3.963629-6.144 9.660566-11.159102 26.556566-11.893385 37.865522-1.503531 1.788254 1.643395 3.371707 3.511571 4.705405 5.564566l15.637229 28.829346z" fill="#524F75" /><path d="M362.72078 283.680468l1.680859-2.382673a15.092761 15.092761 0 0 1 24.718361 0.059942l6.715941 9.633092a12.053229 12.053229 0 0 1-1.840702 15.867005 16.498888 16.498888 0 0 1-17.690224 2.802264l-7.280391-3.219357a15.26759 15.26759 0 0 1-6.301346-22.760273z" fill="#FF8D8D" /><path d="M632.550897 325.787154a32.365893 33.569717 17.998 1 0-61.564285-20.001073 32.365893 33.569717 17.998 1 0 61.564285 20.001073Z" fill="#FFFFFF" /><path d="M601.807298 356.859005c-22.075941 0-39.858576-18.444488-39.858576-41.0624 0-22.62041 17.782634-41.0624 39.858576-41.0624 22.078439 0 39.858576 18.444488 39.858575 41.0624s-17.780137 41.0624-39.858575 41.0624z m0-14.985366c13.676644 0 24.87321-11.616156 24.873209-26.077034 0-14.463376-11.196566-26.077034-24.873209-26.077034-13.674146 0-24.87321 11.613659-24.87321 26.077034 0.002498 14.460878 11.201561 26.077034 24.87321 26.077034z" fill="#524F75" /><path d="M607.671571 326.446205a10.232507 10.232507 0 0 0 7.877307 3.738849c5.746888 0 10.402341-4.830283 10.402342-10.789464s-4.655454-10.789463-10.402342-10.789463c-5.676956 0-10.292449 4.712898-10.404839 10.572175l7.714966 1.161366-5.187434 6.106537z" fill="#232323" /><path d="M530.731707 310.948839m-38.712195 0a38.712195 38.712195 0 1 0 77.42439 0 38.712195 38.712195 0 1 0-77.42439 0Z" fill="#FFFFFF" /><path d="M530.731707 357.153717c-25.51758 0-46.204878-20.687298-46.204878-46.204878s20.687298-46.204878 46.204878-46.204878 46.204878 20.687298 46.204878 46.204878-20.689795 46.204878-46.204878 46.204878z m0-14.985366c17.240663 0 31.219512-13.978849 31.219513-31.219512s-13.978849-31.219512-31.219513-31.219512-31.219512 13.978849-31.219512 31.219512 13.976351 31.219512 31.219512 31.219512z" fill="#524F75" /><path d="M538.509112 326.111532a12.098185 12.098185 0 1 0-2.939629-8.152039l8.971239 1.303727-6.03161 6.848312z" fill="#232323" /><path d="M566.49678 352.158595h34.194108c32.510751 0 58.865015 26.356761 58.865014 58.867512 0 2.445112-0.154849 4.890224-0.457053 7.317854-4.735376 37.813073-36.886478 66.185366-74.994264 66.185366H551.5264C518.66599 484.529327 492.027005 457.890341 492.027005 425.029932c0-2.235317 0.124878-4.468137 0.377132-6.685971C496.667473 380.643278 528.556332 352.158595 566.49678 352.158595z" fill="#FFDDAD" /><path d="M587.336429 407.636917c1.401132 12.113171 1.401132 23.769288 0.007493 34.983337-1.366166 10.991766-4.343259 20.062907-11.099161 33.359922-1.703337 3.354224 0.814205 6.511141 4.630478 8.114575s9.408312-4.635473 11.084176-8.114575c7.25042-15.015337 8.68402-18.874068 10.252487-31.514225 1.540995-12.417873 1.540995-25.27282 0.007493-38.549853a7.492683 7.492683 0 0 0-14.882966 1.720819z" fill="#524F75" /><path d="M518.697827 410.68538a2.497561 2.497561 0 1 0-4.750697-1.543412 2.497561 2.497561 0 1 0 4.750697 1.543412Z" fill="#CBA978" /><path d="M508.989599 427.530158a2.497561 2.497561 0 1 0-4.750697-1.543412 2.497561 2.497561 0 1 0 4.750697 1.543412Z" fill="#CBA978" /><path d="M521.121305 446.781359a2.497561 2.497561 0 1 0-4.750697-1.543412 2.497561 2.497561 0 1 0 4.750697 1.543412Z" fill="#CBA978" /><path d="M539.324188 445.578487a2.497561 2.497561 0 1 0-4.750697-1.543412 2.497561 2.497561 0 1 0 4.750697 1.543412Z" fill="#CBA978" /><path d="M525.439811 430.249585a3.641444 3.608976 17.998 1 0-6.926516-2.250294 3.641444 3.608976 17.998 1 0 6.926516 2.250294Z" fill="#CBA978" /><path d="M527.8322 463.377684a3.641444 3.611473 17.998 1 0-6.926516-2.250294 3.641444 3.611473 17.998 1 0 6.926516 2.250294Z" fill="#CBA978" /><path d="M539.845506 471.246551a2.497561 2.497561 0 1 0-4.750697-1.543412 2.497561 2.497561 0 1 0 4.750697 1.543412Z" fill="#CBA978" /><path d="M544.632846 457.049335a2.497561 2.497561 0 1 0-4.750697-1.543412 2.497561 2.497561 0 1 0 4.750697 1.543412Z" fill="#CBA978" /><path d="M547.690821 443.524921a3.638946 3.611473 17.998 1 0-6.921766-2.248751 3.638946 3.611473 17.998 1 0 6.921766 2.248751Z" fill="#CBA978" /><path d="M508.989223 441.968436a2.497561 2.497561 0 1 0-4.750697-1.543411 2.497561 2.497561 0 1 0 4.750697 1.543411Z" fill="#CBA978" /><path d="M649.748266 417.904694a2.497561 2.497561 0 1 0-4.750697-1.543411 2.497561 2.497561 0 1 0 4.750697 1.543411Z" fill="#CBA978" /><path d="M649.74752 437.158108a2.497561 2.497561 0 1 0-4.750697-1.543411 2.497561 2.497561 0 1 0 4.750697 1.543411Z" fill="#CBA978" /><path d="M642.466861 451.596528a2.497561 2.497561 0 1 0-4.750697-1.543411 2.497561 2.497561 0 1 0 4.750697 1.543411Z" fill="#CBA978" /><path d="M655.814196 407.07689a2.497561 2.497561 0 1 0-4.750697-1.543412 2.497561 2.497561 0 1 0 4.750697 1.543412Z" fill="#CBA978" /><path d="M654.599169 427.531228a2.497561 2.497561 0 1 0-4.750698-1.543411 2.497561 2.497561 0 1 0 4.750698 1.543411Z" fill="#CBA978" /><path d="M641.254076 433.548509a2.497561 2.497561 0 1 0-4.750697-1.543412 2.497561 2.497561 0 1 0 4.750697 1.543412Z" fill="#CBA978" /><path d="M658.24281 419.107329a2.497561 2.497561 0 1 0-4.750697-1.543412 2.497561 2.497561 0 1 0 4.750697 1.543412Z" fill="#CBA978" /><path d="M540.409575 426.68089a3.638946 3.611473 17.998 1 0-6.921766-2.248751 3.638946 3.611473 17.998 1 0 6.921766 2.248751Z" fill="#CBA978" /><path d="M578.602459 369.004644h26.766361a12.889912 12.889912 0 0 1 12.8 14.440897 16.408976 16.408976 0 0 1-16.291591 14.440898h-14.912936a20.005463 20.005463 0 0 1-19.213737-14.440898 11.301463 11.301463 0 0 1 10.851903-14.440897z" fill="#8B674F" /><path d="M578.602459 369.004644a11.301463 11.301463 0 0 0-10.8544 14.440897 20.005463 20.005463 0 0 0 19.213736 14.440898h14.912937a16.408976 16.408976 0 0 0 16.29159-14.440898 12.89241 12.89241 0 0 0-12.8-14.440897H578.602459z m0-14.985366h26.766361c15.394966 0 27.877776 12.48281 27.877775 27.877776 0 1.118907-0.067434 2.237815-0.199805 3.346731a31.399337 31.399337 0 0 1-31.169561 27.62802h-14.912936a34.990829 34.990829 0 0 1-33.609678-25.257834c-4.033561-13.943883 3.996098-28.519649 17.93998-32.555708a26.216898 26.216898 0 0 1 7.307864-1.038985z" fill="#524F75" /><path d="M397.149659 525.908917c37.788098 24.049015 59.087298 41.224741 95.5392 49.097054 13.319493 2.874693 43.227785 0.59442 83.296156 2.335219 27.665483 1.201327 49.843824 23.626927 48.590048 51.519688a50.767922 50.767922 0 0 1-0.447063 4.80281c-4.016078 28.57959-30.245463 48.520117-58.587785 44.539005a50.600585 50.600585 0 0 1-4.230869-0.779239c-40.850107-9.278439-64.394615-14.066263-129.183844-63.338147" fill="#C38155" /><path d="M391.86482 534.225795c6.8608 4.200898 27.508137 17.18322 28.726946 17.942478 10.407337 6.453698 18.054868 10.904351 25.664936 14.805542 14.66318 7.510166 28.512156 12.487805 44.446596 15.639726 5.194927 1.026498 12.070712 1.361171 22.895141 1.308722 4.840273-0.024976 27.096039-0.427083 33.165112-0.484526 10.100137-0.09241 19.281171-0.044956 28.522147 0.194809 23.986576 0.62439 42.825678 19.633327 42.186302 42.965542-0.039961 1.373659-0.142361 2.742322-0.3072 4.10599-3.014556 24.553522-25.17042 42.011473-49.454205 39.029385-1.213815-0.149854-2.425132-0.349659-3.623961-0.599414l-3.076995-0.641873-3.009561-0.629386c-11.119141-2.332722-17.697717-3.841249-24.491083-5.706927-28.234927-7.754927-53.692566-21.1968-96.792975-52.805931a7.492683 7.492683 0 0 0-8.858849 12.085697c44.464078 32.608156 71.487688 46.876722 101.685697 55.171122 7.160507 1.968078 13.986341 3.531551 25.38521 5.921717l3.019551 0.631883 3.076995 0.641873a58.14322 58.14322 0 0 0 4.860254 0.804215c32.528234 3.996098 62.134322-19.336117 66.152898-52.076644 0.22478-1.830712 0.362146-3.673912 0.414595-5.517112 0.874146-31.771473-24.653424-57.526322-56.774556-58.360507a814.3872 814.3872 0 0 0-29.054127-0.199805c-6.171473 0.057444-28.379785 0.464546-33.097678 0.484527-9.857873 0.047454-16.001873-0.252254-19.915551-1.026498-14.513327-2.8672-27.05358-7.375298-40.522927-14.276059-7.17799-3.67641-14.508332-7.942244-24.595981-14.201131-1.148878-0.714302-21.853659-13.729093-28.806868-17.987434a7.49518 7.49518 0 0 0-10.302439 2.47758 7.497678 7.497678 0 0 0 2.482576 10.302439z" fill="#524F75" /><path d="M578.018029 498.49319c11.776-1.101424 22.115902-1.588449 31.034693-1.456078 38.097795 0.564449 68.528078 31.908839 67.961132 70.006634a68.890224 68.890224 0 0 1-1.580956 13.706615L666.986146 619.395122c-2.177873-34.054244-12.320468-51.07762-30.417795-51.07762-2.16039 0-4.585522 0.069932-7.272897 0.214791-5.671961 15.245112-19.520937 26.813815-36.789074 28.761912-1.655883 0.18482-3.321756 0.279727-4.990126 0.279727h-10.979278c-27.365776 0-49.55161-22.183337-49.55161-49.549112 0-0.659356 0.012488-1.31122 0.039961-1.960586a30.360351 30.360351 0 0 1-0.039961-1.580956c0-21.806205 15.559805-40.32562 36.691668-44.324215a49.601561 49.601561 0 0 1 12.857444-1.685853h0.062439c0.474537 0.002498 0.949073 0.007493 1.421112 0.01998z" fill="#C38155" /><path d="M668.110049 579.151922c0.879141-4.01358 1.35118-8.107083 1.411122-12.218068 0.504507-33.964332-26.621502-61.902049-60.583337-62.406556-8.624078-0.127376-18.701737 0.344663-30.225483 1.423609l-0.442068 0.042459-0.444566-0.00999a42.278712 42.278712 0 0 0-12.213073 1.413619l-0.544468 0.124878c-17.700215 3.351727-30.595122 18.86158-30.595122 36.963903 0 0.407102 0.00999 0.811707 0.02997 1.218809l0.014986 0.324683-0.00999 0.327181c-0.024976 0.554459-0.034966 1.111415-0.034966 1.670868 0 23.227317 18.829112 42.056429 42.058926 42.056429h10.979279a37.071298 37.071298 0 0 0 34.761053-24.163902l1.715825-4.605503 4.907707-0.262243c2.812254-0.149854 5.367259-0.22478 7.67001-0.224781 14.261073 0 24.393678 7.764917 30.645073 22.440585l0.899122-4.11598z m-58.947434-89.607493c42.236254 0.626888 75.97081 35.375454 75.343922 77.611708a76.3904 76.3904 0 0 1-1.755786 15.195161l-19.833131 90.768858-3.404176-53.245502c-1.960585-30.615102-9.970263-44.064468-22.942595-44.064469-0.721795 0-1.473561 0.007493-2.260293 0.024976a52.02919 52.02919 0 0 1-46.791805 29.231454h-10.979278c-31.504234 0-57.044293-25.540059-57.044293-57.041795 0-0.646868 0.00999-1.291239 0.032469-1.930615a38.51239 38.51239 0 0 1-0.032469-1.610927c0-25.222868 17.895024-46.836761 42.515981-51.634576a57.094244 57.094244 0 0 1 15.739629-1.858185c11.850927-1.096429 22.315707-1.578459 31.411825-1.446088z" fill="#524F75" /><path d="M629.385366 543.249483c0 0.939083-0.19481 2.317737-0.621893 4.071024-0.981541 4.046049-3.047024 9.590634-6.198946 16.526361a7.492683 7.492683 0 0 0 13.644175 6.201444c7.804878-17.178224 10.354888-27.690459 6.241405-34.461346a7.492683 7.492683 0 0 0-13.074731 7.297873c0.004995 0.09241 0.00999 0.21479 0.00999 0.364644z" fill="#524F75" /></svg>