<?xml version="1.0" encoding="utf-8"?>
<!-- Uploaded to: SVG Repo, www.svgrepo.com, Generator: SVG Repo Mixer Tools -->
<svg width="800px" height="800px" viewBox="0 0 1024 1024" class="icon"  version="1.1" xmlns="http://www.w3.org/2000/svg"><path d="M293 325.7h322.1v302.9c0.9 13.5-2.6 21-10.5 22.5-11.9 2.2-183.6 9-197.4-153.7 0 0-0.7-18.9-2-56.8-35.5-0.3-62.1-9.1-79.8-26.6s-28.5-46.8-32.4-88.3z" fill="#FFC200" /><path d="M370.5 411.9c0-1.1 0-2.3 0.1-4.4 0-1.7 0.1-2.9 0.1-4 0-2.8 0.1-4.9 0.1-6.6v-14.6c0-4.4 3.6-8 8-8s8 3.6 8 8v14.6c0 1.8 0 4-0.1 6.9 0 1.1 0 2.3-0.1 4.1 0 2.2-0.1 3.3-0.1 4.4-0.3 17.3-0.3 32.3 0.2 46.4 0.1 1.1 0.1 1.3 0.1 1.4 0.6 16.8 2 32.2 4.4 48.2 5.8 38.9 17 69.4 34.5 89 15.4 17.2 32.4 30.9 50.8 41.6 23.9 13.9 49.4 22.1 75.6 25.9 18.7 2.6 35.6 2.8 51.1 1.4 2.3-0.2 8.7-0.9 9.5-0.9 10.4 0 18.8-8.4 18.8-18.8V307.9H273c7.7 92.6 40.2 139.4 97.4 143.5-0.2-12.2-0.2-25.1 0.1-39.5z m0.5 55.5c-69.4-3.9-107.6-60.7-114.6-167-0.3-4.6 3.4-8.5 8-8.5h375c4.4 0 8 3.6 8 8v346.5c0 19.2-15.6 34.8-34.8 34.8 0.2 0-0.6 0.1-1.9 0.2-2.3 0.3-4 0.4-6.1 0.6-16.7 1.5-34.8 1.4-54.8-1.5-28.2-4-55.6-12.9-81.4-27.9-19.8-11.5-38.2-26.3-54.7-44.8-20-22.4-32.2-55.6-38.4-97.3-2.2-14.4-3.6-28.3-4.3-43.1z" fill="" /><path d="M457.3 630c4.6 0 8.3 3.7 8.3 8.3v73.5c0 4.6-3.7 8.3-8.3 8.3s-8.3-3.7-8.3-8.3v-73.5c0-4.6 3.7-8.3 8.3-8.3zM509.3 662c4.6 0 8.3 3.7 8.3 8.3v73.5c0 4.6-3.7 8.3-8.3 8.3s-8.3-3.7-8.3-8.3v-73.5c0-4.6 3.7-8.3 8.3-8.3zM563.3 674c4.6 0 8.3 3.7 8.3 8.3V723c0 4.6-3.7 8.3-8.3 8.3s-8.3-3.7-8.3-8.3v-40.7c0-4.6 3.7-8.3 8.3-8.3z" fill="" /><path d="M423.5 271.5v-55.4c0-49.5 37.5-89.6 83.8-89.6s83.7 40.1 83.7 89.6v55.4H423.5z" fill="#FF684C" /><path d="M453.5 298.2v-86.6c0-29.9 24.5-54.1 54.8-54.1s54.8 24.2 54.8 54.1v86.7H453.5z" fill="#FFFFFF" /><path d="M461.5 290.2h93.7v-78.6c0-25.4-20.9-46.1-46.8-46.1s-46.8 20.7-46.8 46.1v78.6z m-16-78.6c0-34.3 28.2-62.1 62.8-62.1s62.8 27.8 62.8 62.1v94.7H445.5v-94.7z" fill="" /><path d="M445.6 217c0-29 28.2-57.3 62.9-57.3s62.9 28.3 62.9 57.3c-30.1-3.3-51.1-8.6-62.9-15.8-17.7 10.8-42.2 15.8-62.9 15.8zM672.7 451.8c-4.3 1-7 5.2-6.1 9.6 1 4.3 5.2 7 9.6 6.1 59.4-13.3 88.7-70.1 88.7-167.6 0-4.4-3.6-8-8-8h-115c-4.4 0-8 3.6-8 8s3.6 8 8 8h107c-1.5 85.8-27.2 133-76.2 143.9zM275.3 350.4v16h-39.2c-17.2 0-31.1-14-31.1-31.2s13.9-31.1 31.1-31.1h24.4v16h-24.4c-8.4 0-15.1 6.8-15.1 15.1s6.8 15.1 15.1 15.1h39.2z" fill="" /><path d="M747.1 350.4v16h39.2c17.2 0 31.1-13.9 31.1-31.1s-13.9-31.1-31.1-31.1h-24.4v16h24.4c8.4 0 15.1 6.8 15.1 15.1s-6.8 15.1-15.1 15.1h-39.2zM408.1 622c4.9 0 8.8 4 8.8 8.8v147.8c0 4.9-4 8.8-8.8 8.8-4.9 0-8.8-4-8.8-8.8V630.8c0-4.8 3.9-8.8 8.8-8.8zM587.9 295.4c4.9 0 8.8 4 8.8 8.8V492c0 4.9-4 8.8-8.8 8.8-4.9 0-8.8-4-8.8-8.8V304.3c0-4.9 3.9-8.9 8.8-8.9zM587.9 515.9c4.9 0 8.8 4 8.8 8.8v8c0 4.9-4 8.8-8.8 8.8-4.9 0-8.8-4-8.8-8.8v-8c0-4.8 3.9-8.8 8.8-8.8zM609.3 694.1c4.9 0 8.8 4 8.8 8.8v71.7c0 4.9-4 8.8-8.8 8.8-4.9 0-8.8-4-8.8-8.8v-71.7c0-4.9 4-8.8 8.8-8.8z" fill="" /><path d="M489.2 793.7c-4.4 0-8-3.6-8-8s3.6-8 8-8h143.5c15 0 27.7 11.1 29.7 26l7 52.3c2.2 16.4-9.3 31.5-25.8 33.7-1.3 0.2-2.6 0.3-4 0.3H379.4c-16.6 0-30-13.4-30-30 0-1.3 0.1-2.7 0.3-4l7-52.3c2-14.9 14.7-26 29.7-26h69.7c4.4 0 8 3.6 8 8s-3.6 8-8 8h-69.7c-7 0-12.9 5.2-13.9 12.1l-7 52.3c-0.1 0.6-0.1 1.2-0.1 1.9 0 7.7 6.3 14 14 14h260.2c0.6 0 1.2 0 1.9-0.1 7.7-1 13-8.1 12-15.7l-7-52.3c-0.9-7-6.9-12.1-13.9-12.1H489.2z" fill="" /><path d="M393.1 806h232.8c3.5 0 6.5 2.6 6.9 6.1l5.2 42c0.5 3.8-2.2 7.3-6.1 7.8-0.3 0-0.6 0.1-0.9 0.1H387c-3.9 0-7-3.1-7-7 0-0.3 0-0.7 0.1-1l6-42c0.5-3.4 3.5-6 7-6z" fill="#C4CDD1" /><path d="M416.2 515.7c-1.1-4.3 1.4-8.6 5.7-9.8 4.3-1.1 8.6 1.4 9.8 5.7 17.6 67.2 61.3 105.2 132.3 115 4.4 0.6 7.4 4.6 6.8 9-0.6 4.4-4.6 7.4-9 6.8-77.4-10.6-126.3-53.2-145.6-126.7z" fill="" /></svg>