<?xml version="1.0" encoding="utf-8"?>
<!-- Uploaded to: SVG Repo, www.svgrepo.com, Generator: SVG Repo Mixer Tools -->
<svg width="800px" height="800px" viewBox="0 0 1024 1024" class="icon"  version="1.1" xmlns="http://www.w3.org/2000/svg"><path d="M541.970732 633.791063c39.396527-10.916839 86.590439-31.177054 141.234575-34.206595s106.653346 34.204098 108.429113 90.499122c0.267239 8.511688 0.022478 17.040859-1.775766 25.372722-5.364761 24.880702-44.096937 99.96238-187.716683 90.4192 31.234498-23.95161 39.121795-74.247493 50.2784-96.370888-14.483356-6.193951-51.297405-18.884059-110.449639-38.065326v-37.648235z" fill="#FD9041" /><path d="M642.657405 721.380527c2.644917-4.79282 11.249015-7.337834 20.195278-6.158986 6.109034 0.806712 2.37518 11.403863 8.689015 13.591727 4.083512 1.416117 12.00078-5.824312 15.911961-3.79879 5.701932 2.954615 4.043551 11.573698 8.868839 15.894478 3.19438 2.864702 17.250654 2.832234 19.838126 6.326322 4.625483 6.248898-6.306341 10.327415-4.428175 18.696742 0.701815 3.121951 16.224156 2.929639 16.443941 6.361287 0.364644 5.699434-1.04398 17.083317-6.418731 22.173347-16.955941 16.05682-57.756098 21.259239-122.402966 15.607258 19.351102-41.889093 33.784507-71.45522 43.302712-88.693385z" fill="#FFF3BD" /><path d="M647.979707 718.93042c2.380176-7.29038 8.239454-13.891434 13.831493-21.089405a7.492683 7.492683 0 1 0-11.833444-9.191025c-6.616039 8.511688-11.411356 17.273132-14.350985 26.274342a7.492683 7.492683 0 0 0 4.797814 9.448273c3.931161 1.281249 6.271376-1.508527 7.555122-5.442185z" fill="#524F75" /><path d="M541.970732 633.791063v37.648235c59.152234 19.181268 95.966283 31.871376 110.449639 38.067824-11.156605 22.123395-19.043902 72.419278-50.2784 96.370888 143.619746 9.54318 182.351922-65.538498 187.716683-90.4192 1.798244-8.331863 2.043005-16.861034 1.775766-25.372722-1.775766-56.295024-53.784976-93.528663-108.429113-90.499122s-101.838049 23.287259-141.234575 34.204097z m-4.622986 51.901815a14.985366 14.985366 0 0 1-10.36238-14.25358v-37.648235a14.987863 14.987863 0 0 1 10.984273-14.443395c6.02162-1.668371 12.487805-3.623961 20.967024-6.316331 3.141932-0.999024 18.526907-5.951688 22.945093-7.350322 40.485463-12.81998 68.725385-19.293659 100.494361-21.054439 65.066459-3.606478 122.248117 41.916566 124.238673 104.987473 0.347161 11.064195-0.19481 20.137834-2.107941 29.006673-4.707902 21.816195-21.126868 47.548566-47.818303 67.057015-36.322029 26.544078-87.826732 39.653776-155.543102 35.15317-13.791532-0.916605-19.093854-18.432-8.124566-26.843785 10.859395-8.326868 19.388566-21.611395 27.163473-40.767688 2.797268-6.900761 9.50322-26.29682 12.642654-35.283044-18.789151-6.938224-50.720468-17.727688-95.479259-32.243512z" fill="#524F75" /><path d="M334.910439 652.78002c-10.991766 0.971551-18.971473 2.834732-23.939122 5.587043s-11.603668 11.830946-19.910556 27.235903l-5.542088-24.401171c-0.834185-2.77479-2.387668-8.893815-3.791297-11.426341-10.841912-19.560898-32.4608-20.679805-51.949269-9.877854l64.004995 112.275356 17.325581-5.292332 59.067317 4.615493a55.643161 55.643161 0 0 0 21.236761-4.490615 55.540761 55.540761 0 0 0 29.586107-30.018185" fill="#FD9041" /><path d="M292.824039 659.545912a2465.692098 2465.692098 0 0 0-1.333698-4.692917 160.568195 160.568195 0 0 0-0.509502-1.708332c-0.936585-3.072-1.748293-5.277346-2.702361-7.000663-12.450341-22.465561-37.848039-26.261854-62.134322-12.8a7.492683 7.492683 0 0 0-2.87719 10.262478l64.004995 112.277854a7.492683 7.492683 0 0 0 8.699005 3.454127l15.966907-4.877737 57.653698 4.5056c0.22478 0.017483 0.452059 0.027473 0.676839 0.022478a63.17081 63.17081 0 0 0 24.091473-5.095024 63.018459 63.018459 0 0 0 33.564722-34.054244 7.492683 7.492683 0 0 0-13.856468-5.70443 48.030595 48.030595 0 0 1-25.607493 25.982127 48.227902 48.227902 0 0 1-18.054868 3.883708l-58.717659-4.58802a7.537639 7.537639 0 0 0-2.772293 0.302205l-11.593678 3.541541L240.290341 643.219356c14.905444-5.731902 27.970185-2.277776 34.880937 10.190049 0.28722 0.516995 0.836683 2.018029 1.476059 4.110985 0.144859 0.469541 0.292215 0.971551 0.452058 1.518517 0.147356 0.50201 0.869151 3.054517 1.163864 4.056039l5.489639 24.168898c1.533502 6.74841 10.617132 7.9872 13.901424 1.895649 7.620059-14.1312 13.686634-22.430595 16.948449-24.23883 3.861229-2.14041 10.926829-3.791298 20.967024-4.677931a7.492683 7.492683 0 0 0-1.316215-14.927922c-11.945834 1.056468-20.839649 3.131941-26.913717 6.498653-4.081015 2.26279-8.359337 6.825834-13.124683 13.843981l-1.391141-6.111532z" fill="#524F75" /><path d="M352.33842 493.907668l22.972565 16.498888-33.429853 52.224 46.569522 44.179356L358.424976 647.118049l-50.338342-71.235434a27.478166 27.478166 0 0 1 1.860683-34.059239l42.391103-47.915708z" fill="#FD9041" /><path d="M353.46482 503.940371L315.559337 546.791024a19.980488 19.980488 0 0 0-1.353678 24.768313l44.376663 62.803668 19.883083-26.691434-41.741737-39.603825a7.497678 7.497678 0 0 1-1.153873-9.475746l29.601093-46.242341-11.706068-8.409288z m-1.93561 57.518829l42.078907 39.91602a7.492683 7.492683 0 0 1 0.851668 9.912819l-30.025678 40.305639c-3.042029 4.08601-9.188527 4.006088-12.128156-0.152351L301.96761 580.20839a34.965854 34.965854 0 0 1 2.367688-43.347668l42.391102-47.918205a7.492683 7.492683 0 0 1 9.982751-1.121405l22.972566 16.498888a7.492683 7.492683 0 0 1 1.938107 10.125112l-30.090614 47.014088z" fill="#524F75" /><path d="M350.947278 562.176l-13.664156-14.22361a7.492683 7.492683 0 1 0-10.806946 10.382361l13.664156 14.22361a7.492683 7.492683 0 0 0 10.806946-10.382361z" fill="#524F75" /><path d="M585.885346 458.859395c21.948566-18.192234 34.588722-46.78681 31.154576-77.272039l-0.39961-3.544039C610.171629 320.621893 561.718946 277.229268 504.075239 277.229268h-66.834732c-57.928429 0-106.808195 43.200312-114.066107 100.811552l-0.302205 2.402653A87.826732 87.826732 0 0 0 322.185366 391.400273c0 31.349385 16.456429 58.847532 41.179785 74.284956a87.452098 87.452098 0 0 0-7.934751 31.172059c-2.929639 44.836215-5.254868 74.150088-6.970693 87.941619-1.193834 9.585639-5.956683 23.329717-14.293541 41.227239-20.380098 43.764761-1.508527 95.808937 42.151336 116.238986 2.619941 1.223805 4.52558 2.307746 7.255415 3.269307 40.138302 14.108722 51.145054 18.819122 86.320703 18.714224 35.173151-0.104898 60.376039-4.59801 99.36796-18.714224 45.318244-16.408976 68.782829-66.537522 52.413815-111.963161a85.981034 85.981034 0 0 0-2.310244-5.759376c-8.199493-18.531902-12.897405-32.867902-14.083746-43.012995-1.683356-14.363473-4.353249-44.1344-8.019668-89.31278a87.249795 87.249795 0 0 0-11.376391-36.626732z" fill="#FD9041" /><path d="M604.731941 494.884215c3.658927 45.088468 6.326322 74.801951 7.992196 89.045541 1.081444 9.240976 5.567063 22.94759 13.494322 40.84761 0.906615 2.052995 1.743298 4.138459 2.505053 6.253893 17.767649 49.311844-7.704976 103.728702-56.911922 121.546302-39.206712 14.198634-65.283746 19.05639-101.89799 19.163785-16.451434 0.049951-27.950205-0.936585-39.50642-3.421658-11.393873-2.44761-14.390946-3.439141-49.319336-15.717151a44.606439 44.606439 0 0 1-4.665444-1.963083c-0.192312-0.089912-2.56-1.251278-3.279298-1.588449-47.403707-22.183337-67.8912-78.675668-45.767804-126.184273 8.034654-17.253151 12.57522-30.350361 13.64917-38.989425 1.693346-13.596722 4.008585-42.82318 6.928234-87.507044a95.094634 95.094634 0 0 1 6.106537-27.915239A94.907317 94.907317 0 0 1 314.692683 391.400273c0-3.976117 0.249756-7.949737 0.746771-11.893385l0.302205-2.402654C323.47161 315.751649 375.533268 269.736585 437.240507 269.736585h66.834732c61.45998 0 113.114537 46.259824 120.0128 107.465054l0.397112 3.544039a94.94478 94.94478 0 0 1-29.206478 79.802068 94.94478 94.94478 0 0 1 9.453268 34.336469z m-23.629424-41.791688a79.971902 79.971902 0 0 0 28.492176-70.66599l-0.39961-3.544039c-6.044098-53.632624-51.29241-94.158049-105.119844-94.158049h-66.834732C383.093385 284.721951 337.395512 325.11001 330.609639 378.977405l-0.304702 2.402654A80.491395 80.491395 0 0 0 329.678049 391.400273a79.936937 79.936937 0 0 0 37.655727 67.928664l5.617014 3.506575-2.787278 6.004137a79.929444 79.929444 0 0 0-7.255414 28.507161c-2.939629 44.986068-5.269854 74.389854-7.013152 88.38119-1.31122 10.529717-6.298849 24.915668-14.935414 43.465054-18.6368 40.01842-1.381151 87.609444 38.534868 106.286205 0.861659 0.402107 3.324254 1.608429 3.409171 1.650887 1.236293 0.589424 2.142907 0.981541 3.154419 1.336195 34.056741 11.97081 37.026341 12.952351 47.498615 15.202654 10.402341 2.237815 20.862127 3.134439 36.314536 3.086985 34.840976-0.1024 59.214673-4.642966 96.84043-18.26716 41.427044-15.000351 62.886088-60.83559 47.918205-102.377522a79.240117 79.240117 0 0 0-2.112937-5.264859c-8.481717-19.15879-13.381932-34.126673-14.675668-45.173385-1.693346-14.480859-4.370732-44.306732-8.044644-89.577522a79.762107 79.762107 0 0 0-10.399844-33.494791l-3.159415-5.477151 4.865249-4.031063z" fill="#524F75" /><path d="M437.517737 348.75442c7.744937-15.989385 15.325034-29.750946 22.74279-41.282186S476.599571 288.355902 487.02439 284.721951H437.517737c-6.720937 8.469229-10.354888 17.115785-10.906849 25.939669s3.08199 21.518985 10.906849 38.0928z" fill="#FFF3BD" /><path d="M406.353171 424.585366h96.001249c16.548839 0 29.963239 13.411902 29.970731 29.960741 0.024976 67.059512-6.750907 110.769327-20.325151 131.126947-14.276059 21.409093-44.536507 55.118673-90.781346 101.128741a9.990244 9.990244 0 0 1-16.706186-4.535571c-12.884917-48.814829-21.58642-87.342205-26.109502-115.582126-4.250849-26.534088-4.90521-64.504507-1.968078-113.908761C377.376468 436.943298 390.493659 424.585366 406.353171 424.585366z" fill="#FFF3BD" /><path d="M465.557854 721.025873c-3.439141 12.495298-5.159961 21.59641-5.159961 27.310829 0 5.709424 3.623961 16.950946 10.871883 33.729561l-19.987981-4.995122a40.440507 40.440507 0 0 0-8.631571-0.93159C420.25959 776.139551 402.107317 794.299317 402.107317 816.702439h151.169873l-4.942673-22.165854 26.926205-46.199883a56.165151 56.165151 0 0 0 6.376273-20.864624A56.00281 56.00281 0 0 0 569.716137 686.829268" fill="#FD9041" /><path d="M453.097522 769.800741a48.497639 48.497639 0 0 0-10.447298-1.153873C416.118634 768.646868 394.614634 790.163356 394.614634 816.702439a7.492683 7.492683 0 0 0 7.492683 7.492683h151.169873a7.492683 7.492683 0 0 0 7.315356-9.12359l-4.305795-19.298654 25.450147-43.664858a63.875122 63.875122 0 0 0 7.352819-23.879181 63.448039 63.448039 0 0 0-13.514302-46.065015 7.492683 7.492683 0 0 0-11.726049 9.333386 48.500137 48.500137 0 0 1 10.33241 35.223102 48.635005 48.635005 0 0 1-5.464664 17.964956l-26.858771 46.08a7.48519 7.48519 0 0 0-0.83918 5.404722l2.907161 13.042264H410.451668c3.391688-14.655688 16.521366-25.577522 32.198556-25.577522 2.36519 0 4.722888 0.257249 7.033132 0.759258l19.768195 4.942673c6.02162 1.506029 11.156605-4.543063 8.69401-10.242497-6.830829-15.814556-10.254985-26.43918-10.254985-30.754966 0-4.867746 1.615922-13.426888 4.892722-25.322771a7.492683 7.492683 0 0 0-14.448391-3.973619c-3.606478 13.094712-5.429698 22.745288-5.429697 29.29639 0 5.067551 1.9456 12.555239 5.844292 22.875161l-5.65198-1.41362z" fill="#524F75" /><path d="M472.039024 699.317073m-9.990244 0a9.990244 9.990244 0 1 0 19.980488 0 9.990244 9.990244 0 1 0-19.980488 0Z" fill="#524F75" /><path d="M338.009912 350.8224c-8.923785-25.537561-11.096663-58.815063-12.138146-73.253463-0.969054-13.409405 7.947239-45.443122 12.17561-71.415259 0.601912-3.693893 2.517541-12.740059 6.151492-13.646673 3.598985-0.896624 10.115122 7.340332 12.260527 10.36238 12.425366 17.525385 21.266732 33.554732 26.229385 41.531942 5.424702 8.721483 11.810966 15.809561 25.360235 40.512936" fill="#FD9041" /><path d="M350.347863 207.205151c5.374751 7.582595 10.364878 15.27758 15.627239 23.909151 2.14041 3.514068 9.053659 15.160195 10.354888 17.245659 0.379629 0.611902 0.774244 1.2288 1.183844 1.860683 1.298732 1.995551 7.412761 10.829424 9.365854 13.791532 4.493112 6.813346 9.083629 14.443395 14.600741 24.506068a7.492683 7.492683 0 0 0 13.139669-7.205464c-5.711922-10.412332-10.509737-18.392039-15.230127-25.547551-2.087961-3.169405-8.167024-11.945834-9.313405-13.709112a95.891356 95.891356 0 0 1-1.024-1.610927c-1.198829-1.92562-8.064624-13.489327-10.282459-17.125775-5.4272-8.9088-10.599649-16.883512-16.19918-24.7808a60.84558 60.84558 0 0 0-6.423727-7.642537c-4.595512-4.553054-8.576624-6.950712-13.761561-5.659473-4.940176 1.231298-7.487688 4.990127-9.460761 10.53721-1.024 2.879688-1.778263 6.126517-2.275278 9.176039-0.869151 5.33479-1.975571 11.18158-3.47161 18.481951a1297.932488 1297.932488 0 0 1-1.131395 5.457171c-7.240429 34.616195-8.28441 40.480468-7.652527 49.219434 0.666849 9.228488 0.83918 11.48878 1.351181 16.91598 1.288741 13.694127 3.05202 26.251863 5.592039 37.98041 1.590946 7.347824 3.444137 14.128702 5.597034 20.290185a7.492683 7.492683 0 1 0 14.146185-4.94517c-1.93561-5.537093-3.628956-11.736039-5.097522-18.516917-2.395161-11.064195-4.081015-23.062478-5.317307-36.212137-0.497015-5.279844-0.666849-7.480195-1.323707-16.593795-0.474537-6.556098 0.709307-13.204605 7.375297-45.070986 0.422088-2.025522 0.794224-3.811278 1.143883-5.517112 1.533502-7.482693 2.674888-13.514302 3.581503-19.081366a44.281756 44.281756 0 0 1 1.068956-4.875239c1.373659 1.478556 2.779785 3.234341 3.836253 4.722888z" fill="#524F75" /><path d="M340.117854 207.497366c24.80078 44.551493 38.035356 74.242498 39.533892 88.026536a6.243902 6.243902 0 1 0 12.415376-1.35118c-1.75079-16.079298-15.374985-46.646946-41.037424-92.746927a6.241405 6.241405 0 0 0-8.491708-2.417639 6.23641 6.23641 0 0 0-2.420136 8.48921z" fill="#524F75" /><path d="M590.965385 336.09678c8.956254-25.575024 10.33241-48.652488 11.361405-63.11836 0.956566-13.43438-1.096429-40.732722-5.399727-66.7648-0.609405-3.701385-2.555005-12.770029-6.221424-13.684137-3.628956-0.904117-10.185054 7.340332-12.337951 10.364878-12.497795 17.540371-21.384117 33.589698-26.376742 41.576898-5.454673 8.731473-11.8784 15.822049-25.4976 40.555395" fill="#FD9041" /><path d="M587.189073 207.971902c-5.794341 7.295376-11.211551 14.72562-16.945951 23.079961-2.332722 3.39918-9.882849 14.678166-11.296468 16.696196-0.414595 0.591922-0.83918 1.188839-1.288742 1.798243-1.403629 1.92562-8.009678 10.43481-10.12761 13.294518-4.870244 6.57358-9.877854 13.961366-15.941931 23.726829a7.492683 7.492683 0 0 1-12.732566-7.904781c6.278868-10.110127 11.513756-17.835083 16.628761-24.740839 2.26279-3.057015 8.82638-11.511259 10.070166-13.214595 0.387122-0.53198 0.759259-1.046478 1.113912-1.55598 1.301229-1.86318 8.798907-13.062244 11.216546-16.583805 5.914224-8.619083 11.528741-16.321561 17.565347-23.919142a60.490927 60.490927 0 0 1 6.855804-7.30037c4.840273-4.29081 8.961249-6.47118 14.068761-4.910205 4.867746 1.488546 7.232937 5.377249 8.931278 11.016741 0.884137 2.937132 1.478556 6.228917 1.820722 9.305912 2.922146 26.107005 3.67641 54.296976 1.888157 68.7104l-0.282225 2.282771-0.302205 2.432624c-0.239766 1.920624-0.459551 3.60398-0.686829 5.279844-2.717346 19.955512-6.668488 36.78158-13.878946 54.366908a7.492683 7.492683 0 1 1-13.863961-5.686947c6.653502-16.234146 10.33241-31.901346 12.892409-50.705483a632.349971 632.349971 0 0 0 1.251278-9.815414c1.615922-13.049756 0.894127-40.16078-1.908136-65.201327a43.607415 43.607415 0 0 0-0.859161-5.062556 49.738927 49.738927 0 0 0-4.18841 4.610497z" fill="#524F75" /><path d="M594.879063 207.549815c-25.00558 44.623922-38.347551 74.36238-39.861073 88.163902a6.243902 6.243902 0 1 1-12.412878-1.358673c1.763278-16.109268 15.502361-46.729366 41.37959-92.909268a6.238907 6.238907 0 0 1 8.496703-2.392664 6.23641 6.23641 0 0 1 2.397658 8.496703z" fill="#524F75" /><path d="M364.643902 360.897561a31.219512 29.970732 90 1 0 59.941464 0 31.219512 29.970732 90 1 0-59.941464 0Z" fill="#FFFFFF" /><path d="M394.614634 399.609756C373.854907 399.609756 357.15122 382.211746 357.15122 360.897561S373.854907 322.185366 394.614634 322.185366s37.463415 17.39801 37.463415 38.712195S415.374361 399.609756 394.614634 399.609756z m0-14.985366c12.342946 0 22.478049-10.55719 22.478049-23.726829S406.95758 337.170732 394.614634 337.170732s-22.478049 10.55719-22.478049 23.726829S382.271688 384.62439 394.614634 384.62439z" fill="#524F75" /><path d="M399.095259 369.381776a9.593132 9.593132 0 0 0 7.292878 3.356722c5.319805 0 9.633093-4.338263 9.633092-9.688039 0-5.352273-4.313288-9.688039-9.633092-9.688039-5.254868 0-9.528195 4.230868-9.633093 9.490731l7.143024 1.043981-4.802809 5.484644z" fill="#232323" /><path d="M489.521951 359.64878m-39.960975 0a39.960976 39.960976 0 1 0 79.921951 0 39.960976 39.960976 0 1 0-79.921951 0Z" fill="#FFFFFF" /><path d="M489.521951 407.102439C463.312546 407.102439 442.068293 385.855688 442.068293 359.64878S463.312546 312.195122 489.521951 312.195122s47.453659 21.246751 47.453659 47.453658-21.244254 47.453659-47.453659 47.453659z m0-14.985366c17.932488 0 32.468293-14.535805 32.468293-32.468293S507.454439 327.180488 489.521951 327.180488 457.053659 341.716293 457.053659 359.64878s14.535805 32.468293 32.468292 32.468293z" fill="#524F75" /><path d="M497.549112 375.303493A12.487805 12.487805 0 0 0 519.492683 367.141463a12.490302 12.490302 0 0 0-24.97561-0.254751l9.258459 1.346186-6.22642 7.070595z" fill="#232323" /><path d="M486.99442 446.266693c-17.22318 11.691083-31.087141 20.792195-41.279688 25.205385-14.86798 6.44121-33.220059 12.79001-59.274615 12.79001-2.839727 1.231298-13.104702 1.885659-15.579785 0.044956-3.848741-2.864702-17.802615-16.121756-13.224586-18.082342 13.29202-5.686946 36.027317-22.193327 44.069464-37.463414 3.441639-6.538615 6.566088-17.8176 15.644722-44.72882" fill="#FD9041" /><path d="M366.804293 470.125893c16.031844-8.566634 34.376429-24.298771 41.511961-37.850537 2.340215-4.443161 3.851239-8.664039 9.056156-24.533541a2271.868878 2271.868878 0 0 1 7.058107-21.291708 7.490185 7.490185 0 1 0-14.198634-4.787824c-2.367688 7.018146-3.821268 11.416351-7.098068 21.41159-4.847766 14.785561-6.313834 18.871571-8.077113 22.218303-6.293854 11.953327-26.10201 27.9552-40.383063 34.066731-6.064078 2.594966-6.568585 8.299395-4.258341 13.287025 1.036488 2.237815 2.727337 4.595512 4.995122 7.210458 3.344234 3.856234 8.167024 8.401795 10.959297 10.482264 4.328273 3.221854 15.210146 3.236839 21.314185 1.431102 22.880156-0.157346 40.730224-4.62798 60.992937-13.401912 9.535688-4.130966 20.672312-11.0592 42.510985-25.882224a7.492683 7.492683 0 1 0-8.41678-12.397893c-20.98201 14.24359-31.714029 20.919571-40.04839 24.531044-18.889054 8.18201-35.078244 12.173112-56.297522 12.173112h-1.553483l-1.42361 0.616897c0.039961-0.017483-0.554459 0.12238-1.396137 0.247259-1.121405 0.164839-2.455102 0.277229-3.756331 0.312195a22.900137 22.900137 0 0 1-3.391688-0.124878c-2.275278-1.690849-5.716917-4.982634-8.09959-7.717463z" fill="#524F75" /><path d="M367.166439 463.36l10.959298 10.959298a12.367922 12.367922 0 0 1-2.048 19.143804 19.006439 19.006439 0 0 1-23.731825-2.540019l-1.148878-1.148878a19.695766 19.695766 0 0 1-2.927141-24.118946 12.095688 12.095688 0 0 1 18.896546-2.295259z" fill="#966745" /><path d="M362.438556 468.659824a4.603005 4.603005 0 0 0-7.225444 0.49202 12.210576 12.210576 0 0 0 1.028995 15.020332l1.088937 1.206322a11.513756 11.513756 0 0 0 14.276058 2.290263 4.877737 4.877737 0 0 0 1.201327-7.495181l-10.369873-11.513756z m11.136624-10.027707l10.369874 11.516254a19.863102 19.863102 0 0 1-4.892722 30.52519 26.50162 26.50162 0 0 1-32.857912-5.267356l-1.088937-1.20882a27.188449 27.188449 0 0 1-2.290263-33.459824 19.585873 19.585873 0 0 1 30.75996-2.105444z" fill="#524F75" /><path d="M387.903688 476.921756c23.464585-1.078946 38.065327-4.363239 55.578224-12.597697 11.6736-5.492137 24.523551-13.247063 38.547356-23.262283l-19.16878-16.556332c-33.424859 27.585561-59.124761 43.357659-77.102205 47.31879 0.964059 2.010537 1.83321 2.85721 2.145405 5.097522z" fill="#FFF3BD" /><path d="M573.365073 483.989854l60.770654 31.551687c1.24878 0.646868 2.445112 1.381151 3.591493 2.195357 13.476839 9.608117 16.613776 28.322341 7.005658 41.79918l-42.523473 59.656742c4.123473 5.13998 0.449561 23.679376-3.746342 27.018614-5.157463 4.100995-72.813893 0.999024-73.975258 0-8.316878-7.172995-11.915863-25.430166 3.446634-30.612605l45.430634-2.567492 25.415181-41.03243a9.985249 9.985249 0 0 0-4.243356-14.301034l-30.272937-14.22361" fill="#FD9041" /><path d="M593.882537 639.852644c-0.29721 0.049951-0.629385 0.097405-0.999025 0.147356-2.005541 0.262244-4.810302 0.464546-8.276917 0.59442-6.43122 0.247259-14.927922 0.249756-24.46361 0.03996a740.029815 740.029815 0 0 1-23.914146-0.904117 270.980371 270.980371 0 0 1-7.784898-0.524487c-2.277776-2.415141-3.606478-5.909229-3.616468-9.068644-0.012488-3.419161 1.358673-5.746888 4.655454-7.123044l44.306732-2.502556a7.492683 7.492683 0 0 0 5.946692-3.536547l25.415181-41.032429a17.477932 17.477932 0 0 0-7.427747-25.030556l-30.272936-14.221112a7.487688 7.487688 0 0 0-9.965269 3.59399 7.487688 7.487688 0 0 0 3.593991 9.965268l30.272936 14.22361c1.24878 0.584429 1.785756 2.072976 1.196332 3.321756-0.027473 0.057444-7.859824 12.715083-23.499551 37.97042l-41.536937 2.350205c-0.674341 0.039961-1.336195 0.164839-1.973073 0.379629-19.98798 6.743415-19.913054 31.341893-5.944195 43.387629 2.420137 2.090459 1.503532 2.010537 15.797073 2.807259 7.163005 0.39961 15.991883 0.739278 24.418654 0.9216 25.709893 0.566946 38.782127 0.064937 43.3152-3.536547 6.296351-5.010107 9.980254-21.499005 7.517658-31.808936l40.190752-56.379942c12.010771-16.848546 8.087102-40.2432-8.761444-52.251473a37.376 37.376 0 0 0-4.483122-2.744819l-60.770654-31.549191a7.492683 7.492683 0 0 0-6.908254 13.299513l60.775649 31.54919a22.475551 22.475551 0 0 1 7.944742 33.000273l-42.523474 59.654244a7.492683 7.492683 0 0 0 0.259747 9.038673c-0.044956 0.29721 0.057444 0.94158 0.11239 1.735805 0.12238 1.815727-0.024976 4.130966-0.417093 6.5536-0.387122 2.372683-0.984039 4.675434-1.665873 6.468683a16.259122 16.259122 0 0 1-0.514497 1.211317z" fill="#524F75" /><path d="M522.906849 636.878049h14.620722a4.995122 4.995122 0 0 0 0-9.990244h-14.620722a4.995122 4.995122 0 0 0 0 9.990244zM606.854868 573.190244l9.590634-19.24121a7.492683 7.492683 0 0 0-13.411902-6.683473l-9.588137 19.24121a7.490185 7.490185 0 1 0 13.409405 6.683473z" fill="#524F75" /></svg>