<!-- <svg xmlns="http://www.w3.org/2000/svg" width="583.04004" height="431.02025" viewBox="0 0 583.04004 431.02025" xmlns:xlink="http://www.w3.org/1999/xlink"><g><path d="M291.52026,308.9511c-64.43262,0-125.03809-9.5918-170.65234-27.00781-46.22217-17.64844-71.67773-41.35547-71.67773-66.75488s25.45557-49.10547,71.67773-66.75391c45.61426-17.41602,106.21973-27.00781,170.65234-27.00781s125.0376,9.5918,170.65234,27.00781c46.22168,17.64844,71.67725,41.35547,71.67725,66.75391s-25.45557,49.10645-71.67725,66.75488c-45.61475,17.41602-106.21973,27.00781-170.65234,27.00781Zm0-183.52441c-63.95703,0-124.05566,9.49805-169.22559,26.74463-44.56299,17.01514-69.10449,39.39502-69.10449,63.01709s24.5415,46.00293,69.10449,63.01758c45.16992,17.24707,105.26855,26.74512,169.22559,26.74512s124.05566-9.49805,169.2251-26.74512c44.56299-17.01465,69.10449-39.39453,69.10449-63.01758s-24.5415-46.00195-69.10449-63.01709c-45.16992-17.24658-105.26855-26.74463-169.2251-26.74463Z" fill="#61dafb"/><path d="M391.64233,430.37786c-20.02393,0-44.98486-11.57324-72.60693-34.02246-37.89062-30.79492-76.5-78.48535-108.71582-134.28516-32.21631-55.7998-54.2124-113.08203-61.93652-161.29346-7.82715-48.854-.02393-82.75244,21.97217-95.45166,21.99609-12.69873,55.25537-2.50732,93.64941,28.69727,37.89062,30.79541,76.5,78.48535,108.71582,134.28516,32.21631,55.7998,54.2124,113.08203,61.93652,161.29395,7.82715,48.85352,.02393,82.75195-21.97217,95.45215-6.17139,3.5625-13.23291,5.32422-21.04248,5.32422ZM191.50464,3.96917c-7.13916,0-13.56201,1.59375-19.14941,4.81982-20.45801,11.81152-27.56885,44.25488-20.02246,91.35498,7.64893,47.7417,29.47266,104.5376,61.45068,159.92627,31.97852,55.3877,70.25342,102.68555,107.77441,133.18066,37.01709,30.08594,68.67041,40.15137,89.12695,28.33789,20.45801-11.81152,27.56885-44.25488,20.02246-91.35449-7.64893-47.74219-29.47266-104.53809-61.45068-159.92676-31.97852-55.3877-70.25342-102.68555-107.7749-133.18066C234.57593,15.25872,210.50366,3.96917,191.50464,3.96917Z" fill="#61dafb"/><path d="M191.39722,430.37786c-7.81152,0-14.86914-1.76074-21.04199-5.32422-21.99609-12.7002-29.79932-46.59863-21.97217-95.45215,7.72412-48.21191,29.72021-105.49414,61.93652-161.29395,32.21582-55.7998,70.8252-103.48975,108.71582-134.28516C357.42993,2.81731,390.6897-7.37507,412.68481,5.32512c21.99609,12.69922,29.79932,46.59766,21.97217,95.45166-7.72412,48.21143-29.72021,105.49365-61.93652,161.29346-32.21582,55.7998-70.8252,103.49023-108.71582,134.28516-27.61963,22.44824-52.58398,34.02246-72.60742,34.02246ZM391.5354,3.96917c-18.99951,0-43.06885,11.28809-69.97754,33.15771-37.521,30.49512-75.7959,77.79297-107.77441,133.18066-31.97803,55.38867-53.80176,112.18457-61.45068,159.92676-7.54639,47.09961-.43555,79.54297,20.02246,91.35449,5.58643,3.22559,12.01221,4.81934,19.14941,4.82031,18.99951,.00195,43.06885-11.28809,69.97705-33.1582,37.52148-30.49512,75.79639-77.79297,107.7749-133.18066,31.97803-55.38867,53.80176-112.18457,61.45068-159.92627,7.54639-47.1001,.43555-79.54346-20.02246-91.35498-5.58643-3.2251-12.01221-4.81982-19.14941-4.81982Z" fill="#61dafb"/><circle cx="291.52004" cy="215.18889" r="44.78878" fill="#61dafb"/></g><g><path d="M564.784,338.78603c-.84428-1.42364-4.4968,.10067-5.16831-1.19134-.66912-1.28736,2.72451-3.24887,4.66333-7.72979,.34964-.80809,2.55299-5.90033,.92185-7.47163-3.09172-2.97835-17.23961,9.31259-22.19076,5.29042-1.08658-.88268-1.84568-2.64485-5.1343-5.50582-1.30828-1.13814-2.09937-1.65203-2.86498-1.46084-1.08634,.27126-1.17245,1.72523-2.33734,4.58397-1.74699,4.28728-2.7803,4.02841-3.79817,7.44896-.75561,2.53926-.58301,4.01552-1.47217,4.30314-1.25824,.40702-2.4164-2.28633-4.01098-2.04517-1.6272,.24612-2.61095,3.38204-2.92167,5.72997-.5831,4.40607,1.03497,7.31348,1.9318,10.37063,.97462,3.32235,1.55303,8.37495-.69771,15.5276l-22.27719,62.76614c4.91811-12.87943,19.15839-48.18537,25.14217-61.3053,1.72739-3.78744,3.6347-7.62908,7.55099-9.14527,3.77045-1.45978,8.94865-.58824,15.55027-2.17862,.77101-.18571,2.91052-.73007,3.17983-1.98848,.22264-1.04038-1.03585-1.62109-.84249-2.59549,.25936-1.30702,2.73415-1.32305,5.77532-2.83097,2.14444-1.06331,3.48044-2.32786,4.62932-3.41531,.34638-.32785,5.4951-5.26165,4.37117-7.15679Z" fill="#f2f2f2"/><path d="M477.13888,371.82876c-.94234,.00361-1.24806,2.23611-2.07594,2.1929-.82491-.04303-.80846-2.27461-2.44831-4.51909-.29573-.40476-2.1593-2.95546-3.40114-2.60826-2.35386,.65809-.4035,11.14829-3.80617,12.41783-.74674,.27862-1.83065,.14275-4.1837,.93134-.93609,.31372-1.41656,.55372-1.54363,.98466-.18031,.61145,.50846,1.07323,1.57545,2.4698,1.60017,2.09445,1.17496,2.52692,2.5601,4.01343,1.02827,1.10352,1.80263,1.44475,1.68724,1.96415-.16327,.73499-1.81935,.5263-2.16108,1.37852-.3487,.86966,.90659,2.2573,1.96931,3.08725,1.99428,1.55748,3.88813,1.6022,5.64736,2.04412,1.91184,.48026,4.55858,1.6542,7.41974,4.82265l24.37836,29.04383c-4.90228-6.12997-18.1219-23.30609-22.83473-30.02849-1.36049-1.94061-2.69568-3.98517-2.30986-6.34478,.37143-2.27175,2.29326-4.56178,3.41747-8.26078,.13131-.432,.48146-1.63915-.05848-2.13442-.44639-.40946-1.09452,.04067-1.51697-.33538-.56666-.50442,.13953-1.72368,.2769-3.65139,.09686-1.35931-.13831-2.37988-.34055-3.25753-.06097-.2646-.99694-4.21519-2.25138-4.21036Z" fill="#f2f2f2"/><path d="M495.93851,376.04886l-.56775-5.06817,.2594-.38421c1.20036-1.77667,1.81216-3.51174,1.8195-5.15871,.00122-.26185-.01101-.5237-.02325-.79045-.04894-1.05719-.11012-2.37134,.57509-3.9033,.38421-.85408,1.46343-2.83142,3.08593-2.5867,.43683,.06118,.7672,.26185,1.01804,.49678,.03671-.05873,.07464-.11747,.11502-.18109,.50535-.77087,.90547-1.10124,1.2909-1.41938,.29611-.24472,.60201-.49678,1.08167-1.0939,.21046-.26185,.37442-.49189,.51269-.68522,.4197-.58488,.96787-1.28234,1.93452-1.2701,1.03272,.04894,1.57355,.90302,1.93207,1.46832,.63994,1.00825,.92994,1.73507,1.12204,2.21717,.06975,.1762,.14928,.37442,.18966,.4356,.33282,.48944,3.03821,.03181,4.05747-.1346,2.28936-.38176,4.27038-.71214,5.08652,.73171,.58488,1.03272,.1505,2.39826-1.33006,4.16759-.4613,.55062-.95196,.96909-1.38757,1.29702,.36096,.21535,.68399,.54573,.81492,1.06454h0c.30835,1.2285-.74762,2.45944-3.13732,3.66347-.59345,.30101-1.39246,.70235-2.51206,.89568-.52737,.09055-1.00213,.11257-1.40837,.12481-.00857,.23493-.06363,.48944-.20679,.75129-.4197,.77087-1.29335,1.13795-2.60995,1.04985-1.44875-.07586-2.64176-.3524-3.69406-.59467-.91893-.21046-1.7106-.38911-2.33219-.3475-1.15263,.09299-2.04097,1.01559-3.08348,2.21228l-2.6026,3.04188Z" fill="#f2f2f2"/><path d="M498.5722,345.87291l-4.75841,1.83473-.43744-.15347c-2.02304-.71045-3.85655-.86214-5.45152-.45149-.2536,.06524-.50378,.14349-.7587,.22299-1.0102,.3155-2.26586,.70801-3.92151,.43379-.9236-.15501-3.11002-.69738-3.28485-2.32889-.05162-.43806,.05869-.80853,.22231-1.11075-.06612-.02061-.13256-.0424-.20435-.06532-.87384-.29329-1.2949-.59652-1.7004-.88866-.31183-.22435-.63324-.45632-1.33249-.76882-.30667-.13716-.57077-.23741-.79285-.32212-.67221-.25761-1.4859-.61095-1.71925-1.54909-.21461-1.01136,.47435-1.75114,.93023-2.24132,.81295-.87476,1.44245-1.33963,1.86005-1.64773,.15275-.11216,.32431-.23937,.37325-.29395,.38901-.44608-.73987-2.94692-1.15937-3.89063-.94998-2.11766-1.77203-3.95008-.58241-5.10577,.85059-.8277,2.28166-.7539,4.36867,.22945,.64962,.30655,1.17887,.67502,1.60656,1.0132,.11675-.40378,.35438-.80005,.82302-1.05829h0c1.11011-.60987,2.56864,.09933,4.33944,2.10548,.44169,.49769,1.03258,1.16877,1.50357,2.20271,.22135,.48716,.36308,.9408,.47796,1.33065,.22942-.05131,.48957-.0626,.77917,.00946,.85212,.21044,1.42879,.96241,1.67753,2.2583,.29409,1.42061,.32921,2.64475,.36178,3.72409,.02951,.94226,.05751,1.75335,.25542,2.34406,.38232,1.09135,1.50007,1.71662,2.92205,2.42149l3.60255,1.74592Z" fill="#f2f2f2"/><path d="M495.93851,330.94194l-.56775-5.06817,.2594-.38421c1.20036-1.77667,1.81216-3.51174,1.8195-5.15871,.00122-.26185-.01101-.5237-.02325-.79045-.04894-1.05719-.11012-2.37134,.57509-3.9033,.38421-.85408,1.46343-2.83142,3.08593-2.5867,.43683,.06118,.7672,.26185,1.01804,.49678,.03671-.05873,.07464-.11747,.11502-.18109,.50535-.77087,.90547-1.10124,1.2909-1.41938,.29611-.24472,.60201-.49678,1.08167-1.0939,.21046-.26185,.37442-.49189,.51269-.68522,.4197-.58488,.96787-1.28234,1.93452-1.2701,1.03272,.04894,1.57355,.90302,1.93207,1.46832,.63994,1.00825,.92994,1.73507,1.12204,2.21717,.06975,.1762,.14928,.37442,.18966,.4356,.33282,.48944,3.03821,.03181,4.05747-.1346,2.28936-.38176,4.27038-.71214,5.08652,.73171,.58488,1.03272,.1505,2.39826-1.33006,4.16759-.4613,.55062-.95196,.96909-1.38757,1.29702,.36096,.21535,.68399,.54573,.81492,1.06454h0c.30835,1.2285-.74762,2.45944-3.13732,3.66347-.59345,.30101-1.39246,.70235-2.51206,.89568-.52737,.09055-1.00213,.11257-1.40837,.12481-.00857,.23493-.06363,.48944-.20679,.75129-.4197,.77087-1.29335,1.13795-2.60995,1.04985-1.44875-.07586-2.64176-.3524-3.69406-.59467-.91893-.21046-1.7106-.38911-2.33219-.3475-1.15263,.09299-2.04097,1.01559-3.08348,2.21228l-2.6026,3.04188Z" fill="#f2f2f2"/><path d="M501.12414,429.31966l-1.06209-.66564-.25696-1.22605,.25696,1.22605-1.23829,.14194c-.01958-.11502-.08688-.37932-.18843-.7929-.55429-2.26611-2.24409-9.16234-3.65368-20.02305-.98378-7.58145-1.54052-15.3758-1.65554-23.17016-.11502-7.80659,.25451-13.7166,.55062-18.46662,.22392-3.58271,.49556-6.99412,.76231-10.31743,.70969-8.87847,1.379-17.26505,.88099-26.54975-.11012-2.07278-.34139-6.38721-2.86201-10.97817-1.46221-2.66256-3.47626-5.02656-5.98709-7.02348l1.56132-1.96266c2.77146,2.20738,4.99964,4.82589,6.62337,7.78212,2.79471,5.09019,3.04677,9.79128,3.16791,12.05005,.50657,9.44867-.17008,17.916-.88711,26.88012-.2643,3.31107-.53594,6.70779-.75863,10.27582-.29366,4.70598-.65952,10.56459-.54573,18.27085,.11257,7.70136,.66319,15.40027,1.63351,22.88628,1.39246,10.72366,3.05779,17.51711,3.60474,19.74896,.29122,1.19179,.3524,1.4414,.05384,1.91372Z" fill="#f2f2f2"/><path d="M482.07508,315.45601c-.10278,0-.20679-.00245-.31202-.00979-2.13396-.11502-4.11008-1.39246-5.87452-3.79562-.82716-1.13061-1.25052-2.42029-2.09481-4.9923-.13093-.39645-.7672-2.40805-1.15386-5.17584-.25329-1.80849-.22147-2.56467,.13704-3.23276,.39767-.74395,1.04129-1.26276,1.76566-1.61271-.03181-.23983-.00612-.48699,.09789-.73906,.42704-1.04496,1.56254-.90791,2.17679-.84184,.3108,.03916,.69868,.09055,1.11715,.06852,.6583-.03181,1.01192-.22759,1.54786-.52126,.51269-.28143,1.15019-.63138,2.09603-.82471,1.86477-.38911,3.42731,.13949,3.94245,.31324,2.71028,.90302,4.04646,3.01006,5.59309,5.44993,.30835,.48944,1.36677,2.27101,2.06544,4.71332,.50412,1.76199,.43316,2.5451,.28143,3.12753-.30835,1.19668-1.03639,1.8819-2.88526,3.39428-1.93085,1.58334-2.89994,2.37624-3.73199,2.85834-1.93696,1.11837-3.15323,1.82072-4.76838,1.82072Z" fill="#f2f2f2"/></g><g><g><path id="b-296" d="M243.46957,228.73951c4.16581,1.09909,8.10965-.15946,8.80868-2.81073,.69903-2.65126-2.11125-5.69069-6.2787-6.78961-1.6587-.46181-3.40388-.51968-5.08952-.16875l-17.70953-4.43397-1.90359,8.35491,17.66056,3.48408c1.29365,1.13707,2.84086,1.94771,4.5121,2.36407Z" fill="#ffb6b6"/><path d="M146.13321,188.06167s-3.59702,6.90329,1.38855,10.30819,46.50224,19.1858,46.50224,19.1858l41.23021,8.97281,1.48803-10.02002-37.53799-11.99262-31.30368-21.05293-21.76737,4.59877Z" fill="#2f2e41"/></g><g><polygon points="195.229 410.86965 202.22161 407.72429 191.21187 374.81567 180.89222 379.45676 195.229 410.86965" fill="#ffb6b6"/><path d="M225.85447,413.94428h0c.55892,1.16809,.18308,2.51167-.83949,3.00096l-13.72475,6.56716s-3.94843-4.78291-10.57313-4.48447l3.33572,7.9475-7.08012,3.38777-5.11698-12.89726s-5.09051-5.77423-2.79113-11.07118c2.29943-5.29697-.65903-3.29717-.65903-3.29717l-2.15062-8.46877,11.30082-3.86117,5.88359,12.09411,10.95399,9.55755,9.41555,.11799c.83803,.01049,1.64185,.56344,2.04548,1.407l.0001-.00002Z" fill="#2f2e41"/></g><g><polygon points="56.86064 393.87943 63.10936 398.32278 85.93805 372.1877 76.71694 365.62982 56.86064 393.87943" fill="#ffb6b6"/><path d="M69.68929,421.85797h0c-.72531,1.07273-2.07457,1.42764-3.01366,.79269l-12.60429-8.52223s2.13082-5.8246-1.47554-11.38966l-5.17102,6.89567-6.50211-4.39632,8.54133-10.93474s2.40882-7.31113,8.1415-8.00484c5.73272-.69368,2.51172-2.23537,2.51172-2.23537l6.21986-6.13665,9.04418,7.79872-7.46083,11.19019-2.70909,14.28277,4.65786,8.18357c.41458,.72837,.34382,1.70145-.17998,2.47614l.00007,.00007Z" fill="#2f2e41"/></g><rect x="134.65437" y="143.3215" width="32.83387" height="45.09185" fill="#2f2e41"/><path d="M160.11457,169.0948l-17.82774-5.30014-3.37281,9.15478-.48183,55.89236s25.53703-5.78197,31.319,3.85465l1.92732-17.34591s6.2638-8.67295,.96366-19.75506c-5.30014-11.08211-10.29676-16.07873-10.29676-16.07873l-4.15816-2.23084,1.92732-8.19112Z" fill="#6c63ff"/><path d="M139.63676,220.40977l-2.40915,24.57337,31.80083,6.74563s-2.40915-21.20055,.48183-26.01886l-29.8735-5.30014Z" fill="#ffb6b6"/><path d="M170.95576,251.24693s-20.23689-14.93675-37.5828-9.15478c0,0-20.47781,12.76851-9.87753,34.93273l-16.14133,38.30554-36.1373,50.59222,10.11844,12.04577,47.70124-49.62856,15.41858-21.20055,39.02829,82.87488,12.04577-5.78197-14.93675-63.60165-8.91387-44.08751-.72275-25.29611Z" fill="#2f2e41"/><polygon points="123.73635 279.67495 99.64482 271.96565 122.77269 207.88217 120.36354 173.67219 140.76819 167.91669 152.16436 218.48244 123.73635 279.67495" fill="#2f2e41"/><path d="M161.01373,180.84843l-3.64218-3.64218,1.62441-3.35736s10.51431,10.9054,12.44163,13.79639,19.92495,75.50218,19.92495,75.50218l-27.15241,11.22735,5.30014-57.01347,1.96242-12.82373c.29018-1.89622-.03439-3.83553-.92617-5.53393l-9.53279-18.15524Z" fill="#2f2e41"/><circle cx="152.15161" cy="148.56012" r="15.97725" fill="#ffb6b6"/><path d="M162.08868,142.02914c-5.48186-3.65576-15.29302,10.98544-18.29302,1.98544-.46778-1.40333-1.56818,4.80515-1.97081,6.97741-.51132,2.7587,.78247,4.96207,0,5.45565-.88427,.55775-3.04973-1.93237-3.5072-1.55876-.44711,.36514,.99011,3.25903,3.5072,6.62471,3.3409,4.46725,5.43481,5.55454,8.18347,8.57316,2.559,2.81036,7.29378,8.01022,6.62471,12.47005-1.25845,8.38835-21.74082,14.87117-28.05761,8.57316-1.51242-1.50795-1.80826-4.92268-2.33813-11.69067-.78856-10.07203-.19318-17.63024,0-19.87414,.8043-9.34345,1.2065-14.0152,3.11751-17.9257,1.22035-2.49721,5.33002-10.90677,14.4185-13.63912,9.76297-2.93508,21.38224,1.85012,24.55041,8.96285,.91543,2.05514,.02569,1.83604,1.16907,8.57316,1.35316,7.97331,2.22911,12.75775,5.84534,15.58756,3.32213,2.59972,5.88591,1.14657,7.0144,3.11751,2.92707,5.1122-10.65637,21.28895-16.36694,19.09476-3.44075-1.32205-3.74491-9.2064-3.5072-12.85974,.5119-7.86751,4.41031-9.53735,4.28658-16.75663-.03273-1.91006-.14861-8.67125-4.67627-11.69067Z" fill="#2f2e41"/><g><path id="c-297" d="M92.48172,275.54219c-.67837,4.25462,.96703,8.05336,3.67477,8.48463,2.70774,.43127,5.4519-2.66798,6.12994-6.92421,.29417-1.69647,.17779-3.43873-.33941-5.081l2.6466-18.0633-8.50305-1.0613-1.70633,17.91989c-1.00245,1.40055-1.65484,3.02086-1.90253,4.72528Z" fill="#ffb6b6"/><path d="M123.25452,174.63585s-7.22746-2.89098-10.11844,2.40915-14.45492,48.18307-14.45492,48.18307l-4.81831,41.91927,10.11844,.48183,8.19112-38.54646,17.82774-33.24632-6.74563-21.20055Z" fill="#2f2e41"/></g></g><path d="M583.04004,430.18022h0c0,.46394-.37609,.84003-.84003,.84003H0v-1.68005H582.20001c.46393,0,.84003,.37609,.84003,.84003Z" fill="#e6e6e6"/></svg> -->
<!-- <svg xmlns="http://www.w3.org/2000/svg" data-name="Layer 1" width="874.03939" height="771.29199" viewBox="0 0 874.03939 771.29199" xmlns:xlink="http://www.w3.org/1999/xlink"><path d="M673.06187,155.13663c-6.61083-10.93377-14.4444-22.60778-26.71241-26.178-14.20721-4.1345-28.80156,4.07884-41.18094,12.18371a1200.0132,1200.0132,0,0,0-106.79381,78.68435l.03733.42443q39.84558-2.74783,79.69107-5.49561c19.19229-1.32353,39.04395-2.82962,56.00462-11.90879,6.436-3.44519,12.70971-8.04728,20.00276-8.368,9.06094-.39838,16.9615,5.92977,23.17024,12.54124,36.72672,39.109,47.3547,98.91591,88.5584,133.27607A1307.62124,1307.62124,0,0,0,673.06187,155.13663Z" transform="translate(-162.9803 -64.354)" fill="#f2f2f2"/><path d="M898.81566,486.85161c-4.06138-5.12843-5.72089-6.32951-9.7271-11.50539Q840.15871,412.06265,797.10831,344.504q-29.24146-45.88332-55.58294-93.52878-12.54066-22.65123-24.39375-45.65806-9.19771-17.83888-17.98489-35.89113c-1.67533-3.43742-3.3032-6.89062-4.923-10.35172-3.81675-8.13911-7.56252-16.31772-11.58454-24.34624-4.583-9.15055-10.16194-18.74365-18.57794-24.89148a25.3465,25.3465,0,0,0-13.2043-5.081c-6.851-.44252-13.17267,2.38643-19.115,5.47612a615.32438,615.32438,0,0,0-120.996,83.43784A629.91682,629.91682,0,0,0,412.44405,302.789c-.86892,1.24063-2.92353.05532-2.04651-1.19317q5.17993-7.32527,10.56514-14.49239A633.39908,633.39908,0,0,1,582.6701,136.269q15.72964-10.19362,32.05079-19.43118c5.484-3.1055,10.99188-6.1715,16.59432-9.04781,5.49208-2.821,11.32371-5.35762,17.59789-5.45244,21.35138-.33187,32.40654,23.8484,40.00031,40.11876q3.57965,7.68077,7.24612,15.31419,13.85619,28.98074,28.77923,57.43214,9.20988,17.56629,18.82295,34.9271,29.91689,54.06191,63.59574,105.935c29.74345,45.8082,59.24961,86.27465,93.13353,129.11167C901.42357,486.36169,899.75634,488.05274,898.81566,486.85161Z" transform="translate(-162.9803 -64.354)" fill="#e4e4e4"/><path d="M508.63577,181.72953c-1.24048-1.38286-2.47325-2.76572-3.72184-4.14858-9.84593-10.88906-20.41068-21.65166-33.93138-27.8943a49.228,49.228,0,0,0-20.62445-4.78073c-7.3804.02372-14.59488,1.95969-21.41426,4.67014-3.2241,1.288-6.37721,2.7499-9.48247,4.30658-3.54821,1.78587-7.03314,3.6903-10.50187,5.61049q-9.76722,5.405-19.28094,11.28411-18.92963,11.699-36.67357,25.18385-9.1983,6.99336-18.01692,14.445-8.20224,6.92216-16.07266,14.21579c-1.122,1.03517-2.79736-.64006-1.67533-1.67523,1.38286-1.288,2.78154-2.56817,4.18022-3.83248q5.92655-5.35763,12.04292-10.50977,11.15336-9.41136,22.88433-18.09569,18.24205-13.51254,37.74-25.19176,9.74349-5.8317,19.75514-11.17352c2.01525-1.07467,4.054-2.12565,6.11638-3.12132a97.50231,97.50231,0,0,1,14.5397-5.91863,51.72426,51.72426,0,0,1,21.95985-2.15725,57.173,57.173,0,0,1,20.261,7.00912c13.2753,7.42,23.57151,18.8938,33.59146,30.091C511.32278,181.18429,509.65517,182.86743,508.63577,181.72953Z" transform="translate(-162.9803 -64.354)" fill="#e4e4e4"/><path d="M780.64307,294.56892l31.8111-11.63506L828.2485,277.157c5.14394-1.88143,10.27552-4.02328,15.59314-5.37047a24.59988,24.59988,0,0,1,14.1137.17983,32.529,32.529,0,0,1,11.00834,6.824,89.33664,89.33664,0,0,1,9.02916,9.64249c3.43871,4.13257,6.82664,8.30845,10.22975,12.47034q21.068,25.76544,41.86047,51.75453,20.792,25.98867,41.306,52.19814,20.56413,26.27355,40.84541,52.76683,2.48448,3.24552,4.96472,6.4943c.91353,1.1965,2.9734.01691,2.047-1.1965q-20.4309-26.75968-41.14661-53.30032-20.76666-26.60406-41.8203-52.98243-21.05322-26.37786-42.391-52.52695-5.31588-6.51452-10.6493-13.0147c-2.99929-3.65542-5.96477-7.35027-9.25448-10.75258-6.03851-6.2452-13.58286-11.76428-22.61354-11.914-5.30957-.08805-10.44809,1.5968-15.38124,3.38144-5.31814,1.92392-10.62353,3.88384-15.93487,5.82649l-32.03355,11.71642-8.00839,2.9291c-1.42119.51981-.80725,2.81169.6302,2.28594Z" transform="translate(-162.9803 -64.354)" fill="#e4e4e4"/><path d="M466.79629,163.3884c-16.1657-8.30835-36.86813-6.6811-51.72326,3.69893a737.72563,737.72563,0,0,1,83.93162,19.58923C487.5553,179.967,478.59917,169.45452,466.79629,163.3884Z" transform="translate(-162.9803 -64.354)" fill="#f2f2f2"/><path d="M414.91391,167.05873l-3.11211,2.52958c1.05268-.88536,2.147-1.71545,3.27123-2.501C415.01992,167.07817,414.967,167.06789,414.91391,167.05873Z" transform="translate(-162.9803 -64.354)" fill="#f2f2f2"/><path d="M867.76588,294.68515c-3.13141-3.81174-6.517-7.80285-11.20077-9.35109l-4.3729.17247A496.01529,496.01529,0,0,0,984.30578,436.54342Q926.03584,365.61431,867.76588,294.68515Z" transform="translate(-162.9803 -64.354)" fill="#f2f2f2"/><path d="M667.56528,606.08057a.99208.99208,0,0,1-.34472-.06153l-84.26075-30.95312a.99979.99979,0,0,1,.68946-1.877L667.91,604.14209a.99992.99992,0,0,1-.34473,1.93848Z" transform="translate(-162.9803 -64.354)"/><path d="M513.56528,548.08057a.99208.99208,0,0,1-.34472-.06153l-84.26075-30.95312a.99979.99979,0,0,1,.68946-1.877L513.91,546.14209a.99992.99992,0,0,1-.34473,1.93848Z" transform="translate(-162.9803 -64.354)"/><path d="M356.56528,490.08057a.99208.99208,0,0,1-.34472-.06153l-84.26075-30.95312a.99979.99979,0,1,1,.68946-1.877L356.91,488.14209a.99992.99992,0,0,1-.34473,1.93848Z" transform="translate(-162.9803 -64.354)"/><path d="M340.77789,339.73786c-3.513-.78529-7.07046-1.40541-10.5834-1.83746l-.51119-.06323c-23.32139-2.77664-43.00988,6.9576-45.79631,22.64455l-.49522,2.83825c-.30945,1.79507-.643,3.72484-1.03969,5.85964-.192,1.05382.86683,2.13206,2.40721,2.47639L845.64873,497.03693c39.60727,8.56359,79.08714,17.02366,117.33655,25.14363a177.65208,177.65208,0,0,0,21.71065,3.51129c10.92716.92565,18.92738-.29292,24.46025-3.72527l.00143.00032c6.87669-4.25263,8.60671-11.15675,10.01929-19.07845,2.84589-15.99688,5.87651-32.793,8.8972-49.53834,2.66091-14.75837,5.31588-29.477,7.832-43.57433,1.478-8.36939,2.28148-15.86888-2.87865-22.89126-5.59586-7.59812-17.581-13.49439-35.62262-17.52742-.218-.04872-.43435-.09709-.65537-.1455-56.59242-12.40748-117.61866-2.54964-151.85437,24.53032-3.94237,3.11838-7.734,6.55259-11.40129,9.87461a158.915,158.915,0,0,1-17.302,14.23235,66.95031,66.95031,0,0,1-10.66605,5.98627c-.25666.12475-.54766.25483-.85089.37217-.70477.31777-1.43307.61327-2.13506.86462a62.0421,62.0421,0,0,1-12.65519,3.3972l-.43142.06466c-.32638.05613-.67791.1067-1.027.14668a68.206,68.206,0,0,1-7.47861.58873c-10.81181.309-22.58524-1.66945-34.9912-5.88162a151.75218,151.75218,0,0,1-32.578-15.75109c-10.81449-6.91445-20.63934-14.71742-30.14091-22.263-4.17337-3.3155-8.49029-6.74313-12.82831-10.0464-.81538-.62156-1.61781-1.23022-2.43389-1.84194-5.31267-3.96943-10.17724-7.35432-14.87117-10.34795a146.28109,146.28109,0,0,0-37.14319-17.03477c-13.864-4.02977-26.62952-5.1282-37.93113-3.27465a60.64867,60.64867,0,0,0-9.25267,2.26955c-13.92282,4.59682-23.91659,13.74043-33.58051,22.58341-12.02134,10.99884-24.45259,22.37336-44.6111,25.204-23.26268,3.2735-53.83561-7.08109-74.69257-17.86551-6.55734-3.3911-13.04452-7.05565-19.31837-10.60059q-3.80063-2.148-7.611-4.28006c-4.99335-2.78532-9.09853-4.9819-12.9185-6.91547l-1.20763-.61418c-.67265-.33749-1.346-.67514-2.03422-1.0071-4.55048-2.238-8.82522-4.15423-13.07549-5.85984l-1.00447-.40866c-2.02137-.78508-3.91848-1.48634-5.78838-2.13749l-.74665-.259A109.23636,109.23636,0,0,0,340.77789,339.73786Z" transform="translate(-162.9803 -64.354)" fill="#f2f2f2"/><path d="M1009.9813,528.062a1.00861,1.00861,0,0,1-.20752-.02148l-740-156.208a1.00008,1.00008,0,0,1,.41309-1.957l740,156.208a1,1,0,0,1-.20557,1.97851Z" transform="translate(-162.9803 -64.354)"/><circle cx="693.50002" cy="51" r="51" fill="#ff6584"/><path d="M948.51573,76.22439c-24.7168-3.341-52.93512,10.01867-59.34131,34.12353a21.59652,21.59652,0,0,0-41.0935,2.10871l2.82971,2.02667a372.27461,372.27461,0,0,0,160.65881-.72638C994.37657,95.688,973.23259,79.56527,948.51573,76.22439Z" transform="translate(-162.9803 -64.354)" fill="#f0f0f0"/><path d="M842.51573,144.22439c-24.7168-3.34095-52.93512,10.01867-59.34131,34.12353a21.59652,21.59652,0,0,0-41.0935,2.10871l2.82971,2.02667a372.27461,372.27461,0,0,0,160.65881-.72638C888.37657,163.688,867.23259,147.56527,842.51573,144.22439Z" transform="translate(-162.9803 -64.354)" fill="#f0f0f0"/><path d="M886.872,553.437a9.76016,9.76016,0,0,1,1.3573-14.90445L872.68919,461.346l17.16108,5.50989,12.43908,74.65875A9.81312,9.81312,0,0,1,886.872,553.437Z" transform="translate(-162.9803 -64.354)" fill="#9e616a"/><path d="M863.92625,390.1305l10.64765-8.03739s9.39288-.66516,11.05646,16.27378,5.0794,49.95013,5.0794,49.95013l16.293,75.46286-22.55395,4.95047-17.451-81.43777-10.46887-24.184Z" transform="translate(-162.9803 -64.354)" fill="#2f2e41"/><polygon points="718.5 449 658.5 448 653.5 407 718.5 407 718.5 449" fill="#9e616a"/><polygon points="663.032 699.832 649.181 699.831 642.591 646.404 663.034 646.405 663.032 699.832" fill="#9e616a"/><polygon points="751.276 680.645 737.425 680.548 731.21 627.076 749.225 631.209 751.276 680.645" fill="#9e616a"/><polygon points="707.954 371.691 711.092 379.851 710.465 388.011 649.04 409.286 652.088 373.574 658.993 365.414 707.954 371.691" fill="#ffb6b6"/><circle cx="681.60247" cy="276.31957" r="21.93835" fill="#9e616a"/><path d="M832.20836,790.48614h-9.82871l-1.75438-9.27947-4.49323,9.27947H790.064a5.85987,5.85987,0,0,1-3.32977-10.682l20.8172-14.37711v-9.38123l21.89607,1.3069Z" transform="translate(-162.9803 -64.354)" fill="#2f2e41"/><path d="M921.52345,771.35138l-9.82847-.0688-1.68938-9.29152-4.55808,9.24779-26.06745-.18247a5.85987,5.85987,0,0,1-3.25492-10.705l20.91733-14.231.06567-9.381,21.88638,1.46013Z" transform="translate(-162.9803 -64.354)" fill="#2f2e41"/><path d="M918.56637,706.97349l-10.086-61.61949-12-85c8.78784-16.32031-11-67-11-67l-2.79323.134L819.4667,505.41484l.01362-.06084c-12.93066,35.26813-17.21474,52.69133-16.50612,90.24846l2.54743,135.00989h-.79914a5,5,0,0,0,0,10h25a5,5,0,0,0,0-10h-.64459l22.947-160.75659L871.48032,637.354l22,69c-8-2-6.75783,2.634-6.75783,5.25835a5,5,0,0,0,5,5h25a4.9948,4.9948,0,0,0,1.84388-9.63886Z" transform="translate(-162.9803 -64.354)" fill="#2f2e41"/><path d="M890.40291,495.97917l-2.00006-20a3.98672,3.98672,0,0,0-3.6051-2.99481c-.83331-9.52728-4.33935-50.62872-4.54883-52.42127l-.00818-.0758-1.5943-34.05774a5.03656,5.03656,0,0,0-4.70251-4.79035l-8.42078-.55041a.44562.44562,0,0,1-.4306-.44531,7.08138,7.08138,0,0,0-7.08136-7.08142H833.08a6.63,6.63,0,0,0-6.57562,5.80383.44015.44015,0,0,1-.448.39612l-.003-.00006a11.84461,11.84461,0,0,0-11.91547,9.82434c-3.40839,19.831-10.23907,64.83984-6.86188,89.86218,1.17566,8.71069-1.3587,1.81158-1.80328,9.09979a5.36475,5.36475,0,0,0,1.33563,3.88959c-2.058.598-2.85618,2.82131-2.32811,4.91615l-.43818-.10847a4,4,0,0,0,4.85638,2.90088L885.502,480.83555C887.64412,480.29558,890.94289,498.12126,890.40291,495.97917Z" transform="translate(-162.9803 -64.354)" fill="#2f2e41"/><path d="M806.08865,553.437a9.76012,9.76012,0,0,0-1.3573-14.90445l15.5401-77.18656-17.16107,5.50989-12.43909,74.65875A9.81312,9.81312,0,0,0,806.08865,553.437Z" transform="translate(-162.9803 -64.354)" fill="#9e616a"/><path d="M829.03439,390.1305l-10.64764-8.03739s-9.39289-.66516-11.05646,16.27378-5.07941,49.95013-5.07941,49.95013l-16.293,75.46286,22.554,4.95047,17.451-81.43777,10.46887-24.184Z" transform="translate(-162.9803 -64.354)" fill="#2f2e41"/><path d="M868.07564,321.1661c4.08708,1.21668,7.89992-2.202,10.74458-5.44087l-1.011,1.19957c6.69181,4.71255,10.69317,12.38968,13.28938,20.1611,2.59621,7.76284,4.04419,15.89416,6.97458,23.54562,2.93033,7.64287,7.66,15.03729,14.90022,18.85017,9.69922,5.10665,21.5834,2.78469,31.89962-.89971.13707-.0514.26561-.09424.40268-.14564a65.73749,65.73749,0,0,1-7.52291-25.19066,59.77111,59.77111,0,0,0,17.87339,20.96651,137.21282,137.21282,0,0,0,19.3814-10.77889c3.98426-2.66471,8.18268-6.10917,8.6454-10.88165.47124-4.73827-3.06745-9.06523-7.24019-11.34442-4.17274-2.27914-8.971-3.0503-13.52927-4.4212-4.5498-1.36238-9.19378-3.59868-11.58431-7.71144-5.50938-9.45934,3.76148-22.80013-2.15064-32.01959-2.91323-4.53264-8.56826-6.34911-13.812-7.60862a182.60612,182.60612,0,0,0-24.31673-4.10418c-7.18879-.71975-14.61746-.98537-21.45491,1.32807-6.83751,2.31345-13.04092,7.68571-14.50606,14.7631-3.99284,2.09924-8.217,4.42125-10.35905,8.40547C862.55768,313.81452,863.74868,319.88087,868.07564,321.1661Z" transform="translate(-162.9803 -64.354)" fill="#2f2e41"/><path d="M874.17675,319.57214c3.91362,4.90263,6.044,10.20454,6.044,13.37969,8.1301,14.8592-3.49609,27.62261-18.3556,35.75253a30.4432,30.4432,0,0,1-19.45034,3.39093l-.62168-2.65376-.84227,2.39048s-9.67458,31.95357-12.86574,33.828c1.211-5.68666,2.59808-32.01668,3.27221-37.56651.93328-7.55361-2.3201-18.799-4.66693-25.63764a40.36632,40.36632,0,0,1-2.21006-13.10023v-.19495l-2.28513,7.34-8.31933-3.54892c1.54776-8.87756,0-18.95567,18.55562-18.08159,10.03575-6.90205,18.87341-7.95341,26.133-5.99583.93688-1.44845,6.33924,1.26445,7.90037.50176" transform="translate(-162.9803 -64.354)" fill="#2f2e41"/><path d="M894.95,475.58a14.211,14.211,0,0,1-12.22,12.5l-45.17,6.12a14.22429,14.22429,0,0,1-15.99-12.18l-6.51-48.14a14.17467,14.17467,0,0,1,1.8-9.04l-.31-2.34a7.49008,7.49008,0,0,1-1.78-13.14l5.58-25.85a4.00677,4.00677,0,0,1,3.82-4.54,4.11336,4.11336,0,0,1,4.13,3.63l.51,3.8a20.0008,20.0008,0,0,0,39.82-2.66,20.67194,20.67194,0,0,0-.18-2.71l-.5-3.74a4.15049,4.15049,0,0,1,3.18-4.69,3.99878,3.99878,0,0,1,4.71,3.4l3.23,23.8a7.49232,7.49232,0,0,1,3.35,14.41,14.16485,14.16485,0,0,1,5.97,9.74l6.52,48.15A14.00033,14.00033,0,0,1,894.95,475.58Z" transform="translate(-162.9803 -64.354)" fill="#6c63ff"/><path d="M815.90592,423.55866a1.50164,1.50164,0,0,1,1.28528-1.68762l61.56637-9.43744a1.5,1.5,0,1,1,.40234,2.9729l-61.56637,9.43744A1.50164,1.50164,0,0,1,815.90592,423.55866Z" transform="translate(-162.9803 -64.354)" fill="#3f3d56"/><path d="M823.10114,448.82906l-2.03494-15.03627a4.41336,4.41336,0,0,1,3.78157-4.96534l58.80132-7.52189a4.4134,4.4134,0,0,1,4.96541,3.78156l2.03494,15.03627a4.41338,4.41338,0,0,1-3.78163,4.96535L863.38108,448.32a4.41336,4.41336,0,0,1,.117.48872l2.07876,15.36,19.81932-2.68226a1,1,0,1,1,.26822,1.98193l-19.81932,2.68227-8.91869,1.207L838.098,469.90579a1,1,0,0,1-.26823-1.98193l18.82835-2.54816-2.07875-15.36a4.41419,4.41419,0,0,1-.0171-.50224l-26.49582,3.09714A4.41339,4.41339,0,0,1,823.10114,448.82906Z" transform="translate(-162.9803 -64.354)" fill="#3f3d56"/><path d="M591.97983,835.646a.99755.99755,0,0,1-.66894-.25684l-428-385.792a1.00022,1.00022,0,0,1,1.33887-1.48633l428,385.792a1,1,0,0,1-.66993,1.74317Z" transform="translate(-162.9803 -64.354)"/><path d="M816.03,445.94a2.02642,2.02642,0,0,0-2.15-2.17,1.86357,1.86357,0,0,0-.32.04l-12.66,2.86a2.08471,2.08471,0,0,0-1.34,1.03,2.60566,2.60566,0,0,0-.55.08,3.0761,3.0761,0,1,0,1.36,6,3.11843,3.11843,0,0,0,1.24-.6l4.29,12.08a2.015,2.015,0,0,0,2.21.97l8.23-1.86a2.04288,2.04288,0,0,0,1.56994-1.82Zm-15.85,6.98a2.20025,2.20025,0,0,1-.98-4.29c.04-.01.08,0,.12-.01a2.07149,2.07149,0,0,0,.27,1.04L801.16,452.4A2.07113,2.07113,0,0,1,800.18,452.92Z" transform="translate(-162.9803 -64.354)" fill="#ccc"/><path d="M813.88,443.77c.12,1.6-2.62,3.44-6.29,4.17-3.37006.69-6.39.21-7.24-1.05a1.91857,1.91857,0,0,1,.55-.22l12.66-2.86A1.86357,1.86357,0,0,1,813.88,443.77Z" transform="translate(-162.9803 -64.354)" fill="#e6e6e6"/><path d="M807.26359,475.72409l-3.67522-7.6463c-2.153-4.47933,1.78872-9.24544,8.78746-10.62368L821,456l3.60748,25.20178-.74661.147C816.86213,482.72706,809.41658,480.20341,807.26359,475.72409Z" transform="translate(-162.9803 -64.354)" fill="#6c63ff"/><g opacity="0.2"><path d="M894.95,475.58a14.211,14.211,0,0,1-12.22,12.5l-45.17,6.12a14.20774,14.20774,0,0,1-13.87-6.42,14.51211,14.51211,0,0,1,10.36-5.24c3.88-.2,7.64,1.09,11.44,1.81a39.58923,39.58923,0,0,0,26.83-4.45c3.53-2.05,6.71-4.67,10.59-6.13,3.88-1.45,8.89-1.4,11.7,1.43A4.03266,4.03266,0,0,1,894.95,475.58Z" transform="translate(-162.9803 -64.354)"/></g></svg>
 -->
<svg xmlns="http://www.w3.org/2000/svg" data-name="Layer 1" width="922.27377" height="743.35897" viewBox="0 0 922.27377 743.35897" xmlns:xlink="http://www.w3.org/1999/xlink"><path d="M221.89335,749.35521c2.92224-23.49813,17.48511-46.65062,39.89522-54.29756a109.099,109.099,0,0,0,.00541,74.90377c3.44357,9.31474,8.24354,19.31641,5.0044,28.70426-2.01535,5.84138-6.94563,10.31054-12.4567,13.105-5.5114,2.79445-11.62791,4.12634-17.66787,5.43158l-1.1887.98312C225.89677,796.5344,218.97111,772.85335,221.89335,749.35521Z" transform="translate(-138.86312 -78.32052)" fill="#f0f0f0"/><path d="M262.011,695.502a93.25021,93.25021,0,0,0-23.18186,52.48119,40.15693,40.15693,0,0,0,.45678,12.57358,23.03173,23.03173,0,0,0,5.72827,10.68257c2.58185,2.83669,5.55131,5.43932,7.39865,8.85422a14.10238,14.10238,0,0,1,.689,11.51263c-1.631,4.678-4.84564,8.491-8.11886,12.11054-3.63429,4.0188-7.47285,8.1355-9.0177,13.46336-.18717.64555-1.1779.31736-.991-.32721,2.68777-9.26957,11.68607-14.53487,15.97735-22.88386,2.00238-3.89579,2.84286-8.41862.96565-12.531-1.64154-3.59612-4.70137-6.2826-7.34038-9.13221a24.57669,24.57669,0,0,1-5.99019-10.23657,37.124,37.124,0,0,1-.9385-12.50962,90.46894,90.46894,0,0,1,6.60735-27.49288,94.90362,94.90362,0,0,1,17.06491-27.34742c.44622-.49967,1.13386.28631.69056.78271Z" transform="translate(-138.86312 -78.32052)" fill="#fff"/><path d="M239.11,741.66748a13.99049,13.99049,0,0,1-10.64953-14.65557c.05317-.66936,1.09584-.61818,1.04259.05208a12.95491,12.95491,0,0,0,9.93415,13.61249c.65334.15533.32239,1.14545-.32721.991Z" transform="translate(-138.86312 -78.32052)" fill="#fff"/><path d="M243.51561,769.9734a26.96558,26.96558,0,0,0,12.04174-15.53018c.18946-.64486,1.18024-.31687.991.32721A28.04829,28.04829,0,0,1,243.985,770.90552c-.57871.34328-1.04494-.59071-.46938-.93212Z" transform="translate(-138.86312 -78.32052)" fill="#fff"/><path d="M249.31094,713.03309a7.91931,7.91931,0,0,0,7.50482-.381c.57407-.35044,1.03971.584.46938.93212a8.87424,8.87424,0,0,1-8.30141.43985.53934.53934,0,0,1-.3319-.6591.52445.52445,0,0,1,.65911-.3319Z" transform="translate(-138.86312 -78.32052)" fill="#fff"/><path d="M330.09776,737.02818c-.35223.229-.70446.458-1.05713.69587a104.29317,104.29317,0,0,0-13.335,10.411c-.326.29068-.652.59018-.969.88962a109.94812,109.94812,0,0,0-23.87841,32.68658,106.77415,106.77415,0,0,0-5.84864,15.13217c-2.15813,7.16092-3.92834,15.09689-8.20031,20.95424a18.3177,18.3177,0,0,1-1.427,1.76161h-38.6056c-.08773-.044-.1759-.0793-.26407-.12333l-1.5414.07048c.06193-.27305.132-.55491.194-.828.03526-.15853.07913-.31707.1144-.47561.02623-.10569.0529-.21144.07053-.30831.0086-.03521.01763-.07043.02624-.09688.01763-.09687.04429-.185.06193-.273q.58125-2.36493,1.19777-4.7299c0-.00882,0-.00882.0086-.01764a156.99517,156.99517,0,0,1,13.212-34.686c.17633-.32589.35223-.6606.5462-.98649a101.88506,101.88506,0,0,1,9.15165-13.88144,90.07179,90.07179,0,0,1,5.99831-6.86143,74.90059,74.90059,0,0,1,18.74326-14.04c13.84639-7.31064,29.87672-10.11159,44.67444-5.64592C329.349,736.7904,329.7193,736.90486,330.09776,737.02818Z" transform="translate(-138.86312 -78.32052)" fill="#f0f0f0"/><path d="M330.011,737.51817a93.25016,93.25016,0,0,0-50.10671,27.94621,40.15653,40.15653,0,0,0-7.20545,10.31431,23.0316,23.0316,0,0,0-1.85794,11.97824c.35358,3.8194,1.15756,7.68527.57655,11.52411a14.10234,14.10234,0,0,1-6.38129,9.607c-4.11876,2.75315-8.98114,3.86218-13.77384,4.78147-5.32137,1.0207-10.86478,1.99657-15.306,5.32047-.53811.40274-1.13156-.45578-.59426-.85791,7.727-5.783,18.08168-4.56946,26.53469-8.652,3.94432-1.905,7.33846-5.0102,8.31556-9.42393.85444-3.85962.02878-7.84685-.36265-11.711a24.57654,24.57654,0,0,1,1.38028-11.77983,37.124,37.124,0,0,1,6.78232-10.55328,90.46944,90.46944,0,0,1,21.82821-17.97345,94.90384,94.90384,0,0,1,30.09041-11.56112c.65712-.1303.73295.91126.08012,1.04072Z" transform="translate(-138.86312 -78.32052)" fill="#fff"/><path d="M283.931,760.5908a13.9905,13.9905,0,0,1,.32061-18.11341c.44546-.50244,1.24715.16619.8011.66929a12.95491,12.95491,0,0,0-.26379,16.84986c.42812.51737-.43224,1.10867-.85792.59426Z" transform="translate(-138.86312 -78.32052)" fill="#fff"/><path d="M270.40653,785.844a26.96556,26.96556,0,0,0,18.9649-5.15c.53952-.40082,1.13313.45758.59425.85791a28.04822,28.04822,0,0,1-19.74558,5.319c-.66874-.07433-.47868-1.10077.18643-1.02684Z" transform="translate(-138.86312 -78.32052)" fill="#fff"/><path d="M309.31577,743.8695a7.91931,7.91931,0,0,0,6.22155,4.21424c.66935.06582.47857,1.09223-.18643,1.02684a8.87424,8.87424,0,0,1-6.893-4.64682.53935.53935,0,0,1,.13183-.72609.52445.52445,0,0,1,.72608.13183Z" transform="translate(-138.86312 -78.32052)" fill="#fff"/><path d="M502.58094,621.67387c-18.9357-41.88446-18.23752-94.975,11.15-130.31889a211.7829,211.7829,0,0,0,75.80085,124.0819c15.12988,11.94661,33.20189,23.65875,37.335,42.48841,2.572,11.71622-1.0735,24.10868-7.37568,34.31445-6.30273,10.20611-15.0878,18.60158-23.773,26.87545l-.97445,2.83146C556.95168,695.78115,521.51664,663.55833,502.58094,621.67387Z" transform="translate(-138.86312 -78.32052)" fill="#f0f0f0"/><path d="M514.54894,491.866c-6.7632,37.03391-1.73891,76.46829,14.69983,110.39831,3.554,7.33559,7.7977,14.46765,13.47938,20.36749A44.70909,44.70909,0,0,0,563.027,634.53263c7.14749,2.08686,14.70025,3.39378,21.216,7.18174,6.86793,3.99271,11.13012,10.69219,12.79049,18.375,2.03152,9.40006.56428,18.96949-1.19576,28.27773-1.95419,10.335-4.14773,21.03891-1.31592,31.42835.34311,1.25882-1.63023,1.71761-1.97282.46069-4.92686-18.07584,4.65222-35.90345,3.31326-54.07673-.62478-8.48-3.80889-16.82307-11.07988-21.73631-6.35817-4.29642-14.14549-5.6508-21.40074-7.70123-7.61812-2.153-14.45973-5.44172-20.28143-10.89692-5.95527-5.58038-10.48673-12.56156-14.2127-19.77411a175.61893,175.61893,0,0,1-16.873-52.231,184.227,184.227,0,0,1,.59847-62.57164c.23362-1.27928,2.16808-.673,1.936.59792Z" transform="translate(-138.86312 -78.32052)" fill="#fff"/><path d="M523.32359,591.51739A27.15836,27.15836,0,0,1,490.852,578.01444c-.58922-1.1627,1.18987-2.13293,1.77987-.96869a25.14806,25.14806,0,0,0,30.231,12.49883c1.23949-.40375,1.69309,1.57137.46069,1.97281Z" transform="translate(-138.86312 -78.32052)" fill="#fff"/><path d="M559.26354,633.95181a52.34553,52.34553,0,0,0,4.23431-37.91218c-.33864-1.26,1.63458-1.71917,1.97282-.46069a54.44727,54.44727,0,0,1-4.48638,39.44211c-.61135,1.15424-2.32878.07874-1.72075-1.06924Z" transform="translate(-138.86312 -78.32052)" fill="#fff"/><path d="M511.24878,533.7591a15.373,15.373,0,0,0,12.04718-8.22493c.59641-1.16142,2.31328-.08463,1.72074,1.06923a17.22659,17.22659,0,0,1-13.30723,9.12851,1.047,1.047,0,0,1-1.21676-.75606,1.01807,1.01807,0,0,1,.75607-1.21675Z" transform="translate(-138.86312 -78.32052)" fill="#fff"/><path d="M669.36175,491.76524c-.35179.7358-.70358,1.47161-1.04716,2.22245A202.45416,202.45416,0,0,0,656.75794,524.728c-.24593.81141-.48294,1.63743-.705,2.45422a213.43083,213.43083,0,0,0-6.4834,78.3109,207.268,207.268,0,0,0,5.62259,30.98628c3.67061,14.04668,8.76811,28.9848,7.61786,43.01085a35.55453,35.55453,0,0,1-.58151,4.36223L598.27349,722.9158c-.18989.01584-.37164.04663-.56225.0629l-2.4822,1.67643c-.17369-.515-.34276-1.05287-.51645-1.56787-.102-.29832-.18974-.60535-.29173-.90367-.06349-.20164-.12631-.4038-.19512-.58213-.02139-.067-.04205-.13451-.05457-.187-.06881-.17833-.11379-.35128-.17368-.515q-1.43005-4.50594-2.80173-9.04764c-.00892-.0146-.00892-.0146-.00359-.03791-6.90882-23.08818-11.95083-46.956-13.20989-70.83027-.03764-.7183-.08491-1.45078-.09334-2.18692a197.77974,197.77974,0,0,1,1.11481-32.25648,174.84489,174.84489,0,0,1,2.99416-17.43623A145.39681,145.39681,0,0,1,598.842,546.87952c15.54093-26.12154,39.263-46.982,68.29588-54.55729C667.88072,492.129,668.61,491.94389,669.36175,491.76524Z" transform="translate(-138.86312 -78.32052)" fill="#f0f0f0"/><path d="M669.71376,492.66477c-27.697,25.4976-47.42761,60.0087-54.73041,96.99719-1.57884,7.99682-2.4845,16.24636-1.50011,24.37781a44.70926,44.70926,0,0,0,9.04236,21.72342c4.45044,5.96952,9.694,11.56031,12.61587,18.50771,3.07977,7.32293,2.44934,15.23822-.85049,22.37213-4.03744,8.72854-10.9704,15.48581-17.9799,21.85825-7.78271,7.07538-15.97861,14.30118-19.97273,24.3015-.48394,1.21168-2.33576.38991-1.85255-.81993,6.94908-17.39886,25.3309-25.86595,35.20339-41.18244,4.60668-7.147,7.08745-15.72549,4.24009-24.02608-2.4899-7.2585-7.89222-13.0284-12.45062-19.03372-4.78639-6.30569-8.269-13.05066-9.63289-20.9114-1.39518-8.0411-.81014-16.34344.55734-24.34555a175.61879,175.61879,0,0,1,17.97457-51.86226,184.22718,184.22718,0,0,1,38.1503-49.59963c.95674-.88077,2.13628.768,1.18578,1.643Z" transform="translate(-138.86312 -78.32052)" fill="#fff"/><path d="M616.72282,577.51376a27.15837,27.15837,0,0,1-17.797-30.33151c.22957-1.28309,2.23422-.98663,2.00435.29817a25.148,25.148,0,0,0,16.61264,28.18079c1.23275.42389.40577,2.274-.81994,1.85255Z" transform="translate(-138.86312 -78.32052)" fill="#fff"/><path d="M619.87041,633.0336A52.3455,52.3455,0,0,0,646.077,605.31219c.48822-1.20992,2.34018-.38853,1.85255.81994a54.44729,54.44729,0,0,1-27.329,28.79121c-1.18306.55352-1.90681-1.33921-.73017-1.88974Z" transform="translate(-138.86312 -78.32052)" fill="#fff"/><path d="M641.85624,524.12712a15.373,15.373,0,0,0,14.571.6861c1.17546-.56825,1.898,1.32518.73017,1.88973a17.22665,17.22665,0,0,1-16.12108-.72327,1.047,1.047,0,0,1-.51631-1.33625,1.01807,1.01807,0,0,1,1.33624-.51631Z" transform="translate(-138.86312 -78.32052)" fill="#fff"/><path d="M627.91324,704.64633a8.67881,8.67881,0,0,0-7.47995-11.00682l-21.18384-66.72969-10.972,11.68229,22.506,63.427a8.72582,8.72582,0,0,0,17.12972,2.62718Z" transform="translate(-138.86312 -78.32052)" fill="#ffb6b6"/><path d="M567.87569,574.569s6.72638-8.82741,17.549-2.17148,21.91085,44.66734,23.88146,50.74049,1.59156,40.50349,1.59156,40.50349l-16.64754,5.40168Z" transform="translate(-138.86312 -78.32052)" fill="#3f3d56"/><path d="M725.26774,820.55929H479.187l8.63068-27.96469.00006,0c53.49185-19.36437,23.44542-60.987,74.32847-86.4285,124.45707-62.22854,172.63948-247.92495,154.4149-321.33125l81.55931-3.44851S910.7543,701.24967,725.26774,820.55929Z" transform="translate(-138.86312 -78.32052)" fill="#3f3d56"/><polygon points="653.499 591.853 725.436 537.238 760.5 572.301 643.308 652.498 653.499 591.853" fill="#3f3d56"/><path d="M597.77841,643.79822l-1.10978,12.40243s-.48052,10.29726-2.00224,12.57408c-1.51028,2.26545-42.72219,2.55148-42.72219,2.55148s-2.72306-14.67933-5.06853-27.528Z" transform="translate(-138.86312 -78.32052)" fill="#ffb6b6"/><polygon points="318.498 717.823 309.882 716.082 312.348 681.282 325.064 683.85 318.498 717.823" fill="#ffb6b6"/><polygon points="348.704 722.921 339.922 722.921 335.744 688.292 348.705 688.292 348.704 722.921" fill="#ffb6b6"/><path d="M473.50957,786.9917l17.2569,1.60379,9.41291-69.764c31.02776,5.33628,60.29966,7.04575,85.61858.59043a16.3656,16.3656,0,0,0,11.70391-19.77035q-.14786-.61452-.34187-1.21587c-3.03019-9.24526-15.32144-18.12328-21.5708-28.29181l-34.62085,14.20652-1.5688,6.41507-44.34332-5.73816a16.351,16.351,0,0,0-18.1906,14.41707q-.08938.722-.11681,1.45Z" transform="translate(-138.86312 -78.32052)" fill="#2f2e41"/><path d="M447.27362,772.30039l17.2569,1.60374,31.28958-63.99258c31.02776,5.33628,60.29966,7.04575,85.61856.59043a16.3656,16.3656,0,0,0,11.70391-19.77035q-.14782-.61446-.34187-1.21587c-3.03019-9.24525,9.97255-11.88371,3.72319-22.05223l-45.64745.69339-15.83619,13.68862-44.34332-5.73816a16.351,16.351,0,0,0-18.1906,14.41707q-.08939.72205-.11681,1.45Z" transform="translate(-138.86312 -78.32052)" fill="#2f2e41"/><path d="M602.72776,586.23928l-.79,77.58s-5.75.04-7.27,2.3c-1.51,2.27-46.71-14.67-46.71-14.67s-.73-7.05-2.38-17.18c-.27-1.67-.56-3.42-.88-5.23-.08-.43-.14-.85-.19-1.28-1.68-12.32,3.97-22.92005,3.97-22.92005l16.85-19.84,2.7-12.37a3.46612,3.46612,0,0,1,2.98-2.7l17-2c2,1.39,1.69,6.89,4.13,6.97C595.91776,574.89925,602.72776,586.23928,602.72776,586.23928Z" transform="translate(-138.86312 -78.32052)" fill="#3f3d56"/><path d="M588.56772,604.74929l-42.99,22.52c-.27-1.67-.56-3.42-.88-5.23-.08-.43-.14-.85-.19-1.28Z" transform="translate(-138.86312 -78.32052)" opacity="0.2" style="isolation:isolate"/><ellipse cx="408.64002" cy="572.08654" rx="4.31532" ry="5.17839" fill="#3f3d56"/><circle cx="434.83302" cy="465.28788" r="21.17543" fill="#ffb6b6"/><path d="M454.59271,808.30992l-6.051-2.59377,1.36874-6.17586-5.21507,4.52714-16.04877-6.87929a3.92508,3.92508,0,0,1,.769-7.45507l16.61014-3.35764,2.47568-5.77553,13.13538,6.5829Z" transform="translate(-138.86312 -78.32052)" fill="#2f2e41"/><path d="M491.70847,819.36716H485.125l-1.17512-6.21561-3.00968,6.21561-17.461,0a3.92508,3.92508,0,0,1-2.23036-7.15505l13.94385-9.63013,0-6.28377,14.6665.8754Z" transform="translate(-138.86312 -78.32052)" fill="#2f2e41"/><path d="M627.90286,534.40268c-3.30525-3.85445-4.87666-8.96836-7.519-13.34529s-7.24048-8.29435-12.09812-7.27579c-3.34858.7022-5.93642,3.657-7.24656,6.95133-1.30989,3.29429-1.55544,6.92723-1.785,10.48627.08109-7.314-4.73753-14.40439-11.3754-16.73819a16.75267,16.75267,0,0,0-18.752,6.14536,10.13549,10.13549,0,0,0-13.46173-.28258,11.2909,11.2909,0,0,0-1.81265,13.93393,10.20486,10.20486,0,0,0,13.04588,3.47867l1.5415,1.418a6.68279,6.68279,0,0,0,3.64356,7.76194c2.29362.92647,5.53172.77227,6.39,3.17927.59983,1.68186-.52127,3.47706-1.71382,4.76946-1.1923,1.29236-2.60811,2.627-2.75129,4.41538-.21641,2.69842,2.57213,4.58871,5.107,5.158a15.92314,15.92314,0,0,0,16.41727-6.85184q.10188-.156.22149-.31246a23.60348,23.60348,0,0,0,4.74766-18.04791c-.19816-1.24672.00152-2.174.8611-2.4693,3.71526-1.27618,14.1244,1.40228,17.27456,3.823,3.15041,2.42074,5.67312,5.62437,8.70747,8.20135,3.03461,2.577,6.90142,4.5648,10.75429,3.863a11.93246,11.93246,0,0,0,7.47665-5.50448,33.13824,33.13824,0,0,0,3.692-8.98224A17.37737,17.37737,0,0,1,627.90286,534.40268Z" transform="translate(-138.86312 -78.32052)" fill="#2f2e41"/><polygon points="184.579 723.674 193.633 727.531 212.824 694.446 199.461 688.752 184.579 723.674" fill="#ffb6b6"/><polygon points="259.397 732.241 269.238 732.24 273.921 694.28 259.395 694.28 259.397 732.241" fill="#ffb6b6"/><path d="M397.91379,820.82816l30.26393-.00114v-.38274a11.78021,11.78021,0,0,0-11.77956-11.77938h-.00073l-5.5281-4.1939-10.3142,4.19454-2.64184.00009Z" transform="translate(-138.86312 -78.32052)" fill="#2f2e41"/><path d="M317.937,808.56609l27.84129,11.86459.15006-.35209a11.78023,11.78023,0,0,0-6.21807-15.4547l-.00067-.00028-3.44117-6.02553-11.133-.1852-2.43036-1.03571Z" transform="translate(-138.86312 -78.32052)" fill="#2f2e41"/><path d="M407.91417,585.89749l14.95706,91.07525-4.07053,13.57179,5.34138,9.612-7.84394,84.41455,3.184,7.00992-8.89614,5.4865H392.48366l-.96072-76.42116-4.4716-11.22028v-6.18375l-9.10288-46.59984-1.676,53.30442-2.64786,11.23784,2.22417,8.00142-2.90618,5.60567-24.906,53.4796H327.7379l1.56994-12.09426h0c-3.63681-1.84129,5.46025-7.22284,6.3344-11.20439l-2.98891-6.72506,2.98891-12.70288,2.74055-24.82175-2.89016-52.39458,1.36-70.5558,23.74566-18.158Z" transform="translate(-138.86312 -78.32052)" fill="#2f2e41"/><circle id="e77d1a29-bab6-47b6-8410-4d124ca10178" data-name="ab6171fa-7d69-4734-b81c-8dff60f9761b" cx="232.62653" cy="367.12314" r="20.51334" fill="#ffb6b6"/><path d="M335.84577,623.67567a8.07233,8.07233,0,0,0-4.41629-11.56336l-.04848-28.68643-12.43079,8.22765,1.95185,25.97973a8.11612,8.11612,0,0,0,14.94371,6.04241Z" transform="translate(-138.86312 -78.32052)" fill="#ffb6b6"/><path id="b2ec307e-b06e-4eaa-95c4-012f4683eb69-1806" data-name="f348f81f-b961-4ae4-bc6b-758f6acfb12a" d="M334.69678,496.74762l-5.55349-5.35283-4.07961,2.94452s-4.0138,4.81655-7.22482,19.26621,0,93.92278,0,93.92278l17.6607-2.40828-2.40829-41.74348,7.22482-35.32138Z" transform="translate(-138.86312 -78.32052)" fill="#ccc"/><path d="M456.965,607.41584a8.07238,8.07238,0,0,0-7.54338-9.81389l-8.26322-27.47057-9.55326,11.44351,9.31155,24.3321a8.11612,8.11612,0,0,0,16.04831,1.50885Z" transform="translate(-138.86312 -78.32052)" fill="#ffb6b6"/><path id="ac3d94eb-f5e1-4a42-b00b-afc1affe6e87-1807" data-name="f348f81f-b961-4ae4-bc6b-758f6acfb12a" d="M403.36078,494.50242l3.70326-6.76609,4.77238,1.59306s5.26816,3.39945,12.64454,16.23269c3.4117,5.93558,10.78678,43.99721,10.78678,43.99721l17.23893,45.64681-17.57476,2.97121-14.66417-37.618-17-36Z" transform="translate(-138.86312 -78.32052)" fill="#ccc"/><path d="M326.49643,492.70048l18.71012-8.93732,12.70288-11.7823,23.16408-.17336,7.47229,9.714,19.72693,6.701-3.28791,68.02184,2.24168,5.2306s-1.56172,1.41086-2.27529,2.19989.986,7.39495.986,7.39495l.95825,7.18685-2.6578,1.899,3.4552,4.08137.85782,6.43346s-60.3126-14.99072-71.70865,9.84277c-.60211,1.312.88058-11.511.88058-11.511l1.48269-9.38742-1.47092-8.42586-2.24169-2.24169,3.75968-3.75967L336.842,547.34828Z" transform="translate(-138.86312 -78.32052)" fill="#ccc"/><path d="M366.24192,464.95255q-.13146-.28941-.26218-.58084c.03359.00108.06684.00591.10043.00679Z" transform="translate(-138.86312 -78.32052)" fill="#2f2e41"/><path d="M350.40584,425.86315a5.70951,5.70951,0,0,1,3.57661-1.54636c1.32645.04275,2.6716,1.2408,2.39678,2.53921a21.08008,21.08008,0,0,1,25.36853-9.51252c3.29686,1.16316,6.52994,3.49016,7.28726,6.90316a6.2171,6.2171,0,0,0,.7832,2.54824,2.909,2.909,0,0,0,3.096.78436l.03255-.00959a.96922.96922,0,0,1,1.17112,1.36819l-.93283,1.73975a7.47548,7.47548,0,0,0,3.56145-.07574.96839.96839,0,0,1,1.02833,1.507A16.87937,16.87937,0,0,1,384.316,439.0269c-3.72716-.02273-7.49272-1.30728-11.12011-.45017a9.65936,9.65936,0,0,0-6.4968,13.55975c-1.11435-1.21886-3.2685-.93029-4.40839.26478a6.04613,6.04613,0,0,0-1.32008,4.62629,21.465,21.465,0,0,0,2.20369,7.20511,21.53985,21.53985,0,0,1-12.76843-38.36951Z" transform="translate(-138.86312 -78.32052)" fill="#2f2e41"/><circle cx="233.40462" cy="80.23877" r="51" fill="#ff6584"/><path d="M464.30315,119.42967c-24.7168-3.34094-52.93512,10.01867-59.34131,34.12353a21.59653,21.59653,0,0,0-41.09351,2.10871l2.82971,2.02667a372.27465,372.27465,0,0,0,160.65882-.72638C510.164,138.89323,489.02,122.77055,464.30315,119.42967Z" transform="translate(-138.86312 -78.32052)" fill="#f0f0f0"/><path d="M358.30315,187.42967c-24.7168-3.34094-52.93512,10.01867-59.34131,34.12353a21.59653,21.59653,0,0,0-41.09351,2.10871l2.82971,2.02667a372.27465,372.27465,0,0,0,160.65882-.72638C404.164,206.89323,383.02,190.77055,358.30315,187.42967Z" transform="translate(-138.86312 -78.32052)" fill="#f0f0f0"/><path d="M450.235,604.84781a8.67875,8.67875,0,0,1,13.14383,2.0831l69.39953-9.23644-5.90052,14.90113L459.904,619.22976a8.72582,8.72582,0,0,1-9.669-14.382Z" transform="translate(-138.86312 -78.32052)" fill="#ffb6b6"/><path d="M592.0836,583.34238s8.165,7.51671.53321,17.67477-46.50829,17.67021-52.73813,19.06861-40.47636-2.17487-40.47636-2.17487l-3.83313-17.07706Z" transform="translate(-138.86312 -78.32052)" fill="#3f3d56"/><path d="M692.91094,716.09562c4.34829-34.96522,26.01783-69.41613,59.36409-80.79477a162.3392,162.3392,0,0,0,.008,111.45681c5.124,13.86033,12.26638,28.74283,7.44655,42.71194-2.99884,8.692-10.3351,15.34209-18.53557,19.50024-8.201,4.15815-17.30233,6.14-26.28979,8.08219l-1.76879,1.46289C698.868,786.29826,688.56265,751.06085,692.91094,716.09562Z" transform="translate(-138.86312 -78.32052)" fill="#e6e6e6"/><path d="M752.60593,635.962a138.75629,138.75629,0,0,0-34.4946,78.092,59.75316,59.75316,0,0,0,.67969,18.70948,34.27108,34.27108,0,0,0,8.52366,15.89566c3.8418,4.221,8.26035,8.09372,11.00919,13.17509a20.98434,20.98434,0,0,1,1.02519,17.13079c-2.427,6.96089-7.21031,12.63461-12.08087,18.02048-5.40781,5.98-11.11959,12.10562-13.41832,20.03349-.27853.96057-1.75272.47223-1.47462-.48689,3.9994-13.79313,17.38888-21.6279,23.77429-34.05118,2.97955-5.79694,4.23018-12.52692,1.4369-18.64618-2.44261-5.351-6.99564-9.34851-10.92248-13.58873a36.57008,36.57008,0,0,1-8.91341-15.232,55.24053,55.24053,0,0,1-1.3965-18.61433,134.61864,134.61864,0,0,1,9.83174-40.9094,141.21681,141.21681,0,0,1,25.3926-40.693c.664-.74351,1.68718.426,1.02754,1.16468Z" transform="translate(-138.86312 -78.32052)" fill="#fff"/><path d="M718.52933,704.65628a20.81787,20.81787,0,0,1-15.84651-21.80748c.07912-.996,1.63061-.91986,1.55138.07748a19.2769,19.2769,0,0,0,14.782,20.25539c.97216.23113.4797,1.70442-.48689,1.47461Z" transform="translate(-138.86312 -78.32052)" fill="#fff"/><path d="M725.08486,746.77549a40.12474,40.12474,0,0,0,17.9181-23.10891c.28192-.95956,1.7562-.47151,1.47462.48689a41.73577,41.73577,0,0,1-18.69429,24.009c-.86112.5108-1.55487-.879-.69843-1.387Z" transform="translate(-138.86312 -78.32052)" fill="#fff"/><path d="M733.70831,662.0483a11.78388,11.78388,0,0,0,11.16717-.56688c.85421-.52146,1.54708.86893.69843,1.387a13.20486,13.20486,0,0,1-12.35249.6545.80255.80255,0,0,1-.49387-.98075.7804.7804,0,0,1,.98076-.49387Z" transform="translate(-138.86312 -78.32052)" fill="#fff"/><path d="M853.9191,697.753c-.52412.34078-1.04825.68156-1.573,1.03545a155.18863,155.18863,0,0,0-19.84252,15.49161c-.48509.43253-.97017.87818-1.44182,1.32375a163.60254,163.60254,0,0,0-35.53107,48.63763,158.87917,158.87917,0,0,0-8.70278,22.51666c-3.21131,10.65545-5.84537,22.46418-12.20207,31.17992a27.25489,27.25489,0,0,1-2.12337,2.62127H715.05733c-.13055-.06552-.26174-.118-.39293-.18351l-2.29361.10487c.09215-.40629.19647-.8257.28862-1.232.05248-.2359.11775-.47181.17023-.70771.039-.15727.07871-.31462.10495-.45877.0128-.0524.02624-.10479.039-.14415.02624-.14415.06592-.27526.09215-.40629q.86491-3.519,1.78229-7.03809c0-.01312,0-.01312.01279-.02624,4.70561-17.86393,10.94391-35.49195,19.65949-51.61272.26238-.48492.52413-.983.81275-1.4679a151.60582,151.60582,0,0,1,13.61765-20.65558,134.02833,134.02833,0,0,1,8.92548-10.2098,111.45208,111.45208,0,0,1,27.89-20.89148c20.60343-10.87824,44.45655-15.046,66.47556-8.40112C852.80494,697.39919,853.35594,697.5695,853.9191,697.753Z" transform="translate(-138.86312 -78.32052)" fill="#e6e6e6"/><path d="M853.79,698.4821a138.75635,138.75635,0,0,0-74.5588,41.584,59.75312,59.75312,0,0,0-10.7217,15.3477,34.27116,34.27116,0,0,0-2.76462,17.82363c.52613,5.68325,1.72245,11.43567.85791,17.14786a20.98429,20.98429,0,0,1-9.49536,14.2952c-6.12872,4.0967-13.36394,5.74693-20.49547,7.11484-7.9182,1.51879-16.1668,2.9709-22.77533,7.91686-.80071.59927-1.68376-.67821-.88426-1.27658,11.49772-8.60512,26.90554-6.79935,39.48361-12.87419,5.86916-2.83464,10.91963-7.45519,12.37356-14.02282,1.27141-5.74312.04283-11.67612-.53963-17.42593a36.56989,36.56989,0,0,1,2.05387-17.52839A55.24055,55.24055,0,0,1,776.41582,740.881a134.61857,134.61857,0,0,1,32.48038-26.74448,141.21677,141.21677,0,0,1,44.77454-17.203c.97779-.19389,1.09062,1.356.11922,1.54859Z" transform="translate(-138.86312 -78.32052)" fill="#fff"/><path d="M785.223,732.81418a20.81788,20.81788,0,0,1,.47706-26.95275c.66285-.74763,1.85577.24728,1.192.9959a19.27691,19.27691,0,0,0-.39253,25.07259c.63706.76985-.64316,1.6497-1.27657.88426Z" transform="translate(-138.86312 -78.32052)" fill="#fff"/><path d="M765.09854,770.39088a40.12474,40.12474,0,0,0,28.21977-7.66323c.80281-.59642,1.6861.68088.88426,1.27658a41.73584,41.73584,0,0,1-29.38144,7.9146c-.99508-.11061-.71227-1.63795.27741-1.52795Z" transform="translate(-138.86312 -78.32052)" fill="#fff"/><path d="M822.9955,707.93288a11.78392,11.78392,0,0,0,9.25766,6.27079c.996.09794.71211,1.62524-.27741,1.52794a13.20486,13.20486,0,0,1-10.25683-6.91447.80254.80254,0,0,1,.19616-1.08041.78038.78038,0,0,1,1.08042.19615Z" transform="translate(-138.86312 -78.32052)" fill="#fff"/><path d="M935.35016,689.1053a41.362,41.362,0,0,1-53.44792.99995l-.16-.13138-.00549-.20568a39.63019,39.63019,0,0,0-1.5888-10.11444,28.311,28.311,0,0,1-1.028,7.001l-.20613.76772-.55276-.57064c-.47739-.49228-.93943-.99235-1.37333-1.48566a41.71119,41.71119,0,0,1-6.3529-9.62011c-7.53973-15.84148-18.89106-29.99012-33.73824-42.05272a59.03426,59.03426,0,0,1-7.07786-6.81046A58.3509,58.3509,0,0,1,903.09335,537.985l.3646.21345-.18932.37738a30.395,30.395,0,0,1-5.42318,7.82273,39.63926,39.63926,0,0,0,8.35231-6.03434l.26495-.24987.30025.207a58.59918,58.59918,0,0,1,10.67066,9.49831l.34015.39a26.04878,26.04878,0,0,0,19.28884,8.90122A41.34911,41.34911,0,0,1,977.102,607.55423l-.04684.27318-.26572.0805c-5.59427,1.70281-10.24575,2.28855-14.45108,1.8031a40.31068,40.31068,0,0,0,12.87187,3.22393l.57345.04551-.182.546a41.32156,41.32156,0,0,1-11.9259,17.98117l-.157.13736c-.05566.04824-.11137.09724-.16668.14589A40.60459,40.60459,0,0,0,949.3245,659.975,41.66534,41.66534,0,0,1,935.35016,689.1053Z" transform="translate(-138.86312 -78.32052)" fill="#6c63ff"/><path d="M942.87771,675.81254a41.24123,41.24123,0,0,1-.465,4.4462,41.80263,41.80263,0,0,0,6.72042-20.71019c.05483-1.12914.17334-2.25391.33232-3.37365A39.2308,39.2308,0,0,0,942.87771,675.81254Z" transform="translate(-138.86312 -78.32052)" opacity="0.15"/><path d="M955.89169,625.54864A40.24941,40.24941,0,0,0,966.1778,628.457a41.39342,41.39342,0,0,0,3.769-4.59853C964.53133,625.46777,959.99572,626.02237,955.89169,625.54864Z" transform="translate(-138.86312 -78.32052)" opacity="0.15"/><path d="M971.05016,611.9683a41.60126,41.60126,0,0,1-.29429,10.73037,41.12371,41.12371,0,0,0,4.65442-9.59857l.18205-.546-.57347-.04552A39.96683,39.96683,0,0,1,971.05016,611.9683Z" transform="translate(-138.86312 -78.32052)" opacity="0.15"/><path d="M967.22362,572.71889a41.4464,41.4464,0,0,0-30.35236-14.03437,26.04894,26.04894,0,0,1-19.28891-8.90124l-.3401-.39a58.60063,58.60063,0,0,0-10.67066-9.49831l-.30024-.207-.265.24985a39.63758,39.63758,0,0,1-8.35237,6.03432,30.39637,30.39637,0,0,0,5.42336-7.82274l.18922-.37737-.36454-.21342a58.30751,58.30751,0,0,0-86.38737,37.748,58.31827,58.31827,0,0,1,80.132-21.484l.36454.21342-.18922.37737a30.39632,30.39632,0,0,1-5.42337,7.82274,39.63758,39.63758,0,0,0,8.35237-6.03432l.265-.24985.30025.207a58.60024,58.60024,0,0,1,10.67065,9.49831l.34011.39a26.04889,26.04889,0,0,0,19.28891,8.90125,41.35622,41.35622,0,0,1,39.997,33.98937,50.12008,50.12008,0,0,0,5.98507-1.45641l.26573-.08048.047-.27314A41.19017,41.19017,0,0,0,967.22362,572.71889Z" transform="translate(-138.86312 -78.32052)" opacity="0.15"/><path d="M1054.28786,402.442A133.18185,133.18185,0,0,1,943.0448,533.792l-.65783.10733-.50894-.42412a127.60579,127.60579,0,0,0-27.83284-17.66774,91.16044,91.16044,0,0,1,14.74043,17.37345l1.41778,2.131-2.55512.12291c-2.20544.10733-4.397.161-6.51245.161a134.30541,134.30541,0,0,1-36.76884-5.09812c-54.33445-15.45884-112.68162-18.10225-173.41946-7.85753A190.0824,190.0824,0,0,1,679.43,525.26969c-103.563,0-187.818-84.27231-187.818-187.8552A187.55676,187.55676,0,0,1,620.32116,159.0631l1.29141-.42759.50982,1.26025a97.86864,97.86864,0,0,1,7.3806,29.74745,127.63308,127.63308,0,0,0,3.17226-33.02618l-.04068-1.172,1.13907-.28563A188.68344,188.68344,0,0,1,679.43,149.55929l1.6662.00692a83.87459,83.87459,0,0,0,62.53992-27.70647,133.14021,133.14021,0,0,1,202.27019,6.213l.56088.69418-.37046.81362C938.31713,146.72718,929.8416,159.2189,919.725,168.354a129.79747,129.79747,0,0,0,35.16757-24.265l1.32949-1.28968.93307,1.60128a133.05124,133.05124,0,0,1,18.11264,67.072l-.00173.67167c-.00174.23716-.00174.47605-.00174.71322,0,36.05043,13.94066,70.21914,38.31127,93.85057A134.1584,134.1584,0,0,1,1054.28786,402.442Z" transform="translate(-138.86312 -78.32052)" fill="#6c63ff"/><g opacity="0.15"><path d="M891.50162,87.77321A94.06135,94.06135,0,0,1,874.725,108.354a129.46842,129.46842,0,0,0,26.21253-16.38311Q896.30442,89.68853,891.50162,87.77321Z" transform="translate(-138.86312 -78.32052)"/><path d="M968.5756,246.708a133.687,133.687,0,0,1,19.146,23.32471,136.099,136.099,0,0,1-12.45727-57.1753c0-.23718,0-.47607.00171-.71319l.00171-.6717a133.05216,133.05216,0,0,0-18.11255-67.072l-.93311-1.60131-1.32959,1.28967a130.0968,130.0968,0,0,1-24.28515,18.49231C932.87382,194.99886,946.40812,225.21291,968.5756,246.708Z" transform="translate(-138.86312 -78.32052)"/><path d="M930.26774,151.47255l-.00171.6717c-.00171.23712-.00171.476-.00171.71319,0,1.307.02368,2.61072.06018,3.91242a138.67266,138.67266,0,0,0,15.77234-27.18933l.37036-.81366-.56079-.69416a134.232,134.232,0,0,0-24.08814-23.29712A133.3534,133.3534,0,0,1,930.26774,151.47255Z" transform="translate(-138.86312 -78.32052)"/><path d="M1013.5756,306.708a120.38617,120.38617,0,0,1-16.97071-20.64716,133.01843,133.01843,0,0,1-98.56,187.73108l-.65784.10736-.50891-.42413a127.61119,127.61119,0,0,0-27.83289-17.66773,91.15765,91.15765,0,0,1,14.74036,17.37342l1.41785,2.131-2.55506.12286c-2.20556.10736-4.39709.161-6.51245.161a134.30478,134.30478,0,0,1-36.76892-5.09814c-54.33447-15.4588-112.68164-18.10223-173.41943-7.85748a190.08607,190.08607,0,0,1-31.51746,2.62951A187.02643,187.02643,0,0,1,509.64664,417.684c30.14942,63.53949,94.91651,107.58563,169.78345,107.58563a190.08607,190.08607,0,0,0,31.51746-2.62951c60.73779-10.24475,119.085-7.60132,173.41943,7.85748a134.30478,134.30478,0,0,0,36.76892,5.09814c2.11536,0,4.30689-.05365,6.51245-.161l2.55506-.12286-1.41785-2.131a91.15765,91.15765,0,0,0-14.74036-17.37342,127.61119,127.61119,0,0,1,27.83289,17.66773l.50891.42413.65784-.10736A133.08258,133.08258,0,0,0,1013.5756,306.708Z" transform="translate(-138.86312 -78.32052)"/></g><path d="M386.92647,368.74562c-7.16724-7.72262-10.88415-19.31128-7.073-29.13375a48.54359,48.54359,0,0,0,25.515,21.44229c4.1586,1.49378,8.93951,2.7222,11.20983,6.51314a10.85147,10.85147,0,0,1,.89755,7.99477,32.22792,32.22792,0,0,1-3.208,7.573l-.00545.68634C404.14258,380.88889,394.0937,376.46824,386.92647,368.74562Z" transform="translate(-138.86312 -78.32052)" fill="#6c63ff"/><path d="M742.92647,592.74562c-7.16724-7.72262-10.88415-19.31128-7.073-29.13375a48.54359,48.54359,0,0,0,25.515,21.44229c4.1586,1.49378,8.93951,2.7222,11.20983,6.51314a10.85147,10.85147,0,0,1,.89755,7.99477,32.22792,32.22792,0,0,1-3.208,7.573l-.00545.68634C760.14258,604.88889,750.0937,600.46824,742.92647,592.74562Z" transform="translate(-138.86312 -78.32052)" fill="#6c63ff"/><path d="M910.79391,737.319c-5.00686-9.27035-5.70581-21.4204.44186-29.97679a48.54355,48.54355,0,0,0,19.338,27.14458c3.65254,2.48683,7.974,4.87247,9.2235,9.1109a10.85145,10.85145,0,0,1-1.13146,7.965,32.22762,32.22762,0,0,1-5.00091,6.52933l-.177.66315C924.42385,753.3838,915.80078,746.58934,910.79391,737.319Z" transform="translate(-138.86312 -78.32052)" fill="#6c63ff"/><path d="M1031.79391,558.319c-5.00686-9.27035-5.70581-21.4204.44186-29.97679a48.54355,48.54355,0,0,0,19.338,27.14458c3.65254,2.48683,7.974,4.87247,9.2235,9.1109a10.85145,10.85145,0,0,1-1.13146,7.965,32.22762,32.22762,0,0,1-5.00091,6.52933l-.177.66315C1045.42385,574.3838,1036.80078,567.58934,1031.79391,558.319Z" transform="translate(-138.86312 -78.32052)" fill="#6c63ff"/><path d="M240.79391,627.319c-5.00686-9.27035-5.70581-21.4204.44186-29.97679a48.54355,48.54355,0,0,0,19.338,27.14458c3.65254,2.48683,7.974,4.87247,9.2235,9.1109a10.85145,10.85145,0,0,1-1.13146,7.965,32.22762,32.22762,0,0,1-5.00091,6.52933l-.177.66315C254.42385,643.3838,245.80078,636.58934,240.79391,627.319Z" transform="translate(-138.86312 -78.32052)" fill="#6c63ff"/><path d="M999.34782,821.67948H140.0538a1.19069,1.19069,0,0,1,0-2.38137h859.294a1.19069,1.19069,0,0,1,0,2.38137Z" transform="translate(-138.86312 -78.32052)" fill="#ccc"/></svg>
