<?xml version="1.0" encoding="utf-8"?>
<!-- Uploaded to: SVG Repo, www.svgrepo.com, Generator: SVG Repo Mixer Tools -->
<svg width="800px" height="800px" viewBox="0 -0.5 1025 1025" class="icon"  version="1.1" xmlns="http://www.w3.org/2000/svg"><path d="M718.88904 354.095797l-29.069388 125.914964-277.869357-64.150648 29.068387-125.913962zM679.157239 525.990663l-29.069388 125.913963-277.869356-64.149647 29.068387-125.914963zM361.600125 633.737885l277.869357 64.151648-22.675144 103.556129-293.706823-0.005005z" fill="#FFC200" /><path d="M706.249697 235.361846l-15.221865 65.931386-203.843066-47.059957 15.221865-65.932387z" fill="#E0E7EA" /><path d="M659.720258 680.477529c0.990968-4.291191 5.313189-6.991828 9.604379-6.001861 4.291191 0.990968 6.991828 5.313189 6.000861 9.604379l-32.656892 143.680313c-0.833814 3.608524-4.112016 6.242096-7.803621 6.211065l-341.273274 0.006006c-5.146025 0.044043-8.972762-4.742631-7.801619-9.814584l89.663562-388.373271c0.990968-4.291191 5.312188-6.991828 9.603378-6.00086s6.991828 5.312188 6.001861 9.603378l-87.389341 378.522651 324.737126-0.022022 31.31358-137.415194zM429.112055 274.563128L399.299941 403.694233c-0.990968 4.291191-5.313189 6.991828-9.604379 6.00086s-6.991828-5.312188-6.00086-9.603378L415.308575 263.156989c0.990968-4.291191 5.312188-6.991828 9.604379-6.00086l323.513932 74.688938c4.291191 0.990968 6.991828 5.313189 6.00086 9.60438l-71.176508 308.299073c-0.990968 4.291191-5.312188 6.991828-9.603379 6.001861s-6.991828-5.313189-6.001861-9.604379l69.37575-300.496454-307.909693-71.08642z" fill="" /><path d="M699.526131 318.501036l19.58913-84.852864c1.486452-6.437286-2.564504-12.919617-9.00079-14.406068l-204.135351-47.128024c-6.436285-1.486452-12.919617 2.564504-14.406068 9.001791l-19.58913 84.852864 227.542209 52.532301zM509.581638 156.508841l204.037255 47.106002c15.117763 3.489408 24.49392 18.496063 21.004513 33.612825l-21.39089 92.656484c-0.990968 4.291191-5.313189 6.991828-9.604379 6.000861L460.577783 279.773216c-4.291191-0.990968-6.991828-5.312188-6.00086-9.603378l21.390889-92.655484c3.490409-15.117763 18.594158-24.471898 33.613826-21.004512zM316.121713 606.903679c-4.292192-0.990968-6.992829-5.312188-6.001862-9.603378s5.313189-6.991828 9.60438-6.00086l373.938174 86.330307c4.292192 0.990968 6.991828 5.312188 6.001861 9.603378s-5.313189 6.992829-9.604379 6.001861L316.121713 606.902678zM355.841501 434.857666c-4.291191-0.990968-6.991828-5.313189-6.00086-9.60438s5.312188-6.991828 9.603379-6.00086l373.939175 86.330307c4.291191 0.990968 6.991828 5.312188 6.00086 9.603378s-5.312188 6.992829-9.60438 6.001862l-373.938174-86.330307z" fill="" /><path d="M394.053818 265.33912c-4.292192-0.990968-6.992829-5.313189-6.001861-9.604379 0.990968-4.291191 5.313189-6.991828 9.604379-6.00086l373.938174 86.330307c4.291191 0.990968 6.991828 5.312188 6.001861 9.603378-0.990968 4.292192-5.313189 6.992829-9.604379 6.001861L394.053818 265.33912zM545.614827 341.72972c-4.291191-0.990968-6.991828-5.312188-6.001861-9.604379s5.313189-6.991828 9.604379-6.00086l186.969588 43.165153c4.291191 0.990968 6.991828 5.313189 6.00086 9.60438s-5.312188 6.991828-9.60438 6.00086l-186.968586-43.165154zM338.586651 658.21679c-4.291191-0.990968-6.991828-5.312188-6.00086-9.603378s5.312188-6.992829 9.603378-6.001862l186.969588 43.165154c4.291191 0.990968 6.991828 5.313189 6.001861 9.604379s-5.313189 6.991828-9.604379 6.00086l-186.969588-43.165153z" fill="" /><path d="M454.705048 441.840485l9.705478-42.036051c3.73765-16.190811 19.82436-26.242628 35.917075-22.526999s26.144532 19.801337 22.428903 35.895054l-9.704477 42.036051M578.083535 470.324301l9.727499-42.133146c3.715629-16.093717 19.801337-26.145533 35.895054-22.429904 16.092716 3.715629 26.144532 19.802338 22.428903 35.895054l-9.704477 42.036051" fill="#FFFFFF" /><path d="M462.507668 443.642244l-15.60524-3.603519 9.705478-42.036051c4.728618-20.482002 25.136547-33.234456 45.520454-28.527859s33.137361 25.114526 28.430764 45.498432l-9.704477 42.036051-15.605239-3.602518 9.704477-42.036051c2.724661-11.801525-4.626518-23.567015-16.428043-26.290674s-23.566014 4.626518-26.290675 16.428043l-9.727499 42.134146zM582.381732 473.063977l-15.605239-3.60352 9.705478-42.03605c4.728618-20.482002 25.114526-33.137361 45.498432-28.430765 20.482002 4.728618 33.137361 25.114526 28.430764 45.498432l-9.704477 42.037052-15.605239-3.603519 9.704477-42.036051c2.724661-11.801525-4.626518-23.566014-16.428043-26.290674-11.801525-2.724661-23.566014 4.626518-26.290675 16.428043l-9.705478 42.037052z" fill="" /><path d="M512.748731 275.738276l7.633455-33.063289c2.926858-12.679382 15.750381-20.608125 28.722049-17.614201 12.873572 2.972903 21.020528 15.743374 18.093669 28.421756l-7.633454 33.063288" fill="#FF684C" /><path d="M512.74911 275.738061L520.382405 242.674627C523.309627 229.995434 536.13239 222.066345 549.10418 225.061118c12.874257 2.972257 21.020929 15.742522 18.093706 28.421715l-7.633295 33.063433" fill="" /><path d="M520.551351 277.539034l-15.60524-3.602518 7.633455-33.062287c3.940848-17.068669 21.062569-27.600954 38.325427-23.616063 17.166764 3.963871 28.035378 20.957466 24.095531 38.026135l-7.633455 33.063288-15.605239-3.603519 7.633454-33.062287c1.838796-8.410213-3.509427-16.836442-12.091808-18.818377s-17.181779 3.22515-19.118671 11.61234l-7.633454 33.063288z" fill="" /><path d="M611.841501 298.615617l7.633455-33.063289c2.926858-12.679382 15.750381-20.608125 28.722049-17.614201 12.873572 2.972903 21.020528 15.743374 18.093669 28.421756l-7.633454 33.063288" fill="#FF684C" /><path d="M611.841879 298.615429L619.475174 265.551995c2.927222-12.679193 15.749985-20.608283 28.721775-17.613508 12.874257 2.972257 21.020929 15.742522 18.093706 28.421714l-7.633295 33.063434" fill="" /><path d="M619.645122 300.416375l-15.605239-3.602518 7.632453-33.062287c3.940848-17.068669 21.062569-27.600954 38.325427-23.616063 17.166764 3.963871 28.035378 20.957466 24.095531 38.026135l-7.633454 33.063289-15.60524-3.603519 7.633455-33.062288c1.935891-8.388192-3.412332-16.81442-12.091809-18.818377-8.583382-1.981935-17.181779 3.22515-19.11867 11.61234l-7.633455 33.063288z" fill="" /><path d="M414.988262 613.874487l9.704477-42.036051c3.73765-16.190811 19.82436-26.242628 35.917075-22.528s26.145533 19.802338 22.429904 35.895054l-9.704477 42.037052M538.365748 642.358303l9.727499-42.134147c3.715629-16.092716 19.802338-26.144532 35.895054-22.428903 16.092716 3.714628 26.145533 19.801337 22.429904 35.895054l-9.705478 42.036051" fill="#FFFFFF" /><path d="M422.790882 615.675245l-15.60524-3.602518 9.704477-42.036051c4.728618-20.482002 25.137548-33.234456 45.521455-28.527859s33.13636 25.114526 28.430764 45.498432l-9.704477 42.036051-15.605239-3.603519 9.704477-42.03505c2.724661-11.801525-4.626518-23.567015-16.428043-26.291675-11.801525-2.72366-23.566014 4.627519-26.290675 16.429044l-9.727499 42.133145zM545.680891 644.046952l-15.605239-3.602518 9.7275-42.134147c4.706596-20.383906 25.114526-33.13636 45.499433-28.430764 20.481001 4.728618 33.13636 25.114526 28.430764 45.499433l-9.705478 42.036051-15.60524-3.603519 9.705478-42.036051c2.724661-11.801525-4.627519-23.566014-16.429044-26.290675-11.801525-2.724661-23.566014 4.627519-26.290674 16.429044l-9.7275 42.133146z" fill="" /><path d="M366.942342 821.981717l15.897525-68.857244c3.715629-16.093717 19.801337-26.145533 35.895054-22.429904 16.092716 3.715629 26.144532 19.801337 22.428903 35.895054l-12.924622 55.98267" fill="#FFFFFF" /><path d="M496.512876 823.64434l9.705478-42.036051c3.714628-16.092716 19.801337-26.145533 35.895054-22.429904 16.091715 3.715629 26.144532 19.802338 22.428903 35.895054l-6.822663 29.551859" fill="#FFFFFF" /><path d="M374.745963 823.783476l-15.60524-3.603519 15.895523-68.857243c4.706596-20.383906 25.114526-33.137361 45.499433-28.430765s33.137361 25.114526 28.430765 45.498432l-12.924622 55.983672-15.605239-3.603519 12.924621-55.982671c2.724661-11.801525-4.626518-23.566014-16.428043-26.290674s-23.566014 4.626518-26.290674 16.428043l-15.897525 68.857243zM503.82802 825.332989l-15.60524-3.602518 9.705478-42.036051c4.705595-20.384907 25.114526-33.137361 45.498432-28.430764s33.13636 25.114526 28.430765 45.498432l-6.822663 29.551859-15.60524-3.602518 6.822663-29.551859c2.724661-11.801525-4.627519-23.566014-16.428043-26.290675s-23.567015 4.626518-26.291675 16.428043l-9.704477 42.036051z" fill="" /><path d="M218.213099 835.21564c-4.404301 0-8.00782-3.603519-8.00782-8.00782s3.603519-8.00782 8.00782-8.00782h574.460997c4.404301 0 8.00782 3.603519 8.00782 8.00782s-3.603519 8.00782-8.00782 8.00782H218.213099z" fill="" /></svg>