<?xml version="1.0" encoding="utf-8"?>
<!-- Uploaded to: SVG Repo, www.svgrepo.com, Generator: SVG Repo Mixer Tools -->
<svg width="800px" height="800px" viewBox="0 0 1024 1024" class="icon"  version="1.1" xmlns="http://www.w3.org/2000/svg"><path d="M576.936585 669.278907c70.933229-3.913678 123.347044-7.115551 157.241444-9.603122 50.840351-3.731356 64.599415 17.52039 65.286244 35.013308 0.686829 17.495415-36.436917 43.487532-44.106927 46.522068-7.667512 3.034537-29.361327-4.637971-15.245112-16.561327s49.33682-40.33561 0-40.33561c-32.892878 0-87.282263 15.207649-163.175649 45.620449v-60.655766z" fill="#F6BD4E" /><path d="M584.429268 718.897951c71.390283-28.032624 123.107278-42.078907 155.682966-42.078907 17.303102 0 27.675473 3.234341 31.551688 11.38638 3.561522 7.497678 0.322185 15.16519-7.000663 23.72683-2.584976 3.027044-5.686946 6.144-9.360859 9.493229a219.995161 219.995161 0 0 1-5.567063 4.897717c-0.779239 0.669346-1.565971 1.3312-2.537522 2.1504l-2.2528 1.898146a11.338927 11.338927 0 0 0-1.6384 1.643395c0.107395 0.08242 0.229776 0.167337 0.367141 0.259747 2.647415 1.735805 7.48519 2.54002 8.923785 1.970575 3.663922-1.448585 14.55079-8.958751 22.952586-16.461424 10.46478-9.340878 16.611278-18.017405 16.421463-22.800234-0.3072-7.827356-3.711376-14.688156-10.692058-19.655805-9.323395-6.638517-24.618459-9.790439-46.557034-8.179512-32.805463 2.407649-82.899044 5.479649-150.29323 9.218497v42.530966z m-7.90478-57.101736c70.890771-3.913678 123.264624-7.108059 157.104078-9.593132 47.446166-3.484098 72.221971 14.153678 73.320897 42.193795 0.424585 10.829424-7.749932 22.365659-21.416585 34.566244-9.60562 8.576624-21.826185 17.005893-27.420722 19.216234-6.331317 2.505054-16.184195 0.871649-22.657873-3.376702-9.580644-6.286361-10.364878-17.270634-0.174829-25.879727l2.26279-1.908137c0.946576-0.794224 1.708332-1.441093 2.4576-2.082966a214.355668 214.355668 0 0 0 5.204917-4.580526c3.251824-2.964605 5.941698-5.664468 8.067122-8.157035 3.763824-4.400702 4.982634-7.285385 4.852761-7.555122-0.039961-0.08242-0.739278-0.586927-2.759805-1.218809-3.306771-1.028995-8.384312-1.613424-15.252605-1.613425-31.664078 0-85.331668 15.005346-160.390868 45.083473L569.443902 741.003863v-78.818029l7.080586-0.389619z" fill="#524F75" /><path d="M751.346263 731.817834a20.100371 20.100371 0 0 1-0.84917 26.821307l-29.221464 30.582635 1.783259-27.048586-33.956839 13.871454 19.928039-26.179434-19.908059-9.393327 34.146654-15.140215a23.989073 23.989073 0 0 1 28.07758 6.486166z" fill="#B57D47" /><path d="M745.044917 754.363317a12.602693 12.602693 0 0 0 1.118907-16.7936 16.493893 16.493893 0 0 0-19.138809-5.132488l-19.458498 7.827356 5.010107 2.579981a7.492683 7.492683 0 0 1 2.365191 11.401366l-3.431649 4.200897 8.631571-3.179395c5.197424-1.915629 10.602146 2.275278 10.04519 7.784898l-0.649366 6.448702 15.507356-15.137717z m-58.89998-8.274419c-5.701932-2.942127-5.31481-11.219044 0.636878-13.614205l34.648663-13.936391a31.479259 31.479259 0 0 1 36.531824 9.792937 27.590556 27.590556 0 0 1-2.447609 36.759102l-30.275434 29.541152c-5.010107 4.887727-13.389424 0.849171-12.68761-6.116527l1.521014-15.040312-23.169873 8.534166c-7.160507 2.637424-13.21959-5.869268-8.389307-11.776l14.97038-18.304625-11.338926-5.839297z" fill="#524F75" /><path d="M348.142517 621.697873l59.479415 19.218732 16.51637 48.25038c8.067122 23.566985-4.49561 49.209444-28.062595 57.279064a45.053502 45.053502 0 0 1-14.608234 2.432624h-22.932605a49.95122 49.95122 0 0 1-48.789853-39.244175l-9.713015-44.256781c-4.435668-20.207766 8.351844-40.188254 28.55961-44.621424a37.445932 37.445932 0 0 1 19.550907 0.94158z" fill="#F6BD4E" /><path d="M401.750166 646.893268l-55.9104-18.064858a29.965737 29.965737 0 0 0-15.639727-0.756761c-16.16921 3.551532-26.396722 19.533424-22.847688 35.700136l9.713015 44.256781a42.458537 42.458537 0 0 0 41.472 33.354927h22.932605c4.145951 0 8.259434-0.686829 12.180605-2.02802 19.65081-6.725932 30.128078-28.110049 23.402146-47.760858l-15.302556-44.701347z m-51.304898-32.325931l63.050927 20.372604 17.732683 51.801913c9.408312 27.483161-5.244878 57.386459-32.725541 66.792273a52.561171 52.561171 0 0 1-17.033366 2.837229h-22.932605a57.443902 57.443902 0 0 1-56.107707-45.128429l-9.715513-44.256781c-5.322302-24.251317 10.020215-48.227902 34.271532-53.547707a44.918634 44.918634 0 0 1 23.45959 1.128898z" fill="#524F75" /><path d="M344.173893 707.424156h48.337795c14.952898 0 27.073561 12.123161 27.073561 27.073561s-12.123161 27.073561-27.073561 27.073561h-48.337795c-14.952898 0-27.073561-12.123161-27.073561-27.073561 0-14.952898 12.120663-27.073561 27.073561-27.073561z" fill="#F6BD4E" /><path d="M324.593015 734.497717a19.580878 19.580878 0 0 0 19.580878 19.580878h48.337795a19.580878 19.580878 0 1 0 0-39.161756h-48.337795a19.580878 19.580878 0 0 0-19.580878 19.580878z m19.580878-34.566244h48.337795c19.091356 0 34.566244 15.474888 34.566244 34.566244s-15.477385 34.566244-34.566244 34.566244h-48.337795c-19.091356 0-34.566244-15.477385-34.566244-34.566244s15.474888-34.566244 34.566244-34.566244z" fill="#524F75" /><path d="M342.215805 737.082693v19.960507a7.492683 7.492683 0 0 0 14.985366 0v-19.960507a7.492683 7.492683 0 0 0-14.985366 0z" fill="#524F75" /><path d="M633.398946 621.697873l-59.481912 19.218732-16.516371 48.25038c-8.067122 23.566985 4.498107 49.209444 28.062596 57.279064a45.080976 45.080976 0 0 0 14.610731 2.432624h22.932605a49.95122 49.95122 0 0 0 48.789854-39.244175l9.713014-44.256781c4.435668-20.207766-8.354341-40.188254-28.559609-44.621424a37.448429 37.448429 0 0 0-19.550908 0.94158z" fill="#F6BD4E" /><path d="M635.701698 628.82841a29.965737 29.965737 0 0 1 15.639726-0.756761c16.16921 3.551532 26.396722 19.533424 22.847688 35.700136l-9.713014 44.259278a42.461034 42.461034 0 0 1-41.472 33.354927h-22.932605c-4.145951 0-8.261932-0.686829-12.180605-2.028019-19.653307-6.725932-30.130576-28.110049-23.404644-47.760859l15.305054-44.703844 55.9104-18.064858z m-4.605503-14.261073l-63.050927 20.370107-17.732683 51.801912c-9.408312 27.483161 5.244878 57.386459 32.728039 66.792273a52.548683 52.548683 0 0 0 17.033366 2.83723h22.932605a57.443902 57.443902 0 0 0 56.107707-45.12843l9.713015-44.254283c5.3248-24.251317-10.022712-48.227902-34.271532-53.547707a44.918634 44.918634 0 0 0-23.45959 1.128898z" fill="#524F75" /><path d="M637.367571 707.424156h-48.337795c-14.952898 0-27.076059 12.123161-27.076059 27.073561s12.123161 27.073561 27.073561 27.073561h48.340293c14.952898 0 27.073561-12.123161 27.073561-27.073561 0-14.952898-12.120663-27.073561-27.073561-27.073561z" fill="#F6BD4E" /><path d="M637.367571 714.916839a19.580878 19.580878 0 0 1 0 39.161756h-48.337795a19.580878 19.580878 0 1 1 0-39.161756h48.337795z m0-14.985366h-48.337795c-19.091356 0-34.568741 15.474888-34.568742 34.566244s15.477385 34.566244 34.566244 34.566244h48.340293c19.091356 0 34.566244-15.477385 34.566244-34.566244s-15.474888-34.566244-34.566244-34.566244z" fill="#524F75" /><path d="M639.325659 737.082693v19.960507a7.49518 7.49518 0 0 1-14.985366 0v-19.960507a7.492683 7.492683 0 0 1 14.985366 0z" fill="#524F75" /><path d="M364.643902 541.970732h249.756098v154.84878c0 27.588059-22.363161 49.95122-49.95122 49.95122h-149.853658c-27.588059 0-49.95122-22.363161-49.95122-49.95122v-154.84878z" fill="#F6BD4E" /><path d="M372.136585 696.819512c0 23.4496 19.008937 42.458537 42.458537 42.458537h149.853658c23.4496 0 42.458537-19.008937 42.458537-42.458537v-147.356097h-234.770732v147.356097z m249.756098-162.341463v162.341463c0 31.726517-25.717385 57.443902-57.443903 57.443903h-149.853658c-31.726517 0-57.443902-25.717385-57.443902-57.443903v-162.341463h264.741463z" fill="#524F75" /><path d="M467.021424 634.380488h42.513483c23.42962 0 42.426068 18.993951 42.426069 42.423571 0 3.3792-0.404605 6.743415-1.19883 10.025209l-1.004019 4.125971A63.270712 63.270712 0 0 1 488.278166 739.278049a63.270712 63.270712 0 0 1-61.479961-48.32281l-1.001522-4.125971c-5.534595-22.767766 8.434263-45.712859 31.202029-51.249951a42.481015 42.481015 0 0 1 10.022712-1.198829z" fill="#FFE281" /><path d="M443.317073 772.942673c-22.6304 0-40.760195-17.652761-47.371239-44.306732l-3.633951-51.509697a7.492683 7.492683 0 0 0-14.9504 1.053971l3.723863 52.763473 0.144859 0.601912c7.974712 33.170107 31.596644 56.382439 62.086868 56.382439 29.973229 0 45.24082-19.443512 52.566166-56.684644l0.064937-0.382127 1.858185-12.952351a7.492683 7.492683 0 0 0-14.835512-2.127922l-1.828215 12.757542c-6.114029 30.9248-16.741151 44.404137-37.825561 44.404136z" fill="#524F75" /><path d="M419.228098 749.785288h48.175453c14.975376 0 27.113522 12.138146 27.113522 27.111024s-12.138146 27.111024-27.111024 27.111025h-48.177951c-14.972878 0.002498-27.111024-12.138146-27.111025-27.111025s12.138146-27.111024 27.111025-27.111024z" fill="#F6BD4E" /><path d="M419.228098 757.277971c-10.83442 0-19.618341 8.781424-19.618342 19.618341s8.783922 19.618341 19.618342 19.618342h48.175453a19.618341 19.618341 0 0 0 0-39.236683h-48.175453z m0-14.985366h48.175453c19.111337 0 34.606205 15.492371 34.606205 34.603707s-15.494868 34.603707-34.603707 34.603708h-48.177951c-19.108839 0.002498-34.603707-15.489873-34.603708-34.603708s15.494868-34.603707 34.603708-34.603707z" fill="#524F75" /><path d="M417.205073 779.48878v19.985483a7.492683 7.492683 0 1 0 14.985366 0V779.48878a7.492683 7.492683 0 0 0-14.985366 0zM454.443707 779.48878v19.985483a7.492683 7.492683 0 1 0 14.985366 0V779.48878a7.492683 7.492683 0 0 0-14.985366 0z" fill="#524F75" /><path d="M588.725073 673.604683a7.492683 7.492683 0 1 1 14.910439 1.511024l-5.789346 57.181659-0.127376 0.507005c-8.209483 33.549737-27.073561 53.245502-57.141697 53.245502-15.829541 0-27.840312-6.071571-36.327025-17.672741-6.815844-9.313405-11.17159-21.636371-14.67317-39.041873l-5.369757-19.585874a7.492683 7.492683 0 1 1 14.453386-3.961131l5.439688 19.833131 0.12238 0.512c6.398751 31.96878 15.879493 44.928624 36.359493 44.928625 22.008507 0 35.687649-14.148683 42.463532-41.324644l5.679453-56.132683z" fill="#524F75" /><path d="M521.151063 753.446712h49.13202c14.710634 0 26.63399 11.923356 26.63399 26.631493 0 14.710634-11.923356 26.63399-26.63399 26.63399h-49.13202C506.440429 806.712195 494.517073 794.788839 494.517073 780.078205c0-14.708137 11.923356-26.631493 26.63399-26.631493z" fill="#F6BD4E" /><path d="M521.151063 760.939395a19.13881 19.13881 0 1 0 0 38.280117h49.13202a19.141307 19.141307 0 0 0 0-38.280117h-49.13202z m0-14.985366h49.13202c18.849093 0 34.126673 15.27758 34.126673 34.124176 0 18.849093-15.27758 34.126673-34.126673 34.126673h-49.13202C502.301971 814.204878 487.02439 798.927298 487.02439 780.078205c0-18.846595 15.27758-34.124176 34.126673-34.124176z" fill="#524F75" /><path d="M519.605073 777.628098v19.633326a7.49518 7.49518 0 0 0 14.985366 0v-19.633326a7.492683 7.492683 0 1 0-14.985366 0zM556.843707 777.628098v19.633326a7.492683 7.492683 0 0 0 14.985366 0v-19.633326a7.492683 7.492683 0 0 0-14.985366 0z" fill="#524F75" /><path d="M492.019512 686.829268m-9.990244 0a9.990244 9.990244 0 1 0 19.980488 0 9.990244 9.990244 0 1 0-19.980488 0Z" fill="#524F75" /><path d="M402.464468 215.472078C438.264507 205.681639 470.757776 201.375844 499.944273 202.55719c21.833678 0.884137 44.406634 3.396683 67.713873 7.532644 65.483551 11.623649 116.588644 63.163317 127.652839 128.741776l16.204176 96.008741c14.443395 85.593912-43.155356 166.714693-128.72679 181.295454-28.961717 4.93518-54.004761 7.66002-75.121639 8.177015-26.436683 0.646868-60.898029-2.824741-103.384039-10.412332-82.746693-14.780566-139.264-91.990166-128.344664-175.333776l12.020761-91.762888C296.195746 283.960195 341.329171 232.193249 402.464468 215.472078z" fill="#FFE281" /><path d="M402.464468 215.472078c-61.135298 16.721171-106.268722 68.488117-114.50318 131.331746l-12.020761 91.762888c-10.919337 83.34361 45.597971 160.55321 128.344663 175.333776 42.483512 7.58759 76.944859 11.0592 103.384039 10.412332 21.116878-0.516995 46.159922-3.244332 75.121639-8.177015 85.571434-14.580761 143.170185-95.701541 128.726791-181.295454l-16.204176-96.008741c-11.066693-65.578459-62.171785-117.118127-127.652839-128.741776-23.307239-4.135961-45.880195-6.648507-67.713873-7.532644-29.188995-1.181346-61.679766 3.124449-97.482303 12.914888z m-3.951141-14.455883C435.719493 190.841132 469.726283 186.335532 500.55118 187.584312c22.523005 0.91161 45.767805 3.496585 69.726908 7.749932 71.719961 12.730068 127.690302 69.177444 139.810966 141.002302l16.201678 96.008742c15.819551 93.745951-47.263844 182.594185-140.98482 198.558595-29.626068 5.047571-55.365932 7.852332-77.272039 8.38681-27.588059 0.676839-62.990985-2.889678-106.38361-10.642108-90.628995-16.186693-152.528546-100.75161-140.570224-192.032468l12.020761-91.762888C282.119493 276.030439 331.553717 219.33081 398.513327 201.016195z" fill="#524F75" /><path d="M485.880507 279.726829h32.8704c60.49842 0 111.890732 44.336702 120.854478 104.265678l7.322849 48.977171c21.571434 113.506654-29.396293 147.972995-116.985756 158.460254-4.877737 0.581932-9.750478 1.198829-14.658185 1.408624l-32.408352 1.391142c-74.509737 3.191883-139.900878-33.364917-140.687609-129.346186-0.059941-7.172995-0.042459-14.34599 0.786731-21.471532l6.363786-54.59918C356.267083 329.378341 405.086907 283.672976 464.761132 280.758322L485.880507 279.726829z" fill="#F3B438" /><path d="M465.125776 288.243512c-56.0128 2.737327-101.840546 45.640429-108.344196 101.438439l-6.366282 54.599181c-0.661854 5.686946-0.814205 11.106654-0.736781 20.542439 0.681834 83.341112 52.863376 125.350088 132.875239 121.918439l32.408351-1.388644c3.536546-0.154849 6.428722-0.444566 13.022283-1.236293l1.068956-0.127375c46.16242-5.527102 76.562732-17.283122 94.665054-38.077815 20.122849-23.109932 25.864741-58.835044 15.849522-111.543571l-7.3728-49.269385C623.780839 328.841366 575.535454 287.219512 518.750907 287.219512H486.065327l-20.939551 1.024z m169.894087 267.508761c-21.054439 24.188878-54.686595 37.19118-104.188253 43.117893l-1.058966 0.127375c-6.97319 0.83918-10.122615 1.156371-14.171161 1.328703l-32.408351 1.391141c-87.976585 3.771317-147.74322-44.344195-148.499981-136.768936-0.08242-10.020215 0.084917-15.929444 0.836683-22.400625l6.366283-54.59918c7.35282-63.073405 59.162224-111.576039 122.497873-114.670517l21.121873-1.03399L518.750907 272.234146c64.209795 0 118.751532 47.056546 128.262244 110.649444l7.302869 48.83481c10.756995 56.732098 4.268332 96.965307-19.296157 124.033873z" fill="#524F75" /><path d="M476.44722 446.6688c4.880234-6.32882 10.702049-9.525698 17.465443-9.595629 6.763395-0.069932 12.590205 3.129444 17.472937 9.595629 5.429698 14.196137 8.716488 24.034029 9.857873 29.51118 1.141385 5.482146 2.225327 16.5888 3.244332 33.322459H465.53038c-1.31122-12.265522-1.31122-22.168351 0-29.710985s4.947668-18.584351 10.91684-33.122654z" fill="#FFD074" /><path d="M472.171395 502.516761c12.577717-2.003044 20.79719-3.004566 24.65842-3.004566 3.9936 0 13.604215 1.071454 28.831844 3.216859a13.159649 13.159649 0 0 1 10.332409 18.037385 28.297366 28.297366 0 0 1-23.309736 17.395512c-8.586615 0.876644-13.873951 1.31122-15.854517 1.31122-2.322732 0-9.268449-0.599415-20.839649-1.800742a17.487922 17.487922 0 0 1-15.215142-13.389424l-0.831687-3.536546a14.982868 14.982868 0 0 1 12.228058-18.229698z" fill="#9B764F" /><path d="M472.815766 510.021932a7.492683 7.492683 0 0 0-5.577054 9.008702l0.831688 3.539044a9.990244 9.990244 0 0 0 8.69401 7.647532c11.229034 1.166361 18.1248 1.76078 20.067902 1.76078 1.61842 0 6.813346-0.42958 15.095259-1.273756a20.812176 20.812176 0 0 0 17.143258-12.792507 5.669463 5.669463 0 0 0-4.455649-7.764917c-14.83801-2.087961-24.283785-3.141932-27.785365-3.141932-3.321756 0-11.306459 0.974049-23.477074 2.912156a6.373776 6.373776 0 0 0-0.536975 0.104898zM496.829815 492.019512c4.483122 0 14.258576 1.091434 29.875824 3.289288a20.654829 20.654829 0 0 1 16.221659 28.304859 35.805034 35.805034 0 0 1-29.483708 22.001014c-8.896312 0.906615-14.268566 1.35118-16.613775 1.351181-2.702361 0-9.698029-0.60441-21.613893-1.840703a24.97561 24.97561 0 0 1-21.733776-19.123824l-0.831687-3.539044a22.478049 22.478049 0 0 1 18.347082-27.343298c12.979824-2.06798 21.434068-3.099473 25.832274-3.099473z" fill="#524F75" /><path d="M387.786302 339.730732l-27.625522-15.157698c-14.181151-7.7824-25.330263-21.631376-17.208195-36.032312 1.191337-2.112937 14.076254-18.139785 15.732137-19.918049 12.288-13.177132 27.46318-4.215883 40.318127 7.77241 1.241288 1.156371 2.385171 2.415141 3.421658 3.761327l16.311571 19.718244" fill="#F3B438" /><path d="M404.102868 270.900449c-8.149541-7.600078-15.704663-12.722576-23.317229-15.017834-10.192546-3.072-19.838127-0.69682-27.588059 7.612565-2.452605 2.629932-15.384976 18.874068-16.778614 21.346654-9.842888 17.455454 0.387122 35.445385 20.132839 46.279805l27.623024 15.157698a7.492683 7.492683 0 1 0 7.207961-13.137171l-27.623024-15.157698c-13.376937-7.340332-19.053893-17.328078-14.288546-25.782322 0.234771-0.417093 3.361717-4.493112 7.025639-9.098614 3.474107-4.363239 7.038127-8.72398 7.657521-9.388332 6.885776-7.38279 16.039337-4.622985 29.728469 8.142049 0.94158 0.879141 1.810732 1.83321 2.597463 2.854712l0.162342 0.2048 16.31157 19.718244a7.492683 7.492683 0 1 0 11.548722-9.553171l-16.234146-19.623336a38.52238 38.52238 0 0 0-4.165932-4.558049z" fill="#524F75" /><path d="M393.730498 292.571785l3.436643 3.948644a13.53678 13.53678 0 0 1 0.744274 16.846049 12.51278 12.51278 0 0 1-15.896976 3.748839l-4.910205-2.55001a13.606712 13.606712 0 0 1-4.480624-20.410068l0.779239-1.001522a13.162146 13.162146 0 0 1 20.327649-0.581932z" fill="#E1A126" /><path d="M583.764917 334.73561l27.625522-15.157698c14.181151-7.779902 22.542985-21.20679 14.423415-35.607727-1.193834-2.112937-12.123161-16.676215-14.355981-18.659278-14.977873-12.814985-26.054556-5.894244-38.907005 6.094049-1.243785 1.156371-2.385171 2.415141-3.424156 3.761327l-16.309073 19.718244" fill="#F3B438" /><path d="M567.453346 265.92281c8.491707-7.917268 14.76558-12.265522 21.881132-14.118712 9.153561-2.382673 18.119805 0.207298 27.008624 7.809873 2.782283 2.46759 14.218615 17.495415 16.011864 20.672312 9.887844 17.537873 1.543493 35.492839-17.345561 45.857717l-27.625522 15.157698a7.492683 7.492683 0 1 1-7.205463-13.137171l27.623024-15.157698c12.322966-6.760898 16.688702-16.15922 11.501268-25.360234-0.334673-0.591922-3.236839-4.595512-6.223922-8.521678-3.186888-4.190907-6.104039-7.79239-6.581073-8.214478-9.458263-8.0896-15.404956-6.541112-28.824351 5.969171a23.419629 23.419629 0 0 0-2.594966 2.854712l-0.159844 0.202302-16.311571 19.718244a7.492683 7.492683 0 1 1-11.546224-9.550673l16.231649-19.623336a38.677229 38.677229 0 0 1 4.160936-4.558049z" fill="#524F75" /><path d="M578.425132 287.469268l-3.856234 4.220878a13.217093 13.217093 0 0 0-0.929093 16.678713 12.515278 12.515278 0 0 0 15.896975 3.748839l4.910205-2.55001a14.063766 14.063766 0 0 0 4.90521-20.732254l-0.139863-0.192312a13.429385 13.429385 0 0 0-18.751688-2.999571c-0.739278 0.536976-1.421112 1.148878-2.035512 1.825717z" fill="#E1A126" /><path d="M507.012371 399.250107a39.601327 39.601327 0 1 0 79.202653 0 39.601327 39.601327 0 1 0-79.202653 0Z" fill="#FFFFFF" /><path d="M546.613698 446.34162C520.599102 446.34162 499.512195 425.259707 499.512195 399.24761 499.512195 373.240507 520.599102 352.156098 546.613698 352.156098c26.0096 0 47.099005 21.08441 47.099004 47.091512 0.002498 26.012098-21.089405 47.09401-47.099004 47.09401z m0-14.985366c17.737678 0 32.113639-14.375961 32.113639-32.108644C578.729834 381.517424 564.351376 367.141463 546.613698 367.141463S514.497561 381.517424 514.497561 399.24761c0 17.73518 14.378459 32.108644 32.116137 32.108644z" fill="#524F75" /><path d="M521.415805 411.810341a12.732566 12.732566 0 0 0 22.370654-8.316878 12.732566 12.732566 0 0 0-25.465132-0.259746l9.44078 1.371161-6.346302 7.205463z" fill="#232323" /><path d="M399.619746 398.515824a43.862166 43.862166 0 1 0 87.724332 0 43.862166 43.862166 0 1 0-87.724332 0Z" fill="#FFFFFF" /><path d="M443.481912 449.873171C415.114615 449.873171 392.117073 426.878127 392.117073 398.515824 392.117073 370.153522 415.114615 347.160976 443.481912 347.160976c28.367298 0 51.362341 22.992546 51.362342 51.354848 0 28.362302-22.995044 51.357346-51.362342 51.357347z m0-14.985366c20.09038 0 36.376976-16.284098 36.376976-36.369483C479.858888 378.430439 463.572293 362.146341 443.481912 362.146341 423.389034 362.146341 407.102439 378.430439 407.102439 398.515824s16.286595 36.37198 36.379473 36.371981z" fill="#524F75" /><path d="M446.846127 414.49522a13.853971 13.853971 0 1 0-3.364215-9.333386l10.269971 1.493542-6.905756 7.839844z" fill="#232323" /><path d="M401.952468 454.930732c-57.900956-19.0464-93.016663-29.076605-106.558439-30.312898a7.492683 7.492683 0 1 0-1.363668 14.920429c11.89838 1.088937 46.716878 11.034224 103.236683 29.626069a7.490185 7.490185 0 1 0 4.685424-14.2336zM584.584117 454.930732c57.903454-19.0464 93.014166-29.079102 106.558439-30.315395a7.492683 7.492683 0 0 1 1.363668 14.920429c-11.89838 1.088937-46.716878 11.034224-103.23918 29.626068a7.490185 7.490185 0 1 1-4.682927-14.231102zM693.829932 487.156761c0.629385-0.062439 1.073951-0.11239 1.398634-0.157346 0.177327-0.024976 0.177327-0.024976 0.447063-0.07243 0.3072-0.034966 0.3072-0.034966 1.82322-0.574439 0.794224-0.352156 0.794224-0.352156 2.487571-1.845697 1.101424-1.381151 1.101424-1.381151 1.828214-4.093503-0.12238-3.171902-0.12238-3.171902-1.458575-5.379746-2.430127-2.235317-2.430127-2.235317-3.544039-2.577483-0.774244-0.229776-0.774244-0.229776-1.186342-0.304702-0.929093-0.11239-0.929093-0.11239-1.206322-0.112391-0.564449-0.00999-1.503532 0.037463-3.419161 0.154849-3.271805 0.199805-9.223493 0.60441-17.882536 1.216312-17.278127 1.221307-45.340722 3.269307-84.195279 6.141503a7.492683 7.492683 0 1 0 1.10642 14.945405 29998.654439 29998.654439 0 0 1 84.145327-6.139005c8.609093-0.609405 14.525815-1.011512 17.737678-1.206322 0.786732 0.052449 1.346185 0.062439 1.918127 0.004995z m0.334673-0.132371c-0.187317 0.002498-0.187317 0.002498-1.066459-0.1024-0.404605-0.072429-0.404605-0.072429-1.171356-0.299707-1.10642-0.342166-1.10642-0.342166-3.539044-2.572488-1.333698-2.207844-1.333698-2.207844-1.456078-5.377249 0.72679-2.712351 0.72679-2.712351 1.828215-4.091005 1.688351-1.493541 1.688351-1.493541 2.47758-1.840702 1.481054-0.526985 1.481054-0.526985 1.713327-0.546966l0.2048-0.034966c-0.074927 0.012488-0.374634 0.044956-0.8192 0.089913a7.497678 7.497678 0 0 0-6.713444 8.20199 7.497678 7.497678 0 0 0 6.526127 6.688468c1.196332-0.072429 2.035512-0.114888 2.015532-0.114888zM489.521951 541.970732v42.458536a7.492683 7.492683 0 0 0 14.985366 0v-42.458536a7.492683 7.492683 0 0 0-14.985366 0zM307.202498 492.2368c54.611668-0.027473 87.919141-0.099902 99.97237-0.217288a7.492683 7.492683 0 0 0-0.149853-14.985366c-11.985795 0.119883-45.278283 0.192312-99.832508 0.217288a7.492683 7.492683 0 1 0 0.009991 14.985366z" fill="#524F75" /></svg>