<?xml version="1.0" encoding="utf-8"?>
<!-- Uploaded to: SVG Repo, www.svgrepo.com, Generator: SVG Repo Mixer Tools -->
<svg width="800px" height="800px" viewBox="0 0 1024 1024" class="icon"  version="1.1" xmlns="http://www.w3.org/2000/svg"><path d="M483.897444 337.770146l47.448663-8.768936c23.025015-4.255844 45.135922 10.959298 49.389269 33.981814 0.379629 2.065483 0.609405 4.155941 0.679336 6.253893 0.964059 28.092566-19.156293 52.501229-46.914185 56.921912l-6.97319 1.111415a66.654907 66.654907 0 0 1-70.298849-36.409444c-9.083629-18.466966-1.476059-40.800156 16.993405-49.883785a37.18119 37.18119 0 0 1 9.675551-3.206869z" fill="#FFFFFF" /><path d="M460.515278 249.728624l-12.033249-30.085619c-4.882732-11.351415-17.917502-16.473912-29.116566-11.436332-0.524488 0.237268-1.048976 0.499512-1.55598 0.774244-10.634615 5.829307-14.660683 19.288663-8.99122 30.063142 0.31719 0.599415 0.651863 1.178849 1.024 1.743297l15.672196 28.052605" fill="#F4FDFF" /><path d="M402.184741 242.533151c-7.56761-14.385951-2.200351-32.325932 12.025757-40.120819 0.679337-0.374634 1.373659-0.719298 2.085463-1.036488 15.020332-6.7584 32.535727 0.119883 39.069346 15.305054l12.103181 30.262946a7.49518 7.49518 0 0 1-13.911415 5.567063l-12.028253-30.085619a14.338498 14.338498 0 0 0-20.117854-6.873288c-7.043122 3.856234-9.730498 12.839961-5.961678 20.005463 0.207298 0.394615 0.434576 0.781737 0.674341 1.153874l0.254751 0.424585 15.677191 28.04761a7.49518 7.49518 0 0 1-13.082225 7.310361l-15.562302-27.847805a30.345366 30.345366 0 0 1-1.223805-2.112937z" fill="#524F75" /><path d="M424.13081 240.440195l5.729405 12.295493a9.940293 9.940293 0 1 0 18.0224-8.404293l-5.729405-12.295493a9.940293 9.940293 0 1 0-18.0224 8.404293z" fill="#A8EFFF" /><path d="M310.059707 663.005034L392.117073 690.740449v24.044019l-80.286595 4.498108c-18.069854 1.009015-33.539746-12.81998-34.548761-30.887337a31.973776 31.973776 0 0 1-0.052449-1.828215c0-13.736585 11.134127-24.868215 24.868215-24.868214a24.600976 24.600976 0 0 1 7.962224 1.306224z" fill="#E5FBFF" /><path d="M307.659551 670.098107a17.375532 17.375532 0 0 0-22.940097 16.461425c0 0.469541 0.012488 0.94158 0.039961 1.411122 0.779239 13.938888 12.712585 24.608468 26.651473 23.824234L384.62439 707.701385v-11.586185l-76.964839-26.017093zM399.609756 685.365698v36.506848l-87.359688 4.890225c-22.203317 1.241288-41.207259-15.74962-42.451044-37.950439a39.761171 39.761171 0 0 1-0.062439-2.245308c0-17.872546 14.488351-32.360898 32.360898-32.360897 3.524059 0 7.023141 0.571941 10.36238 1.705834L399.609756 685.365698z" fill="#524F75" /><path d="M683.505015 694.544234c-3.586498-14.011317-9.071141-27.380761-16.398986-39.581346-17.175727-28.572098-40.805151-54.042224-59.024858-56.694634l-114.96523 66.792273c-8.384312 12.552741-11.726049 28.337327-7.572604 46.689405 8.072117 35.665171 37.753132 62.406556 74.122614 66.78478 25.07801 3.019551 45.945132 4.528078 62.601366 4.528078 23.74681 0 34.393912-4.098498 58.375493-12.288l16.244136 10.664586 0.292215 0.187317a17.482927 17.482927 0 0 0 24.103961-5.502127l48.362771-76.987317a17.482927 17.482927 0 0 0-12.58521-26.641483l-24.850732-3.179395a42.463532 42.463532 0 0 0-35.240585 11.915863l-13.464351 13.312z" fill="#E5FBFF" /><path d="M691.707005 675.907434a49.95122 49.95122 0 0 1 41.464507-14.021307l24.850732 3.181893c13.681639 1.75079 23.354693 14.263571 21.59641 27.945209a25.018068 25.018068 0 0 1-3.621464 10.112625l-48.365268 76.984819c-7.337834 11.68359-22.75278 15.202654-34.433873 7.862322-0.142361-0.089912-4.670439-3.067005-13.596722-8.921288-16.868527 5.75438-19.705756 6.631024-26.746381 8.286908-9.473249 2.230322-18.661776 3.216859-30.585131 3.216858-16.990907 0-38.140254-1.528507-63.497991-4.583024-39.513912-4.750361-71.76242-33.806985-80.538848-72.569132-4.435668-19.603356-1.286244-37.630751 8.654048-52.506224a7.542634 7.542634 0 0 1 2.465093-2.317737l114.960234-66.789776a7.467707 7.467707 0 0 1 4.845269-0.936585c19.970498 2.909659 44.633912 27.425717 64.364643 60.253659a152.615961 152.615961 0 0 1 13.586732 29.336351l4.59801-4.535571z m-193.268761-5.274849c-6.905756 11.131629-8.988722 24.458615-5.589542 39.463961 7.3728 32.575688 34.486322 56.999337 67.713874 61.002927 24.805776 2.984585 45.385678 4.475629 61.702244 4.475629 10.809444 0 18.849093-0.866654 27.15598-2.817248 6.798361-1.603434 9.428293-2.452605 28.799376-9.071142a7.497678 7.497678 0 0 1 6.533619 0.82919l16.244137 10.664586c4.840273 3.042029 11.004254 1.633405 13.941385-3.037034l48.360273-76.987317a9.915317 9.915317 0 0 0 1.451083-4.043552 10.002732 10.002732 0 0 0-8.641561-11.18158l-24.853229-3.179395a34.953366 34.953366 0 0 0-29.019161 9.815414l-13.466849 13.307005c-4.113483 4.068527-11.091668 2.135415-12.527766-3.469112-3.444137-13.449366-8.68402-26.12199-15.562302-37.575805-16.628761-27.662985-37.188683-48.702439-51.324878-52.641092l-110.916683 64.444565z" fill="#524F75" /><path d="M740.212137 673.457327l-10.319922 14.063766a7.492683 7.492683 0 1 0 12.080702 8.863844l10.319922-14.063766a7.492683 7.492683 0 0 0-12.080702-8.863844z" fill="#524F75" /><path d="M532.522459 455.55762l53.842419 8.931278c5.349776 0.756761 10.799454-0.22478 15.539824-2.799766l38.090303-24.533542c-0.039961-0.626888-0.369639-4.980137-0.369639-5.609522 0-10.314927 5.824312-12.450341 13.179629-18.644292a25.864741 25.864741 0 0 1 13.589229-19.423532l13.0048-6.880781c5.444683-2.879688 12.210576-1.026498 15.384976 4.218381a10.8544 10.8544 0 0 1-2.452605 14.066263h21.286712c10.0352-0.002498 18.167259 8.062127 18.167259 18.007415 0 10.819434-6.805854 20.492488-17.043356 24.233834l-31.152078 11.383883-58.502869 80.618771a45.518049 45.518049 0 0 1-23.182361 12.62517l-69.377248 13.611708" fill="#E5FBFF" /><path d="M632.205112 433.256898c-0.054946-0.854166-0.074927-1.348683-0.074927-1.713327 0-8.574127 2.957112-13.958868 9.240976-19.153795 0.554459-0.457054 2.78478-2.185366 4.570537-3.591493a33.367415 33.367415 0 0 1 16.945951-21.943571l13.0048-6.88078c8.943766-4.735376 20.055415-1.688351 25.297795 6.955707a18.327102 18.327102 0 0 1 2.637424 10.459785h9.790439C727.774283 397.386927 739.278049 408.788293 739.278049 422.889522c0 13.973854-8.776429 26.451668-21.966049 31.271961l-29.001678 10.599649-57.156683 78.768078a7.612566 7.612566 0 0 1-0.724293 0.854166 53.030712 53.030712 0 0 1-27.001131 14.705639l-69.462166 13.62919a7.492683 7.492683 0 1 1-2.882186-14.705639l69.377249-13.606712a38.020371 38.020371 0 0 0 18.904039-10.145093l58.155708-80.156722a7.522654 7.522654 0 0 1 3.49159-2.637424l31.157073-11.381386c7.292878-2.664898 12.123161-9.530693 12.123161-17.195707 0-5.791844-4.762849-10.514732-10.672078-10.514732h-21.284215c-7.058107 0-10.202537-8.868839-4.725385-13.314497a3.371707 3.371707 0 0 0 0.774244-4.363239 4.150946 4.150946 0 0 0-5.474654-1.478556l-13.0048 6.88078a18.352078 18.352078 0 0 0-9.668058 13.80402 7.520156 7.520156 0 0 1-2.599961 4.727882c-1.613424 1.353678-6.176468 4.872741-6.710947 5.312313-3.067005 2.532527-3.801288 3.88121-3.801288 7.600078 0-0.002498 0.062439 1.053971 0.152352 2.275278l0.13237 1.825717c0.044956 0.599415 0.062439 0.894127 0.074927 1.088936a7.492683 7.492683 0 0 1-3.424156 6.720937l-38.090302 24.531044c-6.628527 3.628956-13.70162 4.902712-20.649834 3.921171l-54.014752-8.958752a7.492683 7.492683 0 1 1 2.450108-14.785561l53.842419 8.931279c3.499083 0.494517 7.237932-0.154849 10.512234-1.873171l34.094205-21.963551z" fill="#524F75" /><path d="M694.35442 416.842927l-12.520274 1.121405a11.613659 11.613659 0 0 0-9.795434 15.757112 13.312 13.312 0 0 0 18.983961 6.770888l9.575649-5.434693a9.515707 9.515707 0 0 0 4.288312-11.421346 10.192546 10.192546 0 0 0-10.532214-6.793366z" fill="#94DBEB" /><path d="M339.1488 466.744195c-15.532332 39.965971-22.513015 69.537093-27.593054 92.020137-4.118478 18.234693-6.398751 43.787239-6.838322 76.662634-1.156371 86.513015 66.794771 158.143063 153.092996 161.387395l61.335102 2.305249a134.863298 134.863298 0 0 0 60.033873-11.611161c68.165932-30.415298 98.813502-110.432156 68.453151-178.722966-10.022712-22.54798-18.2272-39.224195-24.610966-50.021151-10.072663-17.035863-30.12558-43.989541-60.161248-80.861034-6.586068-8.082107-14.390946-16.548839-23.424625-25.405191l-2.117931-0.304702c37.833054-12.869932 64.404605-49.064585 64.404604-91.715434 0-54.349424-43.979551-94.277932-87.589463-102.907005-31.184546-7.927259-67.886205-9.825405-110.094985-5.694439C349.718478 257.191337 304.702439 296.460488 304.702439 351.45678c0 29.551141 12.537756 55.226068 31.584156 75.45881 14.263571 15.1552 6.281366 31.034693 2.862205 39.828605z" fill="#F1FDFF" /><path d="M568.672156 473.172917c30.252956 37.141229 50.4832 64.334673 60.800624 81.782634 6.561093 11.096663 14.877971 28.000156 25.010576 50.7904 32.033717 72.067122-0.3072 156.507161-72.251941 188.608312a142.340995 142.340995 0 0 1-63.368117 12.25803l-61.335103-2.305249c-90.364254-3.396683-161.512273-78.400937-160.303454-168.974985 0.447063-33.352429 2.769795-59.384507 7.023142-78.21362 7.919766-35.050771 14.890459-59.564332 27.917737-93.084098 0.192312-0.497015 1.585951-3.958634 1.995551-5.030087 3.781307-9.897834 4.051044-16.723668-0.639376-23.619434a27.091044 27.091044 0 0 0-2.689873-3.326752C309.282966 409.17042 297.209756 381.487454 297.209756 351.45678c0-57.076761 45.815259-101.141229 106.106381-107.035473 42.933073-4.200898 80.423961-2.275278 112.475161 5.841795 51.272429 10.242498 93.431259 56.080234 93.431258 110.217366 0 40.722732-22.707824 76.737561-57.426419 93.815883 6.286361 6.488663 11.910868 12.777522 16.876019 18.876566z m-33.764527-28.072585c35.330498-12.018263 59.324566-45.750322 59.324566-84.622361 0-46.67442-36.888976-86.720312-81.552858-95.556683-30.672546-7.784898-66.512546-9.638088-107.90962-5.589542C351.751493 264.521678 312.195122 302.57202 312.195122 351.45678c0 26.014595 10.507239 50.103571 29.548644 70.323825 1.573463 1.670868 2.964605 3.396683 4.170927 5.172449 8.054634 11.843434 7.59758 23.387161 2.245307 37.393483-0.469541 1.226302-1.883161 4.742868-2.02802 5.110009-12.715083 32.720546-19.495961 56.564761-27.26837 90.958674-3.986107 17.637776-6.221424 42.718283-6.656 75.111648-1.101424 82.446985 63.652839 150.710322 145.882536 153.799805l61.335103 2.305249a127.400585 127.400585 0 0 0 56.699629-10.969288c64.384624-28.729444 93.341346-104.323122 64.666849-168.837619-9.917815-22.308215-18.009912-38.754654-24.213854-49.2544-9.835395-16.628761-29.710985-43.345171-59.521873-79.94443-5.976663-7.337834-13.019785-15.030322-21.126868-23.077463-7.49518-1.368663-8.369327-11.948332-1.021503-14.44839z" fill="#524F75" /><path d="M379.079805 458.05518l-53.839922 8.931279a25.17042 25.17042 0 0 1-15.539824-2.799766l-38.087805-24.533542c0.034966-0.626888 0.369639-4.980137 0.369639-5.609522 0-10.314927-5.82681-12.450341-13.17963-18.644292a25.874732 25.874732 0 0 0-13.591726-19.423532l-13.002303-6.880781c-5.444683-2.879688-12.210576-1.026498-15.387473 4.218381a10.856898 10.856898 0 0 0 2.455102 14.066263H197.984156C187.953951 407.377171 179.82439 415.441795 179.82439 425.387083c0 10.819434 6.803356 20.492488 17.043356 24.233834l31.154576 11.383883 58.497873 80.618771a45.515551 45.515551 0 0 0 23.184859 12.62517l69.379746 13.611708" fill="#F1FDFF" /><path d="M279.399649 435.754459c0.054946-0.854166 0.079922-1.348683 0.079922-1.713327 0-8.574127-2.95961-13.958868-9.245971-19.153795-0.551961-0.457054-2.782283-2.185366-4.570537-3.591493a33.36242 33.36242 0 0 0-16.945951-21.943571l-13.0048-6.88078c-8.946263-4.735376-20.06041-1.688351-25.297795 6.955707a18.282146 18.282146 0 0 0-2.632429 10.459785H197.984156C183.830478 399.884488 172.331707 411.285854 172.331707 425.387083c0 13.973854 8.776429 26.451668 21.963552 31.271961l29.004175 10.599649 57.156683 78.768078c0.219785 0.302205 0.462049 0.586927 0.724293 0.854166a53.030712 53.030712 0 0 0 27.001131 14.705639l69.462166 13.62919a7.492683 7.492683 0 0 0 2.884683-14.705639l-69.382244-13.611707a38.047844 38.047844 0 0 1-18.909034-10.145093l-58.15321-80.146732a7.510166 7.510166 0 0 0-3.49159-2.637424L199.437737 442.58279C192.144859 439.917893 187.317073 433.052098 187.317073 425.387083c0-5.791844 4.762849-10.514732 10.672078-10.514732h21.28921c7.058107 0 10.200039-8.868839 4.72039-13.314497a3.364215 3.364215 0 0 1-0.769249-4.363239 4.150946 4.150946 0 0 1 5.474654-1.478556l13.0048 6.88078a18.377054 18.377054 0 0 1 9.673054 13.80402c0.249756 1.8432 1.176351 3.529054 2.599961 4.727882 1.608429 1.353678 6.173971 4.872741 6.708449 5.312313 3.064507 2.532527 3.803785 3.88121 3.803785 7.600078 0-0.002498-0.067434 1.053971-0.154849 2.275278l-0.132371 1.825717-0.074926 1.088936a7.49518 7.49518 0 0 0 3.424156 6.720937l38.087805 24.531044c6.631024 3.628956 13.706615 4.902712 20.647336 3.921171l54.014751-8.958752a7.492683 7.492683 0 1 0-2.452605-14.785561l-53.839922 8.931278a17.532878 17.532878 0 0 1-10.509736-1.87317l-34.104195-21.963551z" fill="#524F75" /><path d="M217.250341 419.340488l12.517776 1.121405a11.611161 11.611161 0 0 1 9.792937 15.757112 13.312 13.312 0 0 1-18.986459 6.770888l-9.575649-5.434693a9.518205 9.518205 0 0 1-4.285814-11.421346 10.205034 10.205034 0 0 1 10.537209-6.793366z" fill="#94DBEB" /><path d="M499.874341 462.04878a60.066341 60.066341 0 0 1 50.55563 27.635513l78.907941 123.057327c28.45721 44.371668 15.552312 103.409015-28.824351 131.863726a95.336898 95.336898 0 0 1-19.790673 9.673054l-50.448234 17.782634c-24.715863 8.711493-51.819395-4.263337-60.530888-28.981697a47.43118 47.43118 0 0 1-2.699864-15.772098v-232.425522c0-18.137288 14.695649-32.832937 32.830439-32.832937zM483.897444 337.767649l47.448663-8.768937c23.025015-4.255844 45.135922 10.959298 49.389269 33.981815 0.379629 2.065483 0.609405 4.155941 0.679336 6.253893 0.964059 28.092566-19.156293 52.501229-46.914185 56.921912l-6.97319 1.111414a66.654907 66.654907 0 0 1-70.298849-36.409444c-9.081132-18.466966-1.476059-40.802654 16.995902-49.883785a37.288585 37.288585 0 0 1 9.673054-3.206868z" fill="#FFFFFF" /><path d="M516.907707 347.475668l23.217327-4.93518a12.92238 12.92238 0 0 1 15.457405 14.585756l-0.107395 0.704312a26.007102 26.007102 0 0 1-20.300176 21.506498c-10.499746 2.23282-21.254244-2.497561-26.703922-11.751025l-0.23477-0.397112a13.269541 13.269541 0 0 1 8.671531-19.713249z" fill="#DE915C" /><path d="M518.341307 355.04078a5.776859 5.776859 0 0 0-3.628956 8.651552l0.242264 0.392117a17.477932 17.477932 0 0 0 18.834107 7.897288 18.506927 18.506927 0 0 0 14.181151-15.557308l0.09241-0.706809a5.4272 5.4272 0 0 0-6.593561-6.01163l-23.127415 5.33479z m-3.371707-14.600741l23.127415-5.339785a20.415063 20.415063 0 0 1 24.820761 22.617912l-0.09241 0.70681a33.492293 33.492293 0 0 1-25.659942 28.157502 32.463298 32.463298 0 0 1-34.980839-14.668176l-0.239765-0.392117a20.76722 20.76722 0 0 1 13.02478-31.082146z" fill="#524F75" /><path d="M359.863571 294.382517l-29.089093-14.640702a22.615415 22.615415 0 0 1-6.238907-31.364371c0.32718-0.489522 7.477698-10.379863 7.842341-10.841912a22.310712 22.310712 0 0 1 31.326908-3.716371c0.536976 0.422088 1.835707 2.008039 2.332721 2.47758l18.854088 26.221893" fill="#F4FDFF" /><path d="M330.769483 252.545873c0.232273-0.344663 7.267902-10.075161 7.497678-10.367375a14.815532 14.815532 0 0 1 20.577405-2.644918c0.104898 0.109893 0.242263 0.259746 0.424585 0.467044l0.72679 0.814205 0.279727 0.304703 18.536898 25.779824a7.492683 7.492683 0 0 0 12.165619-8.748956L371.709502 231.349073l-0.514497-0.487024a14.660683 14.660683 0 0 0-0.689327-0.779239c-0.994029-1.108917-1.446088-1.585951-2.162888-2.147903-12.924878-10.182556-31.66158-7.959727-41.846634 4.967649-0.479532 0.609405-7.744937 10.654595-8.187005 11.316449-9.23598 13.824-5.517112 32.520741 8.306888 41.756722l0.382127 0.257249 29.50119 14.843004a7.492683 7.492683 0 0 0 6.733424-13.386926L334.598244 273.280624a15.115239 15.115239 0 0 1-3.828761-20.734751z" fill="#524F75" /><path d="M362.108878 252.748176l7.138029 8.042146a10.752 10.752 0 0 1 0.731786 13.351961 10.63961 10.63961 0 0 1-12.807493 3.653932l-10.052683-4.230869a13.12718 13.12718 0 0 1-5.564566-19.7632 13.179629 13.179629 0 0 1 20.554927-1.05397z" fill="#A6EFFF" /><path d="M431.191415 282.536585a40.273171 35.105717 90 1 0 70.211434 0 40.273171 35.105717 90 1 0-70.211434 0Z" fill="#FFFFFF" /><path d="M519.033132 273.415493a33.649639 30.155551 90 1 0 60.311102 0 33.649639 30.155551 90 1 0-60.311102 0Z" fill="#FFFFFF" /><path d="M547.712624 316.883044c20.594888 0 36.716644-19.203746 36.716644-42.306185S568.307512 232.273171 547.712624 232.273171c-20.59239 0-36.711649 19.201249-36.711648 42.303688s16.119259 42.306185 36.711648 42.306185z m0-14.985366c-11.678595 0-21.723785-11.968312-21.723785-27.318322S536.039024 247.258537 547.712624 247.258537c11.681093 0 21.731278 11.968312 21.731278 27.318322s-10.050185 27.32082-21.731278 27.320819z" fill="#524F75" /><path d="M544.188566 288.393366c-1.64839 2.145405-4.08601 3.50158-6.808351 3.50158-4.965151 0-8.993717-4.52558-8.993717-10.105131s4.023571-10.107629 8.993717-10.10763c4.907707 0 8.896312 4.415688 8.993717 9.90283l-6.663493 1.088936 4.478127 5.719415z" fill="#232323" /><path d="M467.216234 331.438829c26.259356 0 47.281327-22.895141 47.281327-50.832858C514.497561 252.670751 493.47559 229.77561 467.216234 229.77561c-26.259356 0-47.278829 22.895141-47.278829 50.832858 0.002498 27.93522 21.019473 50.830361 47.278829 50.830361z m0-14.985366c-17.685229 0-32.293463-15.914459-32.293463-35.847492S449.531005 244.760976 467.216234 244.760976 499.512195 260.672937 499.512195 280.605971s-14.610732 35.847493-32.295961 35.847492z" fill="#524F75" /><path d="M464.87602 296.527922c-2.292761 2.904663-5.681951 4.740371-9.465757 4.740371-6.905756 0-12.505288-6.126517-12.505287-13.684137s5.599532-13.686634 12.505287-13.686634c6.820839 0 12.367922 5.979161 12.502791 13.409405l-9.270947 1.476058 6.233913 7.744937z" fill="#232323" /><path d="M443.044839 661.384117c14.610732 5.439688 31.726517 14.630712 51.347356 27.585561 30.809912 20.342634 47.108995 56.911922 41.754225 93.698498l-1.4336 9.855375c-27.15598 9.288429-53.25799 13.931395-78.301035 13.931395-16.533854 0-37.251122-1.513522-62.146809-4.548058C358.152741 797.503688 328.689015 770.634927 320.676839 734.804917c-4.123473-18.439493-0.806712-34.301502 7.520156-46.914185 7.525151-6.998166 13.049756-11.691083 16.573815-14.078752" fill="#E5FBFF" /><path d="M456.409288 798.962263c-16.194185 0-36.621737-1.496039-61.240195-4.495609-32.950322-4.011083-59.856546-28.547122-67.176898-61.300137-3.451629-15.417444-1.223805-29.076605 5.989151-40.418029 6.913249-6.401249 11.973307-10.684566 14.995356-12.735064a7.492683 7.492683 0 0 0-8.409287-12.407883c-3.926166 2.659902-9.683044 7.550127-17.472937 14.798049l-0.656858 0.609405-0.494518 0.746771C312.085229 698.690185 308.963278 716.772527 313.361483 736.438322c8.704 38.92199 40.725229 68.118478 79.989385 72.903805 25.175415 3.069502 46.179902 4.605502 63.053425 4.605502 25.899707 0 52.813424-4.790322 80.726166-14.336l4.328273-1.483551 2.092956-14.383454C549.326049 744.090849 531.75321 704.661854 498.513171 682.715785 478.457756 669.473717 460.862439 660.022946 445.657288 654.363473a7.492683 7.492683 0 1 0-5.227395 14.043786c14.013815 5.217405 30.650068 14.153678 49.833834 26.816312 28.377288 18.736702 43.402615 52.44878 38.464936 86.365658l-0.769248 5.282342c-24.840741 8.072117-48.687454 12.090693-71.550127 12.090692z" fill="#524F75" /><path d="M416.093659 658.432a9.071141 8.99122 90 1 0 17.982439 0 9.071141 8.99122 90 1 0-17.982439 0Z" fill="#524F75" /><path d="M455.355317 712.953756c23.74681-12.570224 41.5744-18.641795 53.482771-18.2272 11.913366 0.412098 29.273912 7.722459 52.079141 21.9136l-1.723317 49.319337c-1.01401 29.154029-25.475122 51.959259-54.624156 50.940253-29.151532-1.019005-51.961756-25.475122-50.940254-54.626653l1.725815-49.316839z" fill="#F4FDFF" /><path d="M461.11719 761.321522c-0.874146 25.018068 18.699239 46.000078 43.709815 46.874224 25.015571 0.879141 46.005073-18.696741 46.879219-43.712312l1.573464-44.956097c-19.955512-12.058224-35.03079-18.189737-44.706342-18.529405-9.675551-0.337171-25.147941 4.727883-45.892683 15.367492l-1.563473 44.956098z m-9.270946-56.205112c24.813268-13.137171 43.692332-19.573385 57.254088-19.098849 13.554263 0.474537 31.941307 8.209483 55.783024 23.044995l3.678907 2.290264-1.87317 53.652604c-1.158868 33.287493-29.086595 59.334556-62.376586 58.168196-33.28999-1.161366-59.332059-29.089093-58.168195-62.376586l1.873171-53.652605 3.828761-2.028019z" fill="#524F75" /><path d="M454.2464 744.717737l1.356176-38.8096c0.344663-9.892839 8.167024-17.650263 17.472936-17.328078 9.305912 0.324683 16.566322 8.609093 16.224156 18.504429l-0.367141 10.447297" fill="#F4FDFF" /><path d="M488.932527 717.364449l0.94158-26.998634c0.374634-10.684566 9.223493-19.0464 19.768195-18.679259 10.544702 0.367141 18.789151 9.325893 18.41202 20.010459l-0.944078 26.998634M527.085268 719.58478l0.444566-12.600195c0.319688-9.10361 8.117073-16.219161 17.41799-15.894478 9.30841 0.32718 16.5888 7.96722 16.27161 17.068332l-1.24878 35.707629" fill="#F4FDFF" /><path d="M461.901424 743.773659l1.356176-38.8096c0.2048-5.85678 4.662946-10.277463 9.723005-10.097639 5.062556 0.174829 9.201015 4.89522 8.996215 10.752l-0.364644 10.4448a7.492683 7.492683 0 0 0 14.975375 0.529482l0.367142-10.452292c0.484527-13.931395-9.902829-25.779824-23.452098-26.254361-13.541776-0.474537-24.735844 10.624624-25.220371 24.551024l-1.353678 38.812098a7.492683 7.492683 0 0 0 14.972878 0.524488z" fill="#524F75" /><path d="M497.159493 717.626693l0.944078-26.998634c0.227278-6.568585 5.627005-11.676098 12.018263-11.451318 6.383766 0.222283 11.418849 5.691941 11.189073 12.263025l-0.944078 26.993639a7.492683 7.492683 0 0 0 14.977873 0.524488l0.944078-26.996137c0.516995-14.798049-10.939317-27.250888-25.644956-27.76039-14.700644-0.512-26.998634 11.109151-27.518126 25.904702l-0.941581 26.996137a7.492683 7.492683 0 0 0 14.975376 0.524488z" fill="#524F75" /><path d="M534.617912 721.148254l0.439571-12.602693c0.174829-4.927688 4.470634-8.843863 9.675551-8.664039 5.207415 0.179824 9.216 4.388215 9.046166 9.3184l-1.24878 35.707629a7.492683 7.492683 0 0 0 14.975375 0.524488l1.246283-35.710127c0.464546-13.274537-10.095141-24.35122-23.497054-24.818263-13.409405-0.467044-24.708371 9.842888-25.170419 23.122419l-0.439571 12.600195a7.49518 7.49518 0 0 0 7.225444 7.75243 7.507668 7.507668 0 0 0 7.747434-7.230439z" fill="#524F75" /><path d="M509.749698 733.029151c13.027278 0.457054 23.217327 11.381385 22.76277 24.406166l-0.412097 11.823454c-0.454556 13.027278-11.38638 23.214829-24.408664 22.760273-13.027278-0.454556-23.214829-11.38638-22.760273-24.408664l0.412098-11.825951c0.452059-13.019785 11.378888-23.212332 24.406166-22.755278z" fill="#94DBEB" /><path d="M539.790361 443.629268c-4.580527 1.64839-8.81639 2.88718-11.638634 3.496586-6.188956 1.336195-11.5712 2.702361-20.594888 2.028019a7.492683 7.492683 0 0 0-1.111415 14.942907c10.3424 0.771746 17.113288 0.651863 25.028059-1.058965 3.554029-0.766751 7.87481-2.077971 13.032273-3.931161a7.492683 7.492683 0 0 0 4.513093-9.585639c-1.398634-3.893698-5.332293-7.295376-9.228488-5.891747z" fill="#524F75" /><path d="M483.273054 455.804878m-8.741464 0a8.741463 8.741463 0 1 0 17.482927 0 8.741463 8.741463 0 1 0-17.482927 0Z" fill="#524F75" /></svg>