<?xml version="1.0" encoding="utf-8"?>
<!-- Uploaded to: SVG Repo, www.svgrepo.com, Generator: SVG Repo Mixer Tools -->
<svg width="800px" height="800px" viewBox="0 0 1024 1024" class="icon"  version="1.1" xmlns="http://www.w3.org/2000/svg"><path d="M741.4 429c29.1-12 49.6-40.6 49.6-74 0-44.2-35.8-80-80-80-20.4 0-38.9 7.6-53.1 20.1" fill="#FF684C" /><path d="M244.6 680.7H162.2l197.3-308.8c5.2-8.2 16.1-10.6 24.3-5.3 2.1 1.4 4 3.2 5.3 5.3 12.4 19.5 21.8 34.1 28 43.8" fill="" /><path d="M244.6 672.7c4.4 0 8 3.6 8 8s-3.6 8-8 8h-82.4c-6.3 0-10.1-7-6.7-12.3l197.3-308.8c7.6-11.9 23.4-15.4 35.3-7.8 3.1 2 5.8 4.7 7.8 7.8l28 43.8c2.4 3.7 1.3 8.7-2.4 11-3.7 2.4-8.7 1.3-11-2.4l-28-43.8c-0.7-1.2-1.7-2.2-2.9-2.9-4.5-2.9-10.4-1.5-13.2 2.9L176.8 672.7h67.8zM583.6 249.7c-0.9-1.5-2.2-2.7-3.7-3.7-5.6-3.6-13-1.9-16.6 3.7l-269.8 423h560l-269.9-423z m13.5-8.6l277.7 435.2c3.4 5.3-0.4 12.3-6.7 12.3H278.9c-6.3 0-10.1-7-6.7-12.3l277.7-435.2c8.3-13 25.6-16.9 38.7-8.5 3.4 2.2 6.3 5.1 8.5 8.5z" fill="" /><path d="M587.9 292.3l229 360H512.5z" fill="#FFC200" /><path d="M549.3 409.7c-4.4 0-8-3.6-8-8s3.6-8 8-8h81.5c4.4 0 8 3.6 8 8s-3.6 8-8 8h-81.5z" fill="" /><path d="M594.1 403.7c0-4.4 3.6-8 8-8s8 3.6 8 8v28c0 4.4-3.6 8-8 8s-8-3.6-8-8v-28zM660.1 491.6c0-4.4 3.6-8 8-8s8 3.6 8 8v28c0 4.4-3.6 8-8 8s-8-3.6-8-8v-28zM708.4 540c0-4.4 3.6-8 8-8s8 3.6 8 8v28c0 4.4-3.6 8-8 8s-8-3.6-8-8v-28zM541.8 546.4c0-4.4 3.6-8 8-8s8 3.6 8 8v21.5c0 4.4-3.6 8-8 8s-8-3.6-8-8v-21.5z" fill="" /><path d="M510 579c-4.4 0-8-3.6-8-8s3.6-8 8-8h88c4.4 0 8 3.6 8 8s-3.6 8-8 8h-88zM641.6 579c-4.4 0-8-3.6-8-8s3.6-8 8-8h138.5c4.4 0 8 3.6 8 8s-3.6 8-8 8H641.6zM591 495.5c-4.4 0-8-3.6-8-8s3.6-8 8-8h143.8c4.4 0 8 3.6 8 8s-3.6 8-8 8H591z" fill="" /><path d="M532.3 329.9l-82 324.5H332z" fill="#FFC200" /><path d="M103 688.7c-4.4 0-8-3.6-8-8s3.6-8 8-8h817.8c4.4 0 8 3.6 8 8s-3.6 8-8 8H103zM166.8 730.5c-4.4 0-8-3.6-8-8s3.6-8 8-8h94.6c4.4 0 8 3.6 8 8s-3.6 8-8 8h-94.6zM432.8 737.1c-4.4 0-8-3.6-8-8s3.6-8 8-8h226.5c4.4 0 8 3.6 8 8s-3.6 8-8 8H432.8zM307.5 765.7c-4.4 0-8-3.6-8-8s3.6-8 8-8h24.2c4.4 0 8 3.6 8 8s-3.6 8-8 8h-24.2zM810.9 754.7c-4.4 0-8-3.6-8-8s3.6-8 8-8h57.2c4.4 0 8 3.6 8 8s-3.6 8-8 8h-57.2zM558.1 778.9c-4.4 0-8-3.6-8-8s3.6-8 8-8h63.8c4.4 0 8 3.6 8 8s-3.6 8-8 8h-63.8zM725.1 737.1c-4.4 0-8-3.6-8-8s3.6-8 8-8h17.6c4.4 0 8 3.6 8 8s-3.6 8-8 8h-17.6z" fill="" /><path d="M565.6 239.3c0.9-4.3 5.2-7 9.5-6.1s7 5.2 6.1 9.5l-94.8 432.1c-0.9 4.3-5.2 7-9.5 6.1-4.3-0.9-7-5.2-6.1-9.5l94.8-432.1z" fill="" /></svg>