<?xml version="1.0" encoding="utf-8"?>
<!-- Uploaded to: SVG Repo, www.svgrepo.com, Generator: SVG Repo Mixer Tools -->
<svg width="800px" height="800px" viewBox="0 0 1024 1024" class="icon"  version="1.1" xmlns="http://www.w3.org/2000/svg"><path d="M610.8 168.8L757 395.3c18.6 19.6 18.6 51.5 0 71.1L546 640.6c-18.6 19.6-48.7 19.6-67.2 0L267.7 466.4c-18.6-19.6-18.6-51.5 0-71.1l146.2-226.5c18.6-19.7 178.3-19.7 196.9 0z" fill="#FFC200" /><path d="M423.4 180h179.2c16.6 0 30 13.4 30 30v165.4c0 55.2-44.8 100-100 100h-39.2c-55.2 0-100-44.8-100-100V210c0-16.5 13.5-30 30-30z" fill="#FFFFFF" /><path d="M453.4 208c-17.7 0-32 14.3-32 32v115.8c0 50.6 41 91.6 91.6 91.6s91.6-41 91.6-91.6V240c0-17.7-14.3-32-32-32H453.4z m0-56h119.2c48.6 0 88 39.4 88 88v115.8c0 81.5-66.1 147.6-147.6 147.6s-147.6-66.1-147.6-147.6V240c0-48.6 39.4-88 88-88z" fill="#FFFFFF" /><path d="M394.7 479.9h236.9l57.2 68.2c12.4 21.9 18.6 41 18.6 57.4s6.1 80.2 18.3 191.2c-3.4 21.9-15.7 32.9-36.9 32.9h-364c-17.5-6.7-25.2-19.9-23-39.5 2.2-19.6 7.3-81.2 15.3-184.7 0.2-24 6.5-43.2 18.7-57.4 12.2-14.1 31.8-36.9 58.9-68.1z" fill="#FFFFFF" /><path d="M683.7 545.9l-53.8-60.3c-2.9-3.3-2.7-8.4 0.6-11.3 3.3-2.9 8.4-2.7 11.3 0.6l53.8 60.3c11 12.3 19.1 26.9 23.8 42.7 0.2 0.5 0.3 1 0.3 1.6 3.7 41.2 13.6 147.8 14.4 156 0.4 4.4-2.9 8.3-7.3 8.7-4.4 0.4-8.3-2.9-8.7-7.3-0.7-8.2-10.6-113.4-14.3-155.2-4-13.2-10.9-25.5-20.1-35.8z m12.8 283.9c4.2-1.3 8.7 1.2 9.9 5.4 1.3 4.2-1.2 8.7-5.4 9.9-5 1.5-10.1 2.2-15.3 2.2-4.4 0-8-3.6-8-8s3.6-8 8-8c3.7 0.1 7.3-0.4 10.8-1.5z m-112.1 1.6c4.4 0 8 3.6 8 8s-3.6 8-8 8H439.7c-4.4 0-8-3.6-8-8s3.6-8 8-8h144.7z m-277.5-94.5c-0.4 4.4-4.2 7.7-8.7 7.3-4.4-0.4-7.7-4.2-7.3-8.7 2-23.6 6.5-75.3 13.4-155.1 0-0.5 0.1-1 0.3-1.5 4.8-16.5 13.3-31.6 24.8-44.3l54.9-60.1c3-3.3 8-3.5 11.3-0.5s3.5 8 0.5 11.3l-54.9 60.1c-9.7 10.7-16.9 23.4-21.1 37.2-6.8 79.4-11.2 130.8-13.2 154.3zM435.6 831h148.8m160.8 0H812c4.4 0 8 3.6 8 8s-3.6 8-8 8h-68.4m-155 0H433.5m-151.1 0H212c-4.4 0-8-3.6-8-8s3.6-8 8-8h66" fill="" /><path d="M449.2 175.9h126.3c22.5 10 36.8 19 42.9 27.1 6.1 8.1 10.2 27.5 12.1 58.2-28.6 2.2-48.8 2.2-60.7 0-23.6-4.4-42.8-20.4-57.9-20.4-14.3 0-32.7 16.4-55.2 20.4-12.6 2.2-34.4 2.2-65.4 0 4.8-30.9 10.3-50.2 16.6-58.2s20.1-17 41.3-27.1z" fill="#FFC200" /><path d="M453.4 188c-28.7 0-52 23.3-52 52v115.8c0 61.6 50 111.6 111.6 111.6s111.6-50 111.6-111.6V240c0-28.7-23.3-52-52-52H453.4z m0-16h119.2c37.6 0 68 30.4 68 68v115.8c0 70.5-57.1 127.6-127.6 127.6s-127.6-57.1-127.6-127.6V240c0-37.5 30.5-68 68-68zM630.88 764.2c-19.9 0-36 16.1-36 36v26.4c0 19.9 16.1 36 36 36h72c19.9 0 36-16.1 36-36v-26.4c0-19.9-16.1-36-36-36h-72z m0-16h72c28.7 0 52 23.3 52 52v26.4c0 28.7-23.3 52-52 52h-72c-28.7 0-52-23.3-52-52v-26.4c0-28.7 23.3-52 52-52z" fill="" /><path d="M639.28 777h55.1c15.5 0 28 12.5 28 28v16.8c0 15.5-12.5 28-28 28h-55.1c-15.5 0-28-12.5-28-28V805c0-15.5 12.6-28 28-28z" fill="#C4CDD1" /><path d="M632.18 837.3c0-4.4 3.6-8 8-8s8 3.6 8 8v30.9c0 4.4-3.6 8-8 8s-8-3.6-8-8v-30.9zM685.58 837.3c0-4.4 3.6-8 8-8s8 3.6 8 8v30.9c0 4.4-3.6 8-8 8s-8-3.6-8-8v-30.9zM524 314.3c-1.3-4.7 1.9-9.5 6.7-10.1l94.5-11.7c4.4-0.5 8.4 2.6 8.9 7s-2.6 8.4-7 8.9l-85.3 10.5 16.5 59.7c1.4 5.1-2.4 10.1-7.7 10.1H500c-4.4 0-8-3.6-8-8s3.6-8 8-8h40.2L524 314.3zM321.44 764.2c-19.9 0-36 16.1-36 36v26.4c0 19.9 16.1 36 36 36h72c19.9 0 36-16.1 36-36v-26.4c0-19.9-16.1-36-36-36h-72z m0-16h72c28.7 0 52 23.3 52 52v26.4c0 28.7-23.3 52-52 52h-72c-28.7 0-52-23.3-52-52v-26.4c0-28.7 23.3-52 52-52z" fill="" /><path d="M329.84 777h55.1c15.5 0 28 12.5 28 28v16.8c0 15.5-12.5 28-28 28h-55.1c-15.5 0-28-12.5-28-28V805c0-15.5 12.6-28 28-28z" fill="#C4CDD1" /><path d="M322.74 837.3c0-4.4 3.6-8 8-8s8 3.6 8 8v30.9c0 4.4-3.6 8-8 8s-8-3.6-8-8v-30.9zM376.14 837.3c0-4.4 3.6-8 8-8s8 3.6 8 8v30.9c0 4.4-3.6 8-8 8s-8-3.6-8-8v-30.9z" fill="" /><path d="M367.1 595.5c-4.4 0-8-3.6-8-8s3.6-8 8-8h211.3c4.4 0 8 3.6 8 8s-3.6 8-8 8H367.1z m239.6 0c-4.4 0-8-3.6-8-8s3.6-8 8-8h32.1c4.4 0 8 3.6 8 8s-3.6 8-8 8h-32.1z" fill="" /><path d="M482.5 606.2h144.3c5.5 0 10 4.5 10 10v17.4c0 5.5-4.5 10-10 10H482.5c-5.5 0-10-4.5-10-10v-17.4c0-5.5 4.5-10 10-10z" fill="#FFC200" /><path d="M519.9 529.2h63.2c5.5 0 10 4.5 10 10v17.4c0 5.5-4.5 10-10 10h-63.2c-5.5 0-10-4.5-10-10v-17.4c0-5.5 4.5-10 10-10zM392.1 606.2h33c5.5 0 10 4.5 10 10v17.4c0 5.5-4.5 10-10 10h-33c-5.5 0-10-4.5-10-10v-17.4c0-5.5 4.5-10 10-10z" fill="#FF684C" /><path d="M347.3 685.2h123.5c5.5 0 10 4.5 10 10v17.4c0 5.5-4.5 10-10 10H347.3c-5.5 0-10-4.5-10-10v-17.4c0-5.5 4.5-10 10-10zM619.8 685.2h52.8c5.5 0 10 4.5 10 10v17.4c0 5.5-4.5 10-10 10h-52.8c-5.5 0-10-4.5-10-10v-17.4c0-5.5 4.4-10 10-10z" fill="#FFC200" /><path d="M424.6 672.4c-4.4 0-8-3.6-8-8s3.6-8 8-8H716c4.4 0 8 3.6 8 8s-3.6 8-8 8H424.6zM349.8 672.4c-4.4 0-8-3.6-8-8s3.6-8 8-8H383c4.4 0 8 3.6 8 8s-3.6 8-8 8h-33.2zM410.4 558.4c0-4.4 3.6-8 8-8s8 3.6 8 8v20.4c0 4.4-3.6 8-8 8s-8-3.6-8-8v-20.4zM529 593.7c0-4.4 3.6-8 8-8s8 3.6 8 8v20.4c0 4.4-3.6 8-8 8s-8-3.6-8-8v-20.4zM445.8 589.6c0-4.4 3.6-8 8-8s8 3.6 8 8v45.8c0 4.4-3.6 8-8 8s-8-3.6-8-8v-45.8z" fill="" /><path d="M493.6 668.6c0-4.4 3.6-8 8-8s8 3.6 8 8v33.3c0 4.4-3.6 8-8 8s-8-3.6-8-8v-33.3zM581 666.5c0-4.4 3.6-8 8-8s8 3.6 8 8v68.7c0 4.4-3.6 8-8 8s-8-3.6-8-8v-68.7zM481.1 535.5c0-4.4 3.6-8 8-8s8 3.6 8 8v43.3c0 4.4-3.6 8-8 8s-8-3.6-8-8v-43.3z" fill="" /><path d="M402.9 303l83.1 9.8-86 8.1zM621 303l-83 9.8 86 6.1z" fill="" /><path d="M409.6 311.9h0.4-0.4z m-5.7-16.8l83 9.8c9.5 1.1 9.4 15-0.2 15.9l-86 8.1c-5.2 0.5-9.5-4.1-8.6-9.3l2.9-17.9c0.7-4.2 4.6-7.1 8.9-6.6zM621.6 310.7l0.4 0.3-7.4 0.9-0.3-1.7 7.3 0.5z m-1.5-15.6l-83 9.8c-9.6 1.1-9.3 15.2 0.4 15.9l86 6.1c5.2 0.4 9.4-4.3 8.4-9.4l-2.9-15.9c-0.9-4.2-4.7-7-8.9-6.5z" fill="" /></svg>