<?xml version="1.0" encoding="utf-8"?>
<!-- Uploaded to: SVG Repo, www.svgrepo.com, Generator: SVG Repo Mixer Tools -->
<svg width="800px" height="800px" viewBox="0 0 1024 1024" class="icon"  version="1.1" xmlns="http://www.w3.org/2000/svg"><path d="M464.9 266c0-23.8 23.1-47 51.6-47s51.6 23.2 51.6 47c-24.7-2.7-41.9-7.1-51.6-13-14.5 8.9-34.6 13-51.6 13z" fill="" /><path d="M466.1 337.5L567 361.4v-91.8c0-27.4-22.6-49.6-50.4-49.6s-50.4 22.2-50.4 49.6v67.9z m-16-67.9c0-36.3 29.8-65.6 66.4-65.6s66.5 29.4 66.5 65.6v112l-132.9-31.5v-80.5z" fill="" /><path d="M349.9 293.9l82.9 75.1 154.7 33.3c17.5 7 26.8 19.2 27.9 36.5 0.4 6.9 1.3 27.2 2.7 61.1 0.4 10.4-36.4 21.2-35.6 40.6 0.6 14.6 38.5 35.9 39.3 55.5 1 26.8 2.9 77.8 5.6 152.7H408.8l11.8-312.9c0.2-4.5-1-9-3.4-12.9L347 308.4l2.9-14.5z" fill="#FF684C" /><path d="M641.2 629.1c-0.3-4.4 3-8.2 7.4-8.5 4.4-0.3 8.2 3 8.5 7.4 0.5 7.2 1.3 23.9 2.8 58.4 0 1 0 1 0.1 1.9 1.8 40.6 2.1 48.7 2.6 57.2 0.2 4.4-3.1 8.2-7.6 8.4-4.4 0.2-8.2-3.1-8.4-7.6-0.5-8.6-0.8-16.7-2.6-57.4 0-1 0-1-0.1-1.9-1.5-34.1-2.2-50.9-2.7-57.9zM391 746.4c-0.2 4.4-3.9 7.8-8.3 7.6s-7.8-3.9-7.6-8.3l12.8-297.9c0.1-2.2-0.4-4.4-1.5-6.3L334 346.2c-2.1-3.9-0.7-8.7 3.2-10.9 3.9-2.1 8.7-0.7 10.9 3.2l52.3 95.3c2.5 4.5 3.6 9.6 3.4 14.7L391 746.4z m43.3-398.9l-82-72.4c-3.3-2.9-3.6-8-0.7-11.3 2.9-3.3 8-3.6 11.3-0.7l79 69.7L602 370.5c25.8 6.8 46 31.3 46.1 56.9 0.5 6.7 0.6 8.5 0.6 9.6 0 0.3 0 0.9 0.2 3 0.3 4.4-3 8.2-7.4 8.5-4.4 0.3-8.2-3-8.5-7.4-0.2-2.4-0.2-3.1-0.2-3.8 0-0.3 0-0.6-0.1-1.5-0.1-1.4-0.2-3.7-0.5-7.5 0-18.8-15.1-37.2-33.9-42.2l-164-38.6z" fill="" /><path d="M644.020788 588.104774c3.320722-2.88666 8.399489-2.531518 11.286148 0.789204s2.531518 8.399489-0.789204 11.286149c-12.679121 11.021792-31.941045 9.74575-43.028442-3.008842L579.079973 559.888632C567.992576 547.13404 569.409694 527.881981 582.088815 516.860189l67.848392-58.979706c12.679121-11.021792 31.941045-9.74575 43.028442 3.008842l32.409316 37.282653c11.021792 12.679121 9.74575 31.941045-3.008842 43.028442-3.320722 2.88666-8.399489 2.531518-11.286149-0.789204s-2.531518-8.399489 0.789205-11.286149c6.037677-5.248472 6.678905-14.418468 1.430433-20.456145L680.890296 471.386269c-5.248472-6.037677-14.418468-6.678905-20.456145-1.430433L592.58576 528.935543c-6.037677 5.248472-6.678905 14.418468-1.430433 20.456145l32.409316 37.282653c5.248472 6.037677 14.418468 6.678905 20.456145 1.430433z" fill="" /><path d="M699.192303 538.817244a24.9 29 49 1 0-43.773156 38.051424 24.9 29 49 1 0 43.773156-38.051424Z" fill="#FFC200" /><path d="M318.7 136.7l-6.6 6.6s0-26.4-21.9-35.2c0 0-2.2 24.2-13.1 33s-32.8 35.2 10.9 55c0 0 2.6 1.1 7.7 1.1s7.6-1.1 7.6-1.1 52.6-13.2 15.4-59.4z" fill="#FFC200" /><path d="M271.3 219.6h53.3c5.5 0 10 4.5 10 10 0 0.7-0.1 1.3-0.2 2l-24.5 120.8c-0.9 4.7-5 8-9.8 8h-4.3c-4.8 0-8.9-3.4-9.8-8l-24.5-120.8c-1.1-5.4 2.4-10.7 7.8-11.8 0.7-0.2 1.4-0.2 2-0.2z" fill="#C4CDD1" /><path d="M280.5 222c-0.8 0-1.6 0.1-2.4 0.2-6.5 1.3-10.7 7.7-9.4 14.1l23.8 117.1c0.5 2.6 2.8 4.5 5.5 4.5s5-1.9 5.5-4.5l23.8-117.1c0.2-0.8 0.2-1.6 0.2-2.4 0-6.6-5.4-12-12-12h-35z m0-16h35c15.5 0 28 12.5 28 28 0 1.9-0.2 3.7-0.6 5.6l-23.7 117.1c-2.1 10.1-10.9 17.3-21.2 17.3s-19.1-7.2-21.2-17.3l-23.7-117.1c-3.1-15.2 6.7-29.9 21.9-33 1.8-0.4 3.6-0.6 5.5-0.6zM401 598.7c-3.4 2.8-8.5 2.2-11.2-1.2-2.8-3.4-2.2-8.5 1.2-11.2l45.5-36.4c3.4-2.8 8.5-2.2 11.2 1.2 2.8 3.4 2.2 8.5-1.2 11.2L401 598.7zM467 544.7c-3.4 2.8-8.5 2.2-11.2-1.2s-2.2-8.5 1.2-11.2l8-6.4c3.4-2.8 8.5-2.2 11.2 1.2 2.8 3.4 2.2 8.5-1.2 11.2l-8 6.4zM395.2 717.3c-3.5 2.7-8.5 2.1-11.2-1.3-2.7-3.5-2.1-8.5 1.3-11.2L525.1 595c3.5-2.7 8.5-2.1 11.2 1.3 2.7 3.5 2.1 8.5-1.3 11.2L395.2 717.3z" fill="" /><path d="M368 900c0 4.4-3.6 8-8 8s-8-3.6-8-8V794c0-15.3 11.3-28 25.8-28h284.4c14.5 0 25.8 12.7 25.8 28v106c0 4.4-3.6 8-8 8s-8-3.6-8-8V794c0-6.8-4.6-12-9.8-12H377.8c-5.2 0-9.8 5.2-9.8 12v106z" fill="" /><path d="M384 884v-72.3c0-6.5 5.3-11.7 11.8-11.7h246.4c6.5 0 11.8 5.2 11.8 11.7V884" fill="#E0E7EA" /><path d="M432 804c0-4.4 3.6-8 8-8s8 3.6 8 8v64.4c0 4.4-3.6 8-8 8s-8-3.6-8-8V804zM594 804c0-4.4 3.6-8 8-8s8 3.6 8 8v40c0 4.4-3.6 8-8 8s-8-3.6-8-8v-40zM512 802c0-4.4 3.6-8 8-8s8 3.6 8 8v100c0 4.4-3.6 8-8 8s-8-3.6-8-8V802z" fill="" /><path d="M518 152c4.4 0 8 3.6 8 8v24c0 4.4-3.6 8-8 8s-8-3.6-8-8v-24c0-4.4 3.6-8 8-8z m66 19.4c3.7 2.4 4.8 7.4 2.4 11.1l-13.1 20.1c-2.4 3.7-7.4 4.8-11.1 2.4-3.7-2.4-4.8-7.4-2.4-11.1l13.2-20.1c2.4-3.7 7.3-4.8 11-2.4z m44.9 51.8c1.9 4 0.1 8.8-3.9 10.6l-21.8 10.1c-4 1.9-8.8 0.1-10.6-3.9s-0.1-8.8 3.9-10.6l21.8-10.1c4-1.9 8.7-0.1 10.6 3.9z m9.9 68.1c-0.6 4.4-4.7 7.4-9 6.8l-23.8-3.3c-4.4-0.6-7.4-4.7-6.8-9s4.7-7.4 9-6.8l23.8 3.3c4.3 0.6 7.4 4.6 6.8 9z m-231.7-68.1c1.9-4 6.6-5.7 10.6-3.9l21.8 10.1c4 1.9 5.7 6.6 3.9 10.6s-6.6 5.7-10.6 3.9L411 233.8c-4-1.9-5.8-6.6-3.9-10.6z m44.9-51.8c3.7-2.4 8.7-1.4 11.1 2.4l13.1 20.1c2.4 3.7 1.4 8.7-2.4 11.1-3.7 2.4-8.7 1.4-11.1-2.4l-13.1-20.1c-2.4-3.7-1.3-8.7 2.4-11.1zM631.9 536.4c-3.3 2.9-8.4 2.6-11.3-0.8s-2.6-8.4 0.8-11.3l59.9-52.4c3.3-2.9 8.4-2.6 11.3 0.8s2.6 8.4-0.8 11.3l-59.9 52.4z" fill="" /></svg>