<?xml version="1.0" encoding="utf-8"?>
<!-- Uploaded to: SVG Repo, www.svgrepo.com, Generator: SVG Repo Mixer Tools -->
<svg width="800px" height="800px" viewBox="0 0 1024 1024" class="icon"  version="1.1" xmlns="http://www.w3.org/2000/svg"><path d="M674.818498 383.852644c10.040195 6.323824 15.534829 11.06919 22.528 14.56078 6.998166 3.494088 18.529405 4.635473 32.236019 4.295805l9.675551-0.217288c1.653385-0.459551 4.937678-1.363668 5.547083-3.888702 0.499512-2.055493-0.691824-4.837776-1.838205-6.88078-0.766751-1.363668-2.27278-3.429151-4.520585-6.198947-13.052254-15.292566-18.919024-21.10439-23.881678-25.425171-5.71442-4.965151-14.470868-10.105132-26.261854-15.404956" fill="#E1975C" /><path d="M732.629541 390.248898c-11.28398-13.21959-17.375532-19.615844-22.987551-24.493581-5.070049-4.410693-13.237073-9.201015-24.416156-14.228605a7.492683 7.492683 0 1 1 6.148995-13.666653c12.402888 5.577054 21.743766 11.061698 28.102556 16.5888 6.258888 5.444683 12.824976 12.337951 24.660917 26.2144 2.622439 3.216859 4.335766 5.569561 5.359766 7.39278 2.380176 4.240859 3.598985 8.129561 2.587473 12.307981-1.086439 4.5056-4.203395 6.993171-8.276917 8.53916a25.724878 25.724878 0 0 1-2.555004 0.80921 7.517659 7.517659 0 0 1-1.828215 0.269737l-9.675551 0.217288c-15.799571 0.38962-27.765385-1.098927-35.750088-5.082537a64.776741 64.776741 0 0 1-4.008586-2.187863c-3.114459-1.8432-15.36999-10.344898-19.16878-12.737561a7.492683 7.492683 0 0 1 7.984702-12.680117c4.250849 2.674888 16.27161 11.014244 18.81163 12.517775 1.053971 0.621893 2.062985 1.173854 3.072 1.678361 5.229893 2.609951 15.150205 3.843746 28.704468 3.509073l6.84082-0.152351c-0.599415-0.964059-1.825717-2.622439-3.606479-4.815297z" fill="#524F75" /><path d="M707.014556 368.744898c-1.85319-1.236293-5.701932-3.316761-11.551219-6.23641a9.091122 9.091122 0 0 0-11.761015 3.291785c-2.455102 3.906185-1.743298 10.989268 1.058966 14.051278 3.903688 4.268332 9.068644 7.407766 10.702049 8.366829 1.288741 0.759259 5.981659 1.83321 14.086243 3.221854 3.633951 0.794224 8.07961-0.631883 9.623103-3.219356a7.063102 7.063102 0 0 0-0.831688-8.366829c-5.429698-5.994146-9.20601-9.693034-11.326439-11.109151z" fill="#FFE8A9" /><path d="M719.914459 212.689795c-8.022166 24.121444-17.235668 41.944039-27.640508 53.475278-11.403863 12.632663-26.536585 21.316683-45.398166 26.059551 3.149424 11.628644 7.038127 21.016976 11.671103 28.167493 4.630478 7.150517 12.79001 14.22361 24.478595 21.216781 16.746146-9.917815 30.552663-26.693932 41.424546-50.328352 10.095141-21.946068 10.165073-48.13799 0.209795-78.578263a2.497561 2.497561 0 0 0-4.745365-0.012488z" fill="#EAE6DB" /><path d="M718.975376 288.07118c-9.063649 20.639844-20.375102 35.65518-33.876917 45.208352-8.776429-5.469659-14.912937-10.889366-18.429503-16.121756-3.311766-4.920195-6.303844-11.194068-8.951258-18.819122 16.746146-5.701932 30.507707-14.665678 41.157307-26.881249 8.69401-9.977756 16.359024-23.876683 23.082458-41.714264 5.379746 22.283239 4.330771 41.671805-2.982087 58.328039z m-31.399337-26.45916c-10.167571 11.666107-23.84921 19.840624-41.239727 24.536039a7.49518 7.49518 0 0 0-5.244878 9.3184c3.554029 12.265522 7.907278 22.280741 13.142166 30.058146 5.482146 8.157034 14.608234 15.78958 27.325815 23.102439a7.492683 7.492683 0 0 0 7.665014-0.114888c17.977444-11.07918 32.438322-29.288898 43.470049-54.411863 10.534712-23.996566 10.11762-52.104117-0.946576-84.032937a9.990244 9.990244 0 0 0-18.971473 0.282224c-7.312859 23.3472-15.777093 40.450498-25.20039 51.26244z" fill="#524F75" /><path d="M694.321951 631.882927l-11.626146 115.459746a32.468293 32.468293 0 0 1-32.305951 29.213971H626.887805c-17.932488 0-32.468293-14.535805-32.468293-32.468293v-105.914068" fill="#E1975C" /><path d="M686.869229 631.131161l-11.628644 115.459746a24.973112 24.973112 0 0 1-24.848234 22.473054H626.887805c-13.794029 0-24.97561-11.18158-24.97561-24.97561v-105.914068a7.492683 7.492683 0 0 0-14.985366 0v105.914068c0 22.070946 17.892527 39.960976 39.960976 39.960976h23.502049c20.519961 0 37.70318-15.542322 39.76117-35.954888l11.623649-115.459746a7.492683 7.492683 0 0 0-14.905444-1.503532z" fill="#524F75" /><path d="M596.542439 764.460956c15.362498 5.829307 28.249912 8.743961 38.654751 8.743961 10.407337 0 25.502595-3.908683 45.283278-11.731044L673.507278 801.717073h-68.682927l-8.281912-37.256117z" fill="#EAE6DB" /><path d="M610.833483 794.22439h56.367454l3.668917-21.184312c-14.713132 5.090029-26.546576 7.657522-35.675161 7.657522-8.269424 0-17.73518-1.620917-28.444722-4.837776l4.083512 18.364566z m-11.633639-36.769092c14.583259 5.534595 26.619005 8.256937 35.994849 8.256936 9.255961 0 23.552-3.701385 42.528468-11.204058 5.439688-2.1504 11.134127 2.482576 10.1376 8.244448l-6.968195 40.2432a7.49518 7.49518 0 0 1-7.385288 6.213932h-68.682927a7.492683 7.492683 0 0 1-7.312858-5.866771l-8.28441-37.256117c-1.296234-5.819317 4.398205-10.744507 9.972761-8.63157z" fill="#524F75" /><path d="M329.960273 603.158478c-16.688702 8.501698-25.844761 9.016195-37.740644 8.414283-11.778498-0.596917-22.458068-1.645893-23.636917-15.707161-0.519493-6.216429 0.784234-14.775571 2.627434-22.203317 2.852215-11.498771 4.655454-21.379122 13.561756-38.589815 1.251278-2.420137 6.243902-11.938341 7.447727-14.268566 2.837229-5.487141 4.940176-9.740488 6.74841-13.74158 4.830283-10.682068 1.493541-22.520507-3.281795-30.183024l-10.914342 2.702361c1.201327 4.340761 2.602459 9.723005-1.153873 21.234263-1.283746 3.931161-9.016195 16.663727-15.632234 25.629971-11.47879 15.557307-18.634302 29.985717-22.016 43.619902-2.397659 9.668059-3.329249 18.8416-2.587473 27.670478 2.135415 25.47762 17.290615 39.533893 40.235707 40.695259 16.606283 0.83918 37.530849 6.5536 58.547825 8.436761l-12.205581-43.709815z" fill="#E1975C" /><path d="M326.558595 596.482498l8.154537-4.155942 17.587824 62.971005-10.801951-0.966556c-8.134556-0.729288-15.602263-1.860683-27.975181-4.056039-18.566868-3.294283-23.137405-4.00359-30.282926-4.363239-27.220917-1.376156-44.923629-18.871571-47.326283-47.551064-0.79922-9.535688 0.152351-19.498459 2.782283-30.100604 3.683902-14.848 11.378888-30.163044 23.259785-46.26482 6.101541-8.269424 13.566751-20.522459 14.538302-23.504546 2.614946-8.014673 2.584976-11.401366 1.056469-16.910986l-2.057991-7.425248 23.674381-5.859279 2.87719 4.617991c6.975688 11.196566 9.183532 25.212878 3.748839 37.233639-1.818224 4.018576-3.931161 8.319376-6.920741 14.101229l-3.751337 7.187981c-2.310244 4.420683-3.186888 6.094049-3.69639 7.080585-5.926712 11.453815-8.539161 18.906537-11.446322 30.802419l-0.41959 1.73081-0.526986 2.180371-0.546966 2.237815c-1.880663 7.585093-2.832234 15.015337-2.432624 19.770692 0.571941 6.828332 3.346732 8.18201 16.548839 8.851356 13.184624 0.666849 20.415063-0.709307 33.956839-7.60757z m-35.817522-93.343844c-1.615922 4.955161-9.71801 18.254673-16.726166 27.752897-10.779473 14.610732-17.600312 28.17998-20.772214 40.974986-2.2528 9.083629-3.049522 17.420488-2.392664 25.237853 1.783259 21.274224 13.491824 32.842927 33.150127 33.839454 8.047141 0.407102 12.804995 1.141385 32.14361 4.573034 6.373776 1.131395 11.37639 1.968078 15.804566 2.602459l-6.820839-24.421152c-11.546224 4.875239-20.455024 6.004137-33.282498 5.357269-9.073639-0.459551-13.826498-1.173854-18.701736-3.55403-7.105561-3.47161-11.256507-9.875356-12.020761-19.008936-0.559454-6.680976 0.579434-15.599766 2.819746-24.633444 0.28722-1.151376 0.28722-1.156371 1.056468-4.330771l0.427083-1.765775c3.171902-12.967337 6.16398-21.508995 12.695103-34.129171 0.526985-1.016507 1.398634-2.684878 3.726361-7.138029a2075.62802 2075.62802 0 0 0 3.721365-7.128039c2.874693-5.564566 4.882732-9.643083 6.576078-13.389425 1.72082-3.80878 2.072976-8.216976 1.286244-12.625171-0.337171 3.436644-1.198829 7.210459-2.689873 11.785991z m2.34521-20.772215a48.505132 48.505132 0 0 0-1.093932-4.787824l-7.220449 2.000546 1.800742 7.272898 10.914341-2.702361-8.159531-3.311766c0.944078 1.518517 1.755785 3.106966 2.415141 4.732878 0.769249 1.890654 1.336195 3.833756 1.683356 5.776858a33.017756 33.017756 0 0 0-0.339668-8.981229z" fill="#524F75" /><path d="M227.365463 443.824078c15.172683 2.052995 23.606946 2.015532 25.302791-0.11239 0.412098-0.516995-4.682927-5.64199-10.162576-17.805112-1.388644-3.08199-3.044527-8.951259-4.965151-17.610303 7.962224 2.782283 13.42439 5.040078 16.388995 6.775883 8.831376 5.169951 13.774049 10.752 15.589776 10.714537 2.732332-0.057444 5.299824-5.946693 7.702478-17.667747 9.168546 9.106107 15.6672 16.493893 19.495961 22.163356 1.838205 2.722341 3.858732 6.9632 6.064078 12.720078 4.982634 13.01479-1.518517 27.608039-14.528313 32.608157a37.59079 37.59079 0 0 1-39.561365-8.007181l-2.892176-2.782283c0.002498-0.002498-6.144-7.000663-18.434498-20.996995z" fill="#FFE8A9" /><path d="M246.396878 453.974166l4.423181 5.407219-5.799337 4.745366 5.382244-5.21241 2.792273 2.882186a30.100605 30.100605 0 0 0 31.431805 7.512663 17.767649 17.767649 0 0 0 11.014244-22.565463c-1.83321-5.337288-3.499083-9.173541-4.882732-11.383883-2.02802-3.241834-5.03758-7.215454-9.02119-11.890888-2.789776 6.833327-6.196449 10.042693-11.748527 9.967766-2.57998-0.034966-4.180917-0.884137-6.331317-2.500059-0.864156-0.649366-1.13639-0.879141-3.474107-2.869697-3.621463-3.086985-6.096546-5.005112-9.313405-7.043122a25.699902 25.699902 0 0 0-1.603434-0.9216c0.264741 0.884137 0.516995 1.613424 0.751765 2.185366 0.50201 1.226302 1.016507 2.412644 1.540996 3.556527 1.715824 3.746341 3.3792 6.743415 5.254868 9.715512 0.3072 0.484527 1.488546 2.310244 1.738302 2.717346 0.372137 0.60441 0.639376 1.083941 0.889132 1.658381 0.284722 0.651863 0.499512 1.316215 0.619395 2.147902 0.284722 1.990556-0.09241 4.125971-1.748293 6.059083-2.619941 3.064507-6.67598 4.253346-13.359453 4.073522 0.437073 0.526985 0.914107 1.111415 1.44359 1.758283z m-6.161483-17.195707l-0.027473-0.002498 0.027473 0.002498z m-0.027473-0.002498a140.295493 140.295493 0 0 1-2.270283-4.692917 108.394146 108.394146 0 0 1-1.788254-4.128468c-1.531005-3.743844-3.072-10.042693-4.777834-19.243708-1.071454-5.771863 4.612995-10.477268 10.085151-8.346848 8.28441 3.221854 14.011317 5.82681 17.435474 7.99719 3.514068 2.225327 6.2464 4.29081 9.715512 7.19797 0.79922-2.250302 1.64839-5.184937 2.512546-8.766439 1.398634-5.789346 8.669034-7.709971 12.745054-3.369209 9.153561 9.745483 15.664702 17.692722 19.600858 23.986575 2.100449 3.361717 4.17842 8.142049 6.3488 14.465873 5.869268 17.09081-3.216859 35.705132-20.300175 41.596879a45.090966 45.090966 0 0 1-47.081522-11.251513l-2.792273-2.882185a7.3728 7.3728 0 0 1-0.417093-0.469541l-17.690224-21.626381c-4.388215-5.362263 0.232273-13.297015 7.063102-12.128156 4.530576 0.774244 8.411785 1.328702 11.611161 1.660878z" fill="#524F75" /><path d="M702.196761 551.259161v-151.23481c0-72.976234-57.880976-132.800312-130.817249-135.212956A122.780098 122.780098 0 0 0 567.196098 264.741463c-69.931707 0-126.621346 56.689639-126.621347 126.623844v62.061893a1924.220878 1924.220878 0 0 0-41.127336 22.233288c-58.27559 32.343415-90.356761 97.457327-80.491395 163.372956 9.265951 61.919532 62.451512 107.737288 125.062868 107.737288h99.250575c81.015883 0 149.219278-60.613307 158.737483-141.064742l1.213815-10.25998a156.562107 156.562107 0 0 0-1.024-44.186849z" fill="#E1975C" /><path d="M711.058107 592.581307c-0.117385 1.24878-0.252254 2.497561-0.399609 3.743844l-1.211318 10.259981C699.481912 690.81038 628.084137 754.263415 543.269463 754.263415h-99.250575c-66.320234 0-122.65522-48.532605-132.473132-114.121054-10.327415-69.005112 23.257288-137.171044 84.26521-171.030478a1962.268722 1962.268722 0 0 1 37.271102-20.210263v-57.536313c0-74.070166 60.043863-134.116527 134.11403-134.116527 1.478556 0 2.957112 0.024976 4.43317 0.07243 76.974829 2.547512 138.060176 65.683356 138.060176 142.703141v150.62041a164.059785 164.059785 0 0 1 1.368663 41.936546z m-16.354029-192.556956c0-68.93518-54.674107-125.447493-123.571824-127.725268A121.573776 121.573776 0 0 0 567.196098 272.234146c-65.790751 0-119.128663 53.335415-119.128664 119.131161v66.599961l-4.018575 2.102947a1904.040585 1904.040585 0 0 0-40.964996 22.145873c-55.543259 30.827395-86.1184 92.88679-76.71758 155.712936 8.718985 58.248117 58.752624 101.351024 117.652605 101.351025h99.250575c77.21959 0 142.22361-57.771083 151.297249-134.453698l1.211317-10.25998a149.064429 149.064429 0 0 0-0.971551-42.073912l-0.1024-152.466108z" fill="#524F75" /><path d="M666.264351 586.96679a19.278673 19.278673 0 0 1 20.247727 22.355669l-6.253893 38.237658A58.9824 58.9824 0 0 1 626.887805 696.819512l11.853424-84.347629a29.693502 29.693502 0 0 1 27.523122-25.505093z" fill="#FFE6A2" /><path d="M507.004878 289.502283c16.029346-24.093971 4.797815-41.442029 8.132059-41.442029 3.334244 0 31.926322 7.837346 34.766048 20.667317 20.604878-9.600624 46.055024-23.966595 50.103571-23.966595 4.043551 0-10.257483 23.966595-14.350985 28.721951 26.099512-3.756332 42.800702-21.908605 49.134517-21.908605s7.415259 13.541776 7.013151 37.930458L638.17678 302.204878" fill="#E1975C" /><path d="M529.630283 260.415688c7.585093 3.411668 12.372917 7.295376 12.957346 9.9328a7.492683 7.492683 0 0 0 10.479766 5.172449 508.166244 508.166244 0 0 0 11.918361-5.771864c1.338693-0.666849 2.722341-1.358673 4.180917-2.095453 1.04398-0.526985 10.789463-5.497132 17.18322-8.726479-2.567493 4.318283-5.167454 8.264429-6.376273 9.668059-4.518088 5.249873-0.107395 13.289522 6.745912 12.305483 11.184078-1.610927 21.284215-5.547083 31.704039-11.541229a173.892683 173.892683 0 0 0 7.083083-4.328274c0.659356-0.41959 4.600507-2.972098 5.579551-3.591492 0.721795-0.454556 1.346185-0.836683 1.893151-1.158868 0.152351 0.646868 0.302205 1.406127 0.439571 2.275278 0.826693 5.269854 1.091434 13.344468 0.901619 25.842263l-3.351726 11.751024a7.492683 7.492683 0 1 0 14.410926 4.110986l3.623961-12.702595c0.177327-0.629385 0.272234-1.278751 0.284722-1.930615 0.229776-13.886439-0.047454-22.885151-1.068956-29.39879-1.558478-9.907824-5.284839-16.149229-13.43438-16.14923-3.596488 0-6.411239 1.356176-11.691083 4.682927-1.073951 0.674341-5.072546 3.264312-5.664469 3.641444a159.164566 159.164566 0 0 1-6.483668 3.963629 96.688078 96.688078 0 0 1-8.361834 4.315786c2.025522-3.738849 3.576507-6.998166 4.503102-9.565659 0.686829-1.908137 1.086439-3.531551 1.113913-5.184936 0.079922-4.385717-2.742322-8.666537-8.201991-8.666537-3.171902 0-6.845815 1.553483-15.534829 5.834303-4.016078 1.980566-20.754732 10.514732-22.053463 11.17159a917.081912 917.081912 0 0 1-9.238478 4.588019c-3.791298-4.760351-9.805424-8.69401-17.400508-12.11317-7.602576-3.419161-17.033366-6.181463-20.644839-6.181464a8.034654 8.034654 0 0 0-7.572605 5.224898c-0.584429 1.543493-0.659356 2.85721-0.53198 4.4032 0.059941 0.724293 0.159844 1.421112 0.342166 2.485073-0.084917-0.504507 0.31719 1.820722 0.417093 2.435122 1.643395 10.212527 0.339668 19.171278-7.023142 30.237971a7.492683 7.492683 0 0 0 12.475317 8.301892c8.464234-12.722576 10.94681-24.024039 9.975259-35.777561 2.17038 0.749268 4.350751 1.608429 6.421229 2.54002z" fill="#524F75" /><path d="M444.483434 678.634771l2.599961 69.609522c0.566946 15.160195-11.266498 27.912741-26.431688 28.47719a27.897756 27.897756 0 0 1-1.024 0.01998h-24.578497c-22.058459 0-43.182829-19.161288-48.697444-40.657795L322.185366 651.863415" fill="#E1975C" /><path d="M436.995746 678.912l2.599961 69.609522a19.980488 19.980488 0 0 1-19.965502 20.727258h-24.578498c-17.857561 0-36.564293-16.026849-41.439531-35.028292l-24.218849-84.422556a7.492683 7.492683 0 1 0-14.403434 4.130966l24.163902 84.220253C345.6 763.302088 370.028644 784.234146 395.046712 784.234146h24.578498c0.434576 0 0.869151-0.007493 1.303727-0.024975 19.298654-0.719298 34.356449-16.948449 33.637151-36.247103l-2.597464-69.609522a7.492683 7.492683 0 0 0-14.972878 0.559454z" fill="#524F75" /><path d="M632.494829 648.634068l-4.972644 97.394888c-0.881639 17.265639-15.137717 30.81241-32.423336 30.81241h-23.089951c-17.932488 0-32.468293-14.533307-32.468293-32.465795v-88.014049" fill="#E1975C" /><path d="M625.012137 648.251941l-4.972644 97.397386a24.973112 24.973112 0 0 1-24.940644 23.699356h-23.089951c-13.791532 0-24.97561-11.18158-24.97561-24.973112v-88.014049a7.492683 7.492683 0 0 0-14.985366 0v88.014049c0 22.068449 17.890029 39.958478 39.960976 39.958478h23.089951c21.27922 0 38.824585-16.673717 39.908527-37.925464l4.972644-97.394887a7.490185 7.490185 0 0 0-7.100566-7.862322 7.490185 7.490185 0 0 0-7.867317 7.100565z" fill="#524F75" /><path d="M444.565854 654.360976m-9.990244 0a9.990244 9.990244 0 1 0 19.980488 0 9.990244 9.990244 0 1 0-19.980488 0Z" fill="#524F75" /><path d="M539.473171 631.882927m-9.990244 0a9.990244 9.990244 0 1 0 19.980488 0 9.990244 9.990244 0 1 0-19.980488 0Z" fill="#524F75" /><path d="M539.123512 764.748176c15.557307 5.829307 28.604566 8.741463 39.144273 8.741463 10.53721 0 25.822283-3.908683 45.852722-11.728546l-7.058107 40.235707H547.51282L539.123512 764.748176z" fill="#EAE6DB" /><path d="M553.506966 794.504117h57.264078l3.721366-21.221776c-14.955395 5.117502-26.971161 7.69998-36.224625 7.699981-8.394302 0-18.014907-1.633405-28.904273-4.872742l4.143454 18.394537z m-11.75602-36.77159c14.785561 5.53959 26.998634 8.266927 36.516839 8.266927 9.40082 0 23.891668-3.703883 43.130381-11.214049 5.442185-2.125424 11.114146 2.520039 10.105132 8.274419l-7.058108 40.23321a7.492683 7.492683 0 0 1-7.380292 6.196449H547.51282a7.492683 7.492683 0 0 1-7.307864-5.84679l-8.389307-37.248625c-1.308722-5.809327 4.360741-10.749502 9.935297-8.661541z" fill="#524F75" /><path d="M539.370771 681.526946c0.649366 14.360976-1.01401 37.755629-4.990127 70.186459-2.092956 17.063337-17.12078 29.536156-34.276527 28.452215l-23.262283-1.471064c-17.015883-1.076449-30.297912-15.127727-30.417795-32.178576l-0.851668-36.983882" fill="#E1975C" /><path d="M531.888078 681.864117c0.62439 13.841483-1.01401 36.891473-4.942673 68.937678a24.970615 24.970615 0 0 1-26.366751 21.886127l-23.262283-1.471063a24.97561 24.97561 0 0 1-23.399649-24.75083l-0.854166-37.106263a7.492683 7.492683 0 0 0-14.980371 0.339668l0.849171 36.988878c0.144859 20.862127 16.493893 38.155239 37.435942 39.481444l23.262282 1.471064c21.116878 1.336195 39.613815-14.016312 42.1888-35.018303 4.023571-32.812956 5.711922-56.552273 5.037581-71.435239a7.492683 7.492683 0 1 0-14.967883 0.676839z" fill="#524F75" /><path d="M449.733307 766.14681c15.876995 4.610498 28.994185 6.913249 39.346576 6.913249s24.286283-3.281795 41.801678-9.847883L523.24402 801.717073h-68.325776l-5.184937-35.570263z" fill="#EAE6DB" /><path d="M461.396917 794.22439h55.693112l3.901191-19.6608c-12.625171 3.981112-23.229815 5.986654-31.90884 5.986654-8.544156 0-18.62681-1.418615-30.292917-4.233366l2.607454 17.907512z m-9.575649-35.273053c15.255102 4.425678 27.710439 6.613541 37.258615 6.613541 9.293424 0 22.423102-3.09198 39.174244-9.370849 5.497132-2.062985 11.121639 2.714849 9.980253 8.474225l-7.645034 38.507395a7.48519 7.48519 0 0 1-7.345326 6.034107h-68.325776a7.492683 7.492683 0 0 1-7.415259-6.411239l-5.182439-35.572761c-0.786732-5.392234 4.265834-9.792937 9.500722-8.274419z" fill="#524F75" /><path d="M367.141463 769.24878c16.90599 3.344234 30.642576 5.0176 41.209757 5.0176s24.303766-1.673366 41.209756-5.0176l-6.341308 32.468293h-69.736897L367.141463 769.24878z" fill="#EAE6DB" /><path d="M379.651746 794.22439h57.396449l3.049522-15.622244c-12.485307 2.100449-23.052488 3.156917-31.748995 3.156917s-19.263688-1.056468-31.748995-3.156917l3.052019 15.622244z m-11.056702-32.325931c16.46642 3.259317 29.748449 4.875239 39.756176 4.875239s23.289756-1.615922 39.756175-4.875239c5.224898-1.031493 9.827902 3.561522 8.8064 8.788917l-6.341307 32.468292a7.492683 7.492683 0 0 1-7.35282 6.056586h-69.736897a7.492683 7.492683 0 0 1-7.35282-6.056586l-6.341307-32.468292c-1.021502-5.229893 3.581502-9.82041 8.8064-8.788917z" fill="#524F75" /><path d="M400.236644 214.233288c0.49202 0.731785 0.874146 1.376156 1.141385 1.930614 11.4688 23.854205 20.907083 41.25721 33.227551 51.941776 13.759063 11.935844 32.370888 19.483473 55.835474 22.64039-4.8128 17.013385-9.171044 28.052605-13.069737 33.120156s-11.768507 12.008273-23.606946 20.824664c-18.716722-6.798361-35.392937-22.043473-50.031142-45.732839-13.59922-22.011005-19.628332-49.144507-13.029775-82.796644a5.267356 5.267356 0 0 1 9.53319-1.928117z" fill="#EAE6DB" /><path d="M408.128937 294.220176c11.703571 21.366634 25.162927 35.722615 40.303141 43.317697 9.827902-6.730927 16.436449-12.09319 19.668293-15.867005 2.747317-3.206868 6.36878-10.637112 10.56718-21.983531-20.639844-5.02759-37.301073-13.559259-49.866302-25.667435-10.799454-10.407337-18.659278-24.303766-30.130576-51.259941-5.472156 26.958673-1.985561 50.563122 9.458264 71.460215z m0.794224-85.051942c0.626888 1.04398 1.13639 2.020527 1.528507 2.95961 11.830946 28.314849 19.283668 41.984 28.749425 51.102595 11.983298 11.548722 28.846829 19.438517 50.760429 23.566985a7.492683 7.492683 0 0 1 5.706927 9.777952c-5.996644 17.615298-11.214049 29.041639-16.18919 34.850965-4.722888 5.512117-13.384429 12.38041-26.196918 20.922069-2.097951 1.398634-4.757854 1.64839-7.078087 0.664351-20.047922-8.494205-37.091278-25.792312-51.217483-51.58962-14.188644-25.9072-17.73518-55.49081-9.373347-88.788292a12.757541 12.757541 0 0 1 23.309737-3.466615z" fill="#524F75" /><path d="M472.039024 391.138029c-13.586732 3.042029-21.51399 6.069073-30.630087 7.217951-9.1136 1.148878-22.375649-1.85319-37.493386-7.217951l-10.674575-3.766322c-1.665873-1.091434-4.970146-3.246829-4.682927-6.151492 0.234771-2.36519 2.624937-4.877737 4.682927-6.62603 1.371161-1.166361 3.838751-2.807259 7.40277-4.92519 20.36761-11.45881 29.119063-15.479883 36.292059-18.249678 8.256937-3.18439 19.95801-5.43719 35.103219-6.755902" fill="#E1975C" /><path d="M398.096234 380.301112c0.969054-0.824195 3.149424-2.27278 6.376273-4.190907 17.692722-9.950283 26.976156-14.5408 35.163161-17.700215 7.492683-2.889678 18.549385-5.020098 33.05522-6.281366a7.49518 7.49518 0 0 0-1.298732-14.930419c-15.787083 1.373659-28.130029 3.748839-37.148722 7.230439-8.966244 3.459122-18.849093 8.344351-37.271102 18.709229-4.056039 2.405151-6.810849 4.238361-8.584117 5.746888-4.10599 3.49159-6.830829 7.013151-7.285386 11.596176-0.487024 4.92519 1.873171 8.481717 5.597034 11.433834 0.786732 0.62439 1.386146 1.038985 2.43762 1.725814 0.504507 0.329678 1.04398 0.596917 1.610927 0.796722l10.674575 3.766322c17.195707 6.104039 30.854868 8.853854 40.922537 7.585093a76.320468 76.320468 0 0 0 5.179941-0.839181c4.098498-0.801717 20.954537-5.337288 26.149464-6.501151a7.492683 7.492683 0 1 0-3.274303-14.623219c-5.696937 1.276254-22.285737 5.739395-25.754848 6.418731-1.446088 0.282224-2.817249 0.507005-4.173425 0.676839-7.153015 0.90162-18.876566-1.458576-34.049249-6.845814l-9.003707-3.176898c0.212293-0.19481 0.437073-0.394615 0.676839-0.596917z" fill="#524F75" /><path d="M441.496351 363.512507c2.430127-0.651863 7.272898-1.468566 14.53081-2.452605a10.462283 10.462283 0 0 1 11.601171 8.027161c1.198829 5.227395-1.481054 11.154107-6.616039 12.700098-6.613541 1.990556-12.587707 2.535024-14.680664 2.9696-2.482576 0.514498-9.041171 0.994029-17.300605 0-3.404176-0.4096-7.095571-1.061463-7.799883-4.480624-0.72679-3.539044 2.34521-8.129561 5.497132-9.895337 7.9872-4.081015 12.909893-6.371278 14.768078-6.868293z" fill="#FFE8A9" /><path d="M619.395122 383.250732a28.632039 28.597073 0 1 0 57.264078 0 28.632039 28.597073 0 1 0-57.264078 0Z" fill="#FFFFFF" /><path d="M648.027161 419.340488C628.079141 419.340488 611.902439 403.183766 611.902439 383.250732 611.902439 363.317698 628.079141 347.160976 648.027161 347.160976s36.124722 16.156722 36.124722 36.089756c0 19.933034-16.176702 36.089756-36.124722 36.089756z m0-14.985366c11.676098 0 21.139356-9.450771 21.139356-21.10439 0-11.65362-9.463259-21.10439-21.139356-21.104391S626.887805 371.597112 626.887805 383.250732c0 11.65362 9.463259 21.10439 21.139356 21.10439z" fill="#524F75" /><path d="M632.677151 391.947239a9.188527 9.188527 0 0 0 6.965698 3.18439 9.201015 9.201015 0 0 0 9.20601-9.193522c0-5.075044-4.120976-9.191024-9.20601-9.191024a9.198517 9.198517 0 0 0-9.203512 9.006205l6.823336 0.989034-4.585522 5.204917z" fill="#232323" /><path d="M574.439024 369.639024m-39.960975 0a39.960976 39.960976 0 1 0 79.921951 0 39.960976 39.960976 0 1 0-79.921951 0Z" fill="#FFFFFF" /><path d="M574.439024 417.092683C548.22962 417.092683 526.985366 395.845932 526.985366 369.639024S548.22962 322.185366 574.439024 322.185366s47.453659 21.246751 47.453659 47.453658-21.244254 47.453659-47.453659 47.453659z m0-14.985366c17.932488 0 32.468293-14.535805 32.468293-32.468293S592.371512 337.170732 574.439024 337.170732 541.970732 351.706537 541.970732 369.639024s14.535805 32.468293 32.468292 32.468293z" fill="#524F75" /><path d="M577.473561 385.293737A12.487805 12.487805 0 0 0 599.414634 377.131707a12.487805 12.487805 0 1 0-24.97561-0.254751l9.258459 1.346185-6.223922 7.070596z" fill="#232323" /><path d="M577.103922 418.214088c15.9744-2.56999 27.757893-3.771317 35.345483-3.601483 7.632546 0.169834 18.866576 1.553483 33.69959 4.150946a82.419512 82.419512 0 0 1 65.895649 61.812137l3.042029 12.58521c7.882302 32.598166-12.150634 65.41362-44.7488 73.295922a61.539902 61.539902 0 0 1-4.707902 0.94158c-28.224937 4.503102-45.950127 6.845815-53.180566 7.033132-7.115551 0.179824-23.966595-1.9456-50.553132-6.386264-35.502829-5.92921-59.629268-39.316605-54.109658-74.886868l0.964058-6.211434a82.424507 82.424507 0 0 1 68.353249-68.732878z" fill="#FFE6A2" /><path d="M578.295259 425.611863a74.926829 74.926829 0 0 0-62.139318 62.486478l-0.964058 6.208937c-4.890224 31.514224 16.4864 61.092839 47.938185 66.347707 26.064546 4.350751 42.683317 6.448702 49.127025 6.283864 6.763395-0.172332 24.341229-2.497561 52.191531-6.938225a53.814946 53.814946 0 0 0 4.125971-0.826692c28.574595-6.913249 46.139941-35.677659 39.226693-64.252254l-3.042029-12.58521a74.926829 74.926829 0 0 0-59.904-56.192624c-14.493346-2.537522-25.3952-3.88121-32.575688-4.041054-7.025639-0.157346-18.42201 1.00402-33.984312 3.509073z m-2.380176-14.795551c16.388995-2.637424 28.557112-3.876215 36.701658-3.69639 8.087102 0.179824 19.65081 1.605932 34.823493 4.260839a89.909698 89.909698 0 0 1 71.8848 67.431649l3.044527 12.58521c8.856351 36.619239-13.651668 73.483239-50.270907 82.33959-1.748293 0.422088-3.511571 0.776741-5.287337 1.058966-28.597073 4.560546-46.46962 6.923239-54.167102 7.123044-7.7824 0.199805-24.868215-1.95559-51.979239-6.483669-39.551376-6.606049-66.427629-43.799727-60.278635-83.426029l0.964059-6.211434c5.974166-38.51239 36.084761-68.790322 74.564683-74.981776z" fill="#524F75" /><path d="M610.366439 509.415024c5.681951-4.825288 9.028683-11.69358 9.028683-19.098848 0-15.542322-10.215024-26.269346-27.695454-25.752352-17.368039 0.514498-27.250888 10.56718-27.250888 25.752352a7.492683 7.492683 0 0 0 14.985366 0c0-7.038127 3.39918-10.497249 12.710088-10.771981 8.758946-0.259746 12.265522 3.424156 12.265522 10.771981 0 2.889678-1.333698 5.629502-3.741346 7.672507a7.492683 7.492683 0 1 0 9.698029 11.426341z" fill="#524F75" /><path d="M589.70162 496.627512c3.678907 0 9.71801-2.052995 9.670556-7.220449-0.047454-5.169951-5.991649-7.222946-9.670556-7.222946s-6.660995 4.995122-6.660996 8.356839 2.984585 6.086556 6.660996 6.086556z" fill="#F9D679" /><path d="M653.399415 509.415024c-5.681951-4.825288-9.028683-11.69358-9.028683-19.098848 0-15.542322 10.215024-26.269346 27.695453-25.752352 17.368039 0.514498 27.250888 10.56718 27.250888 25.752352a7.492683 7.492683 0 0 1-14.985366 0c0-7.038127-3.39918-10.497249-12.710087-10.771981-8.758946-0.259746-12.265522 3.424156-12.265522 10.771981 0 2.889678 1.333698 5.629502 3.741346 7.672507a7.492683 7.492683 0 1 1-9.698029 11.426341z" fill="#524F75" /><path d="M671.566673 496.627512c-3.678907 0-9.71801-2.052995-9.670556-7.220449 0.047454-5.169951 5.991649-7.222946 9.670556-7.222946s6.660995 4.995122 6.660995 8.356839-2.984585 6.086556-6.660995 6.086556z" fill="#F9D679" /></svg>