<?xml version="1.0" encoding="utf-8"?>
<!-- Uploaded to: SVG Repo, www.svgrepo.com, Generator: SVG Repo Mixer Tools -->
<svg width="800px" height="800px" viewBox="0 0 1024 1024" class="icon"  version="1.1" xmlns="http://www.w3.org/2000/svg"><path d="M583.739941 354.691122c-0.069932-27.822829 5.107512-41.244722 16.15922-61.290146 7.927259-14.383454 16.114263-22.887649 33.399883-41.287181 15.232624-13.144663 35.452878-15.232624 49.17198-3.688897l3.094478 2.602458c11.598673 9.765463 13.112195 27.076059 3.376703 38.669737a27.62802 27.62802 0 0 1-4.428176 4.20839c-18.352078 13.90642-29.111571 23.537015-33.40238 29.678517-6.161483 8.811395-11.603668 22.480546-14.435903 43.245268" fill="#74C6B1" /><path d="M677.650732 254.159298l3.09198 2.602458c8.439259 7.103063 9.535688 19.693268 2.465093 28.117542a19.938029 19.938029 0 0 1-3.216859 3.057014c-18.764176 14.218615-30.075629 24.283785-35.015805 31.356878-7.580098 10.839415-12.954849 26.236878-15.717151 46.524566a7.492683 7.492683 0 1 0 14.848 2.023024c2.4576-18.084839 7.063102-31.254478 13.149659-39.960975 3.746341-5.362263 14.25358-14.715629 31.783961-28.002654a34.72359 34.72359 0 0 0 5.639492-5.362263c12.397893-14.760585 10.472273-36.799063-4.290809-49.216937l-3.094478-2.602458c-16.516371-13.903922-40.780176-11.885893-58.889991 3.746341-0.19481 0.167337-0.387122 0.349659-0.561951 0.539473-10.357385 11.019239-12.317971 13.12718-15.946927 17.200703-5.7344 6.448702-9.85038 11.658615-13.549268 17.275629a124.935493 124.935493 0 0 0-5.012605 8.324371c-13.029776 23.641912-17.155746 38.0928-17.09081 64.924097a7.492683 7.492683 0 0 0 14.980371-0.039961c-0.059941-24.126439 3.371707-36.12722 15.230127-57.653697a108.903649 108.903649 0 0 1 4.4032-7.317854c3.25682-4.945171 6.938224-9.608117 12.230556-15.557307 3.459122-3.8912 5.394732-5.974166 15.384976-16.601288 12.829971-10.879376 28.771902-12.133151 39.179239-3.376702z" fill="#524F75" /><path d="M786.137288 466.896546c-1.166361 59.054829-4.795317 88.600976-8.466732 108.099434-3.928663 20.862127-13.212098 46.482107-27.855297 76.867435L686.829268 628.156566c23.03001-30.902322 38.39001-53.507746 46.087493-67.813776 7.215454-13.401912 20.48999-42.016468 44.753795-98.08921 1.446088-3.032039 3.354224-4.11598 5.71442-3.254321 3.541541 1.286244 2.772293 6.883278 2.752312 7.897287z" fill="#FFFFFF" /><path d="M739.517815 563.891824c-7.227941 13.42439-20.789698 33.624663-40.7552 60.745678l47.243863 17.780137c12.682615-27.12601 20.779707-50.096078 24.301268-68.8128 4.163434-22.113405 6.838322-50.398283 8.039649-94.100605-19.288663 44.271766-31.649093 71.040624-38.82958 84.38759z m45.028526-98.668644l-0.024975-0.00999a2.812254 2.812254 0 0 1-0.229776 0.197308l0.139864 0.067434a1.93561 1.93561 0 0 1 0.052448-0.1024c0.017483-0.049951 0.042459-0.099902 0.062439-0.152352z m0.487025 111.156449c-4.068527 21.593912-13.566751 47.805815-28.4672 78.733112a7.492683 7.492683 0 0 1-9.390829 3.75883l-62.985991-23.706849a7.500176 7.500176 0 0 1-3.374205-11.491278c22.827707-30.62759 38.022868-52.988254 45.500566-66.884683 7.655024-14.221112 21.766244-45.033522 44.479064-97.519766 3.072-6.453698 8.716488-9.668059 15.1552-7.317854 4.52558 1.650888 6.800859 5.357268 7.512663 9.725503 0.277229 1.693346 0.29721 3.19438 0.189815 4.942673-1.046478 52.291434-3.893698 84.662322-8.619083 109.760312zM793.629971 467.043902c0 0.00999 0 0.01998-0.004995 0.027474 0.004995-0.00999 0.004995-0.01998 0.004995-0.027474z" fill="#524F75" /><path d="M439.098693 602.95118c3.29678 25.572527 0.83918 42.19879 0 53.667591s-3.311766 21.316683-13.114693 62.116839H399.772098c-29.243941-34.226576-45.513054-60.361054-48.804839-78.398439a381.107824 381.107824 0 0 1-5.926713-54.811473" fill="#74C6B1" /><path d="M399.772098 711.242927l5.696936 2.629932c-0.751766-0.884137-1.496039-1.755785-2.230322-2.629932h-3.466614z m20.30517 0c9.73799-40.565385 10.647102-44.921132 11.421347-53.590166 0.047454-0.52199 0.089912-1.04398 0.127375-1.580956 0.084917-1.168859 0.187317-2.395161 0.332176-4.07602 0 0 0.29721-3.351727 0.382127-4.358244 1.348683-15.717151 1.393639-27.682966-0.674342-43.732292a7.48519 7.48519 0 0 1 6.473678-8.384312 7.487688 7.487688 0 0 1 8.389308 6.473678c2.225327 17.253151 2.175376 30.230478 0.741775 46.926673l-0.384624 4.383219c-0.142361 1.615922-0.237268 2.777288-0.31719 3.86123-0.044956 0.6144-0.094907 1.21881-0.147357 1.820722-0.906615 10.177561-1.83321 14.393444-13.154653 61.502439a7.490185 7.490185 0 0 1-7.285386 5.746887H399.772098a7.492683 7.492683 0 0 1-5.696937-2.629931c-30.050654-35.173151-46.87922-62.211746-50.478205-81.924995a387.873717 387.873717 0 0 1-6.044097-55.882927 7.490185 7.490185 0 0 1 7.220448-7.75243 7.48519 7.48519 0 0 1 7.754927 7.217952 372.910829 372.910829 0 0 0 5.811825 53.727531c2.907161 15.931941 17.870049 40.268176 44.898653 72.259435h16.838556v-0.007493z" fill="#524F75" /><path d="M411.255883 708.717893a20.86962 20.86962 0 0 1 20.872117 20.869619v5.187434H390.383766v-5.187434a20.872117 20.872117 0 0 1 20.872117-20.869619z" fill="#D6805E" /><path d="M411.255883 716.210576a13.384429 13.384429 0 0 0-13.182127 11.076683h26.364254a13.381932 13.381932 0 0 0-13.182127-11.076683z m0-14.985366c15.664702 0 28.3648 12.6976 28.3648 28.362302v5.187434a7.492683 7.492683 0 0 1-7.492683 7.492683H390.383766a7.492683 7.492683 0 0 1-7.492683-7.492683v-5.187434c0-15.664702 12.700098-28.362302 28.3648-28.362302z" fill="#524F75" /><path d="M656.386498 602.95118c3.29678 25.572527 0.83918 42.19879 0 53.667591s-3.311766 21.316683-13.112196 62.116839h-26.216897c-29.243941-34.226576-45.510556-60.361054-48.804839-78.398439a381.819629 381.819629 0 0 1-5.926712-54.811473" fill="#74C6B1" /><path d="M617.057405 711.242927l5.696936 2.629932c-0.754263-0.884137-1.501034-1.755785-2.232819-2.629932h-3.464117z m20.307668 0c9.732995-40.565385 10.647102-44.921132 11.418849-53.590166 0.047454-0.52199 0.084917-1.04398 0.127376-1.580956 0.087415-1.168859 0.18482-2.395161 0.334673-4.07602l0.382127-4.358244c1.346185-15.717151 1.396137-27.682966-0.676839-43.732292a7.482693 7.482693 0 0 1 6.473678-8.384312 7.48519 7.48519 0 0 1 8.386809 6.473678c2.225327 17.253151 2.175376 30.230478 0.744274 46.926673-0.089912 1.028995-0.387122 4.400702-0.382127 4.383219a212.362615 212.362615 0 0 0-0.319688 3.86123 82.669268 82.669268 0 0 1-0.147356 1.820722c-0.906615 10.177561-1.83321 14.393444-13.159649 61.502439a7.487688 7.487688 0 0 1-7.282888 5.746887h-26.206907a7.482693 7.482693 0 0 1-5.694439-2.629931c-30.050654-35.173151-46.87922-62.211746-50.478205-81.924995a388.230868 388.230868 0 0 1-6.046595-55.882927 7.48519 7.48519 0 0 1 7.220449-7.75243 7.48519 7.48519 0 0 1 7.754926 7.220449 373.610146 373.610146 0 0 0 5.809327 53.730029c2.907161 15.931941 17.870049 40.265678 44.903649 72.25444h16.838556v-0.007493z" fill="#524F75" /><path d="M628.543688 708.717893a20.867122 20.867122 0 0 1 20.869619 20.869619v5.187434h-41.739239v-5.187434a20.86962 20.86962 0 0 1 20.86962-20.869619z" fill="#D6805E" /><path d="M628.543688 716.210576a13.381932 13.381932 0 0 0-13.182127 11.076683h26.366751a13.386927 13.386927 0 0 0-13.184624-11.076683z m0-14.985366c15.664702 0 28.362302 12.6976 28.362302 28.362302v5.187434a7.492683 7.492683 0 0 1-7.492683 7.492683h-41.739239c-4.135961 0-7.492683-3.356722-7.492683-7.492683v-5.187434c0-15.664702 12.6976-28.362302 28.362303-28.362302z" fill="#524F75" /><path d="M619.395122 357.113756c-12.857444-45.857717-33.677112-73.832898-62.468995-83.928039 5.354771 17.415493 8.456741 26.171941 8.456741 36.696663-18.172254-7.849834-46.646946-15.010341-69.332292-15.010341-15.122732 0-38.0928 7.195473-68.907708 21.588917 27.890263 4.545561 46.744351 12.355434 56.567259 23.427122-27.303337-3.986107-73.960273-0.844176-90.077034 12.330459 23.641912 0.779239 45.66041 1.983063 60.728195 21.733775-28.676995 1.718322-87.964098-1.361171-115.821893 23.564488 20.247727 1.930615 54.296976 8.981229 55.0912 17.19321 0.796722 8.214478-53.512741 13.476839-68.593015 37.031336 23.197346-2.020527 24.805776 8.102088 26.738888 31.504234 1.933112 23.402146 74.507239 1.223805 139.985795-31.504234 43.657366-21.82119 86.198322-53.362888 127.632859-94.62759z" fill="#7B7795" /><path d="M549.76562 275.386068c-1.805737-5.874263 3.843746-11.303961 9.643082-9.270946 31.449288 11.029229 53.747512 40.984976 67.199376 88.97561a7.49518 7.49518 0 0 1-1.925619 7.330341c-41.976507 41.806673-85.161834 73.825405-129.565971 96.018732-33.839454 16.913483-68.680429 30.632585-95.336898 37.363512-14.425912 3.643941-26.289327 5.224898-35.163161 4.455649-11.608663-1.00402-19.473483-6.376273-20.302673-16.398986-2.003044-24.233834-3.206868-25.99961-18.621815-24.658419-6.193951 0.539473-10.312429-6.26638-6.960702-11.503766 6.616039-10.33241 18.526907-17.690224 36.012332-24.38119 2.614946-0.999024 17.570341-5.991649 26.286829-9.20601-2.614946-1.048976-5.866771-2.107941-9.61561-3.126946-10.020215-2.724839-23.032507-5.005112-33.584702-6.011629-6.503649-0.619395-9.153561-8.686517-4.285815-13.042264 14.03879-12.560234 34.930888-19.303649 62.621347-22.44558 11.815961-1.34119 20.227746-1.793249 39.456468-2.3552-9.223493-5.035083-21.721288-6.74841-42.236254-7.422752-6.918244-0.227278-9.852878-8.9088-4.49561-13.289522 11.915863-9.742985 38.839571-15.17518 65.40363-15.689678-7.8848-2.769795-17.338068-5.075044-28.357308-6.87079-7.275395-1.186341-8.644059-11.064195-1.96558-14.183649 31.73401-14.820527 55.580722-22.290732 72.077112-22.290731 18.264663 0 41.339629 4.49561 60.52839 11.091668-0.904117-3.826263-2.689873-9.685541-6.810848-23.087454zM342.30322 445.797151l0.629385-0.387122c-0.212293 0.127376-0.422088 0.254751-0.629385 0.387122z m17.83758-52.721014l0.129873-0.052449-0.129873 0.052449z m209.030868-105.392078l0.154849 0.104897a2.107941 2.107941 0 0 1-0.154849-0.104897zM342.932605 445.407532l-0.629385 0.387122c4.313288 1.550985 7.68999 4.148449 10.274965 7.944741 4.11598 6.044098 5.309815 12.445346 6.668488 28.884293 0.107395 1.308722 1.493541 2.257795 6.658498 2.704858 6.885776 0.59442 17.253151-0.784234 30.203005-4.056039 25.500098-6.44121 59.364527-19.77319 92.307356-36.239609 41.801678-20.894595 82.651785-50.922771 122.545327-90.116996-9.760468-32.658107-23.681873-54.898888-41.634342-67.126946 2.420137 8.654049 2.712351 10.752 3.249327 16.081795 0.199805 2.000546 0.299707 3.988605 0.299707 6.009132 0 5.387239-5.517112 9.013698-10.459785 6.878283-18.996449-8.204488-46.312273-14.395941-66.360195-14.395942-10.302439 0-25.285307 3.886205-44.726322 11.706069 17.318088 4.940176 29.98322 11.815961 37.992897 20.842146 4.637971 5.227395 0.227278 13.396917-6.68597 12.387902-17.000898-2.482576-38.18521-1.95559-55.498303 0.894127 0.691824 0.174829 1.386146 0.359649 2.082966 0.551961 12.79001 3.546537 23.032507 10.077659 31.104624 20.657327 3.638946 4.767844 0.477034 11.666107-5.509619 12.020761-3.716371 0.222283-7.552624 0.364644-14.585756 0.559454-21.816195 0.6144-30.305405 1.019005-42.368625 2.390166-14.952898 1.695844-27.515629 4.503102-37.588292 8.644058 5.199922 1.063961 10.412332 2.235317 15.080273 3.504078 16.051824 4.365737 24.913171 8.883824 25.744858 17.460449 0.462049 4.760351-2.107941 7.932254-6.134009 10.409834-4.475629 2.75481-33.062712 12.230556-34.858459 12.917385-6.825834 2.614946-12.552741 5.292332-17.173229 8.099591z" fill="#524F75" /><path d="M282.781346 578.117932c-35.617717 5.567063-55.393405-0.761756-62.216741-21.234264-5.174946-15.532332-1.92562-38.035356 2.939629-52.451278 4.110985-12.1856 11.658615-30.173034 24.670907-41.899083l-2.714848-4.847766c-20.392585 10.729522-36.661698 28.424741-42.331161 45.220839-6.456195 19.133815-9.550673 39.846088-2.422634 61.237698 10.86439 32.608156 38.632273 57.823532 85.788722 50.455727l-3.713874-36.481873z" fill="#74C6B1" /><path d="M281.624976 570.712663a7.492683 7.492683 0 0 1 8.61159 6.643513l3.716371 36.481873a7.492683 7.492683 0 0 1-6.296352 8.162029c-46.824273 7.317854-80.636254-15.215141-94.055648-55.49081-7.000663-21.009483-5.567063-42.303688 2.432624-66.003044 6.386263-18.919024 24.143922-37.985405 45.940137-49.454204a7.492683 7.492683 0 0 1 10.025209 2.9696l2.714849 4.847765a7.490185 7.490185 0 0 1-1.521015 9.225991c-9.780449 8.811395-17.058341 22.340683-22.587941 38.729678-5.309815 15.737132-6.95321 35.620215-2.929639 47.688429 5.327298 15.991883 21.179317 21.31918 53.949815 16.19918zM210.229698 505.299044c-7.038127 20.854634-8.256937 38.936976-2.412644 56.472351 10.502244 31.524215 34.965854 49.319337 70.48117 46.27481l-2.185365-21.471532c-34.401405 3.90119-55.023766-4.42318-62.653815-27.328312-5.21241-15.64722-3.311766-38.659746 2.949619-57.214127 2.227824-6.603551 4.717893-12.81998 7.545132-18.579356-6.436215 6.978185-11.259005 14.548293-13.724097 21.846166z m38.722185-40.984976l-3.489093-6.631024-6.536117 3.661424 2.714849 4.847766 6.536117-3.661424-5.015102-5.567064c-7.814868 7.040624-14.068761 16.011863-19.208742 26.486634 6.815844-7.387785 15.444917-14.108722 24.998088-19.136312z" fill="#524F75" /><path d="M226.698615 414.035668c3.29678 8.838868 4.59801 21.281717 9.151063 27.570576 4.513093-8.639063 19.306146-29.576117 26.349268-26.474146-5.000117 9.50322-9.320898 27.772878-8.878829 34.458848 14.068761-8.681522 24.818263-7.307863 34.935883-4.408195-14.001327 17.308098-33.604683 27.837815-43.420098 31.386849-9.815415 3.549034-15.197659 0.569444-23.412136-8.656546-8.214478-9.22599-5.085034-42.196293 5.274849-53.877386z" fill="#7B7795" /><path d="M226.746068 462.528312c6.798361 7.909776 9.151063 8.9088 15.152703 6.858303 9.443278-3.229346 21.014478-9.895337 30.899824-18.496937-5.11001 0.189815-9.980254 1.813229-15.699668 5.204917-4.855259 2.879688-11.031727-0.439571-11.306459-6.079063-0.149854-3.074498 0.42958-7.565112 1.493542-12.527766-1.920624 2.707356-3.606478 5.34478-4.755356 7.455219-2.6624 4.890224-9.538185 5.269854-12.725074 0.704313-1.815727-2.602459-3.069502-5.312312-4.265834-9.173542-2.122927 10.697054-1.988059 22.338185 1.206322 26.054556z m63.725269-23.841717c5.132488 1.568468 7.000663 7.86482 3.554029 11.978303-12.99481 15.504859-32.023727 27.685463-47.281327 32.90037-12.6976 4.340761-20.964527 0.831688-31.364371-11.271492-10.779473-12.542751-6.531122-49.67399 6.381269-63.727766 3.823766-4.160937 10.699551-2.75481 12.582712 2.572488 1.101424 3.121951 1.805737 5.831805 3.161912 11.701073l0.302205 1.303727 0.169834 0.729287a104.423024 104.423024 0 0 1 4.927688-5.946692c8.344351-9.283434 15.387473-13.888937 22.987551-10.379864a7.492683 7.492683 0 0 1 3.429151 10.407337c-2.442615 4.450654-4.965151 11.843434-6.638517 18.419512 9.008702-2.492566 17.700215-1.768273 27.787864 1.313717z" fill="#524F75" /><path d="M524.642654 689.326829c33.609678 0 106.223766-6.641015 217.847258-19.928039 15.867005-0.469541 37.306068-0.571941 43.187825-15.292566 13.614205-34.081717 21.036956-49.906263 21.036956-79.737131 0-22.300722-72.848859-12.033249-95.63161-78.163669-6.993171-20.29518-43.9296-70.296351-54.846439-135.767414-3.559024-21.346654-23.547005-35.939902-44.998556-32.845425l-112.492644 16.224156a39.786146 39.786146 0 0 0-21.346654 10.157581c-4.305795 3.976117-33.901893 28.7744-44.094439 35.313015-19.43602 12.470322-35.760078 24.193873-55.980331 39.903531-29.493698 22.915122-48.462673 39.513912-76.829971 79.747122-8.037151 11.398868-25.515083 44.573971-27.600547 65.431103-1.393639 13.901424-0.576937 26.903727 2.445113 39.004409 6.456195 25.152937 32.857912 64.82919 70.566087 65.885659 85.546459 6.710946 145.123278 10.067668 178.737952 10.067668z" fill="#6BD2B7" /><path d="M524.642654 696.819512c-33.839454 0-93.508683-3.35922-179.142556-10.072663-19.533424-0.609405-37.393483-10.294946-52.116605-26.321795-12.168117-13.244566-21.486517-30.307902-25.315278-45.233327-3.239337-12.957346-4.110985-26.826302-2.634927-41.566907 1.915629-19.131317 16.933463-51.979239 28.934244-69.002615 25.82478-36.626732 42.89561-53.794966 78.358478-81.348059 20.924566-16.256624 37.358517-27.992663 56.529795-40.290653 7.87481-5.052566 36.002341-27.995161 43.057951-34.511298a47.276332 47.276332 0 0 1 25.362732-12.070712l112.495141-16.224156c25.475122-3.673912 49.224429 13.661659 53.4528 39.029385 4.353249 26.119493 13.089717 51.252449 25.844761 77.851473 4.820293 10.05518 26.341776 49.881288 28.694478 56.70962 7.530146 21.843668 21.031961 35.864976 40.765191 45.910166 5.327298 2.712351 10.904351 5.052566 17.830087 7.605073 1.725815 0.63438 13.371941 4.750361 16.411474 5.924215 14.173659 5.464663 21.031961 10.87438 21.03196 21.164331 0 13.154654-1.376156 24.133932-4.338263 35.467864-2.962107 11.321444-3.042029 11.531239-17.228176 47.049053-5.164956 12.927376-17.380527 17.979941-36.2496 19.413542-3.56402 0.267239-6.074068 0.364644-12.4928 0.551961-112.590049 13.32199-185.269073 19.965502-219.250887 19.965502z m0-14.985366c33.205073 0 105.649327-6.623532 216.955629-19.873092 1.263766-0.067434 1.263766-0.067434 1.865678-0.084917 6.178966-0.177327 8.544156-0.269737 11.783493-0.516996 13.674146-1.038985 21.106888-4.110985 23.467083-10.032702 13.819005-34.586224 13.9264-34.868449 16.651239-45.28078 2.637424-10.077659 3.851239-19.788176 3.851239-31.676566 0-1.668371-2.742322-3.823766-11.441327-7.185483-2.797268-1.081444-14.291044-5.144976-16.191688-5.844293-7.435239-2.737327-13.521795-5.294829-19.448507-8.309385-22.990049-11.701073-39.249171-28.577093-48.137991-54.381893-1.878166-5.459668-22.737795-44.054478-28.042614-55.113678-13.312-27.772878-22.498029-54.18958-27.108527-81.862556-2.88718-17.328078-19.113834-29.176507-36.53682-26.663961l-112.492643 16.224156a32.283473 32.283473 0 0 0-17.333074 8.246946c-7.645034 7.058107-36.384468 30.502712-45.133424 36.114732-18.769171 12.040741-34.840976 23.519532-55.425873 39.511415-34.358946 26.696429-50.40078 42.828176-75.303961 78.148683-10.647102 15.100254-24.65842 45.745327-26.271844 61.864585-1.308722 13.064741-0.546966 25.205385 2.250302 36.391961 7.655024 29.838361 34.863454 59.456937 63.517971 60.258654 85.733776 6.718439 145.163239 10.065171 178.525659 10.06517z" fill="#524F75" /><path d="M366.669424 612.941424c3.29678 25.572527 0.83918 37.203668 0 48.672469s-3.311766 16.321561-13.114692 57.121717H327.342829C298.098888 684.509034 281.829776 658.374556 278.53799 640.337171A381.107824 381.107824 0 0 1 272.611278 585.525698" fill="#76CEB7" /><path d="M327.342829 711.242927l5.696937 2.629932c-0.751766-0.884137-1.496039-1.755785-2.230322-2.629932h-3.466615z m31.376859-45.657912c0.2048-1.4336 0.357151-2.882185 0.477034-4.518088a206.695649 206.695649 0 0 1 0.529483-5.926712l0.19481-1.980566c1.343688-13.716605 1.383649-23.237307-0.681835-39.264156a7.48519 7.48519 0 0 1 6.473679-8.384313 7.487688 7.487688 0 0 1 8.389307 6.473679c2.225327 17.258146 2.180371 27.87278 0.734283 42.638361l-0.19481 1.98556-0.184819 1.913132a173.163395 173.163395 0 0 0-0.312196 3.638947 81.877541 81.877541 0 0 1-0.584429 5.532097c-0.831688 5.864273-10.344898 42.923083-12.71758 52.795942a7.490185 7.490185 0 0 1-7.285386 5.746887H327.342829a7.492683 7.492683 0 0 1-5.696936-2.629931C291.595239 688.432702 274.766673 661.394107 271.167688 641.680859A387.873717 387.873717 0 0 1 265.12359 585.797932a7.492683 7.492683 0 1 1 14.975376-0.534478 372.910829 372.910829 0 0 0 5.811824 53.727531c2.907161 15.931941 17.870049 40.268176 44.898654 72.259435h16.868527c3.56402-14.383454 10.439805-41.432039 11.041717-45.665405z" fill="#524F75" /><path d="M362.146341 589.42439m-9.990243 0a9.990244 9.990244 0 1 0 19.980487 0 9.990244 9.990244 0 1 0-19.980487 0Z" fill="#524F75" /><path d="M338.826615 708.717893a20.86962 20.86962 0 0 1 20.872117 20.869619v5.187434H317.954498V729.587512a20.872117 20.872117 0 0 1 20.872117-20.869619z" fill="#D6805E" /><path d="M338.826615 716.210576a13.384429 13.384429 0 0 0-13.182127 11.076683h26.364253a13.381932 13.381932 0 0 0-13.182126-11.076683z m0-14.985366c15.664702 0 28.3648 12.6976 28.3648 28.362302v5.187434a7.492683 7.492683 0 0 1-7.492683 7.492683H317.954498a7.492683 7.492683 0 0 1-7.492683-7.492683V729.587512c0-15.664702 12.700098-28.362302 28.3648-28.362302z" fill="#524F75" /><path d="M809.766712 584.546654c1.585951 25.317776 1.693346 43.262751 0.322186 53.839922-2.062985 15.86201-23.322224 19.458498-45.195864 17.560351-21.878634-1.903141-53.857405-16.101776-52.181541-33.384898 1.121405-11.518751 7.537639-28.155005 19.243707-49.906263 12.610185-23.564488 33.754537-38.934478 48.942205-37.05881 15.190166 1.873171 27.253385 22.358166 28.869307 48.949698z" fill="#9DDFCE" /><path d="M803.580254 590.203629c1.441093-23.452098-6.528624-41.766712-17.023376-44.386653-11.521249-2.879688-31.594146 8.616585-45.160898 27.875278-13.74158 19.413541-21.736273 34.391415-23.986575 44.486556-2.112937 9.478244 20.107863 25.904702 41.961522 30.537678 21.781229 4.615493 36.03481 1.928117 38.18521-6.453698 2.502556-9.740488 4.535571-27.185951 6.024117-52.059161z m14.955395 0.909112c-1.536 25.754849-3.663922 43.962068-6.463688 54.878908-4.975141 19.366088-26.95118 23.502049-55.812995 17.390517-29.07161-6.161483-58.120741-27.640507-53.475278-48.452683 2.779785-12.497795 11.58119-28.981698 26.366751-49.876293 16.736156-23.76679 42.366127-38.444956 61.04039-33.774517 19.178771 4.800312 30.180527 30.063141 28.34482 59.834068z" fill="#524F75" /><path d="M776.097093 570.755122c2.222829 0.459551 2.789776 5.122498 1.800741 10.769483l-5.454673 35.385444c-1.418615 5.269854-6.878283 8.3968-12.180605 6.985678-5.307317-1.408624-8.459239-6.825834-7.035629-12.100683l15.557307-32.340917c2.400156-5.327298 5.095024-9.153561 7.312859-8.699005zM793.937171 573.340098c2.16039 0.444566 2.445112 4.508098 2.445112 10.162575v36.729132c-0.859161 5.387239-5.956683 9.066146-11.381385 8.21198-5.429698-0.854166-9.126088-5.914224-8.271922-11.298965l10.122614-34.945874c1.593444-5.262361 4.92519-9.295922 7.085581-8.858848z" fill="#5EA895" /><path d="M577.161366 580.757854c3.836254 0.519493 21.856156 7.008156 28.746927 11.041717 20.952039 12.263024 52.381346 35.742595 72.092097 39.801131 60.146263 12.385405 97.150127 7.712468 118.431844 6.698459 11.96082-0.571941 19.685776 7.225444 20.245229 19.368585 0.017483 0.342166 0.024976 0.684332 0.024976 1.026498 0 12.78002-7.682498 20.082888-20.270205 20.082888-19.685776 0-39.324098-7.400273-58.542829-7.400273-0.864156 0-79.884488 7.400273-80.453932 7.400273" fill="#6BD2B7" /><path d="M576.157346 588.183102c3.331746 0.452059 20.512468 6.890771 25.964644 10.082654 3.361717 1.968078 7.140527 4.31079 12.17561 7.525151 2.135415 1.361171 11.296468 7.257912 13.71161 8.798908 3.059512 1.950595 5.736898 3.638946 8.296897 5.224897 17.430478 10.784468 29.853346 17.000898 40.180761 19.123825 41.469502 8.539161 71.170498 9.835395 107.609912 7.602575 1.483551-0.089912 6.191454-0.38962 6.785874-0.424585 2.462595-0.154849 4.258341-0.259746 5.901736-0.337171 7.570107-0.362146 12.023259 3.966127 12.410381 12.228059 0.00999 0.229776 0.014985 0.457054 0.014985 0.684331 0 8.491707-4.17842 12.58521-12.777522 12.58521-7.58759 0-13.938888-0.894127-28.050107-3.569015-15.220137-2.879688-21.863649-3.831259-30.492722-3.831258-0.766751 0-6.508644 0.53198-40.917542 3.721366-18.844098 1.748293-39.706224 3.678907-39.53639 3.678907a7.492683 7.492683 0 0 0 0 14.985366c0.53198 0 0.72679-0.01998 13.379434-1.188839l12.79001-1.186342 14.63321-1.358673c20.957034-1.943102 39.683746-3.668917 39.643785-3.668917 7.370302 0 13.42439 0.866654 27.707942 3.569015 15.035317 2.84722 22.00601 3.831259 30.84238 3.831258 16.806088 0 27.762888-10.73202 27.762888-27.57557 0-0.459551-0.00999-0.914107-0.034966-1.376156-0.751766-16.331551-12.018263-27.268371-28.085073-26.499122-1.73081 0.079922-3.591493 0.187317-6.121522 0.347161l-6.773385 0.424585c-35.2256 2.16039-63.647844 0.916605-103.668761-7.322849-8.044644-1.65838-19.356098-7.315356-35.323005-17.19321a672.13362 672.13362 0 0 1-8.119571-5.112507c-2.377678-1.518517-11.543727-7.420254-13.709112-8.801405-5.184937-3.306771-9.111102-5.74439-12.672625-7.827356-7.060605-4.130966-26.077034-11.264-31.521717-12.00078a7.497678 7.497678 0 0 0-2.008039 14.860487z" fill="#524F75" /><path d="M595.570888 619.082927c2.205346 20.360117-1.128898 40.358088-3.803786 49.439219-2.669893 9.083629-7.712468 28.212449-16.92597 52.209015h-26.479142c-29.243941-34.259044-38.782127-46.164917-42.073912-64.219785-3.291785-18.054868-5.199922-21.686322-5.859278-40.200742" fill="#76CEB7" /><path d="M569.658693 713.238478h-17.845073c-29.89081-35.108215-35.527805-43.674849-38.15524-58.07079-0.954068-5.254868-3.514068-17.685229-3.863726-19.648312-1.038985-5.796839-1.580956-11.119141-1.878166-19.473483a7.492683 7.492683 0 0 0-14.975376 0.53198c0.322185 9.036176 0.934088 15.057795 2.102947 21.58642 0.397112 2.205346 2.95961 14.668176 3.876214 19.688273 3.354224 18.409522 10.007727 28.229932 43.737288 67.741346a7.492683 7.492683 0 0 0 5.696937 2.629932h26.481639a7.502673 7.502673 0 0 0 6.995668-4.810303 497.216937 497.216937 0 0 0 11.084175-32.176078c1.21881-3.963629 2.330224-7.717463 3.571513-12.028253 0.039961-0.137366 2.033015-7.098068 2.462595-8.57163 3.931161-13.334478 6.059083-34.014283 4.068527-52.36636a7.490185 7.490185 0 1 0-14.895454 1.615921c1.765776 16.316566-0.154849 35.018302-3.541541 46.517074-0.457054 1.536-2.46759 8.576624-2.492566 8.659044a675.515317 675.515317 0 0 1-3.491591 11.766009 494.1824 494.1824 0 0 1-8.93877 26.40921z" fill="#524F75" /><path d="M564.116605 710.698459a20.872117 20.872117 0 0 1 20.872117 20.869619V736.780488H543.244488v-5.209912a20.874615 20.874615 0 0 1 20.872117-20.872117z" fill="#D6805E" /><path d="M564.116605 718.191141a13.384429 13.384429 0 0 0-13.184625 11.094166h26.371747a13.384429 13.384429 0 0 0-13.187122-11.094166z m0-14.985365c15.662205 0 28.3648 12.702595 28.3648 28.362302V736.780488c0 4.135961-3.35922 7.492683-7.492683 7.492683H543.244488c-4.135961 0-7.492683-3.356722-7.492683-7.492683v-5.209912c0-15.664702 12.702595-28.3648 28.3648-28.3648z" fill="#524F75" /><path d="M744.248195 420.968898c-1.196332 62.169288-3.823766 104.050888-7.887297 125.652292-4.360741 23.169873-14.887961 52.096624-31.584157 86.775259-18.249678-3.803785-33.045229-7.647532-44.394146-11.526244s-27.153483-13.729093-47.4112-29.553639c35.627707-23.891668 60.20121-44.55399 73.720507-61.974478 12.590205-16.229151 30.170537-53.008234 52.740996-110.332254a2.492566 2.492566 0 1 1 4.815297 0.959064z" fill="#FFFFFF" /><path d="M692.603629 534.932605c-12.957346 16.703688-35.213112 35.882459-66.834731 57.728624 15.727141 11.701073 28.15001 19.081366 37.028839 22.113405 9.82041 3.356722 22.41561 6.713444 37.753131 10.055181 14.967883-31.776468 24.443629-58.338029 28.442225-79.602264 3.341737-17.760156 5.721912-50.131044 7.103063-96.895375-17.959961 43.505015-32.36839 72.256937-43.492527 86.600429z m51.117581 13.069736c-4.498107 23.914146-15.242615 53.422829-32.196059 88.643435a7.500176 7.500176 0 0 1-8.281912 4.083512c-18.526907-3.866224-33.609678-7.7824-45.288273-11.773503-12.330459-4.210888-28.741932-14.4384-49.604059-30.737483-4.01358-3.144429-3.796293-9.290927 0.439571-12.128156 35.018302-23.484566 59.049834-43.682341 71.969717-60.34357 12.010771-15.479883 29.383805-51.82439 51.69202-108.486556a9.992741 9.992741 0 0 1 12.957346-5.636996 9.982751 9.982751 0 0 1 6.326322 9.488235c-1.198829 62.578888-3.848741 104.7552-8.014673 126.891082z" fill="#524F75" /><path d="M520.956254 403.963005c-22.830205-15.896976-30.854868-27.84281-40.935025-48.387746-7.235434-14.743102-9.510712-26.329288-14.665678-51.045152-2.033015-20.015454 7.857327-37.773112 25.182908-42.391102l3.906185-1.041483c14.65319-3.903688 29.700995 4.787824 33.612176 19.413541 0.526985 1.973073 0.834185 4.001093 0.906614 6.039103 0.869151 23.012527 2.582478 37.343532 5.149971 44.384156 3.688898 10.100137 11.75602 22.400624 27.14599 36.626732" fill="#76CEB7" /><path d="M492.469073 269.379434l3.906186-1.041483c10.65959-2.839727 21.598907 3.4816 24.443629 14.108722 0.384624 1.4336 0.60441 2.904663 0.661853 4.388215 0.884137 23.529522 2.647415 38.567337 5.60203 46.674419 4.530576 12.420371 14.061268 25.657444 29.096585 39.558869a7.492683 7.492683 0 1 0 10.170068-11.001756c-13.399415-12.3904-21.551454-23.711844-25.192897-33.692098-2.240312-6.146498-3.878712-20.117854-4.707903-42.09639a34.553756 34.553756 0 0 0-1.15637-7.694986c-4.980137-18.624312-24.133932-29.688507-42.780722-24.718361l-3.901191 1.033991c-20.864624 5.559571-33.125151 26.589034-30.710009 50.39079 0.027473 0.259746 0.067434 0.516995 0.119883 0.774244 3.086985 14.803044 3.688898 17.615298 4.947668 22.925112 1.993054 8.399298 3.90119 14.758088 6.378771 21.009483a122.760117 122.760117 0 0 0 3.946146 8.878829c11.890888 24.231337 21.361639 35.902439 43.380137 51.237464a7.492683 7.492683 0 1 0 8.566634-12.297991c-19.803161-13.789034-27.665483-23.477073-38.49241-45.540527a108.848702 108.848702 0 0 1-3.469112-7.804878c-2.182868-5.504624-3.8912-11.194068-5.726908-18.941502-1.201327-5.067551-1.798244-7.849834-4.775336-22.12839-1.563473-16.746146 6.551102-30.520195 19.693268-34.021776z" fill="#524F75" /><path d="M518.930732 387.234341c-1.82322-1.121405-3.26681-2.010537-4.318283-2.669892-10.462283-6.556098-16.891005-12.712585-21.603903-22.320703-4.160937-8.481717-6.938224-15.916956-9.902829-30.130575-1.168859-11.511259 4.145951-22.632898 14.11122-25.287805l2.247804-0.599415c8.426771-2.245307 13.089717 3.991102 15.337522 12.402888 0.304702 1.13639 0.474537 2.300254 0.524488 3.474107 0.497015 13.234576 2.769795 22.385639 4.250849 26.436683 1.538498 4.223376 5.864273 10.105132 11.508761 16.146732 1.053971 1.1264 2.589971 2.67239 4.610498 4.635473a7.467707 7.467707 0 0 1 2.267785 5.474654c-0.024976 1.733307-0.132371 3.057015-0.322185 3.968624-0.467044 2.24281-1.316215 4.165932-2.555005 5.761873-1.093932 1.408624-3.224351 2.55001-6.391259 3.421659-0.63438 0.174829-1.536 0.372137-2.692371 0.591922a10.000234 10.000234 0 0 1-7.073092-1.306225z" fill="#499C87" /><path d="M567.141151 380.565854a42.770732 39.863571 90 1 0 79.727142 0 42.770732 39.863571 90 1 0-79.727142 0Z" fill="#FFFFFF" /><path d="M637.075356 386.842224a27.430712 26.569054 0 1 0 54.861424 0 27.430712 26.569054 0 1 0-54.861424 0Z" fill="#FFFFFF" /><path d="M667.313327 420.614244c16.633756 0 29.506185-15.467395 29.506185-33.941854s-12.872429-33.936859-29.506185-33.936858c-16.628761 0-29.50119 15.467395-29.50119 33.939356s12.869932 33.941854 29.50119 33.941853z m0-14.985366c-7.682498 0-14.515824-8.21198-14.515825-18.956488s6.830829-18.951493 14.515825-18.951492c7.687493 0 14.52082 8.214478 14.520819 18.95399s-6.833327 18.956488-14.520819 18.956488z" fill="#524F75" /><path d="M664.65842 397.174634c-1.243785 1.62841-3.076995 2.659902-5.127493 2.659903-3.741346 0-6.775883-3.436644-6.775883-7.677503s3.034537-7.677502 6.775883-7.677502c3.693893 0 6.698459 3.354224 6.770888 7.522653l-5.020098 0.829191 3.376703 4.343258z" fill="#232323" /><path d="M606.32039 431.243863c25.525073 0 45.922654-22.320702 45.922654-49.534126S631.842966 332.17561 606.32039 332.17561c-25.51758 0-45.917659 22.320702-45.917658 49.534127s20.400078 49.534127 45.917658 49.534126z m0-14.985365c-16.923473 0-30.932293-15.325034-30.932292-34.548761S589.399415 347.160976 606.32039 347.160976c16.928468 0 30.937288 15.325034 30.937288 34.548761s-14.003824 34.548761-30.937288 34.548761z" fill="#524F75" /><path d="M604.062595 397.154654c-2.215337 2.817249-5.487141 4.600507-9.141073 4.600507-6.668488 0-12.078205-5.944195-12.078205-13.277034s5.40722-13.274537 12.078205-13.274537c6.593561 0 11.945834 5.799337 12.075707 13.007298l-8.953756 1.431102 6.019122 7.512664z" fill="#232323" /><path d="M584.451746 557.175883c-8.51918 0-18.526907 6.591063-22.030985 14.043785-3.838751 8.169522-3.623961 19.233717 0.237268 26.179434a7.492683 7.492683 0 1 0 13.094712-7.282887c-1.478556-2.657405-1.590946-8.644059 0.237269-12.530264 1.071454-2.280273 5.854283-5.429698 8.466731-5.429697a7.492683 7.492683 0 0 0 7.492683-7.492683 7.500176 7.500176 0 0 0-7.497678-7.487688z" fill="#524F75" /></svg>